iA Writer Duospace-RegularItalic.ufo
<glyph name="plus" format="1">
  <advance width="600"/>
  <unicode hex="002B"/>
  <outline>
    <contour>
      <point x="265" y="272" type="line"/>
      <point x="230" y="62" type="line"/>
      <point x="304" y="62" type="line"/>
      <point x="339" y="272" type="line"/>
      <point x="537" y="272" type="line"/>
      <point x="548" y="338" type="line"/>
      <point x="350" y="338" type="line"/>
      <point x="385" y="548" type="line"/>
      <point x="311" y="548" type="line"/>
      <point x="276" y="338" type="line"/>
      <point x="78" y="338" type="line"/>
      <point x="67" y="272" type="line"/>
    </contour>
  </outline>
</glyph>
<glyph name="hyphen" format="1">
  <advance width="600"/>
  <unicode hex="002D"/>
  <outline>
    <contour>
      <point x="171" y="345" type="line"/>
      <point x="157" y="263" type="line"/>
      <point x="443" y="263" type="line"/>
      <point x="457" y="345" type="line"/>
    </contour>
  </outline>
</glyph>
<glyph name="zero" format="1">
  <advance width="600"/>
  <unicode hex="0030"/>
  <outline>
    <contour>
      <point x="260" y="-12" type="curve"/>
      <point x="508" y="-12"/>
      <point x="570" y="297"/>
      <point x="570" y="473" type="curve"/>
      <point x="570" y="625"/>
      <point x="508" y="710"/>
      <point x="372" y="710" type="curve"/>
      <point x="124" y="710"/>
      <point x="62" y="401"/>
      <point x="62" y="225" type="curve"/>
      <point x="62" y="73"/>
      <point x="124" y="-12"/>
    </contour>
    <contour>
      <point x="266" y="60" type="curve"/>
      <point x="178" y="60"/>
      <point x="141" y="115"/>
      <point x="141" y="210" type="curve"/>
      <point x="141" y="233"/>
      <point x="143" y="262"/>
      <point x="148" y="292" type="curve"/>
      <point x="167" y="406" type="line" smooth="yes"/>
      <point x="191" y="549"/>
      <point x="259" y="638"/>
      <point x="366" y="638" type="curve"/>
      <point x="454" y="638"/>
      <point x="491" y="583"/>
      <point x="491" y="488" type="curve"/>
      <point x="491" y="465"/>
      <point x="489" y="436"/>
      <point x="484" y="406" type="curve"/>
      <point x="465" y="292" type="line" smooth="yes"/>
      <point x="441" y="149"/>
      <point x="373" y="60"/>
    </contour>
    <contour>
      <point x="307" y="291" type="curve"/>
      <point x="354" y="291"/>
      <point x="372" y="312"/>
      <point x="377" y="342" type="curve"/>
      <point x="379" y="354"/>
      <point x="381" y="364"/>
      <point x="381" y="370" type="curve"/>
      <point x="381" y="391"/>
      <point x="365" y="407"/>
      <point x="325" y="407" type="curve"/>
      <point x="278" y="407"/>
      <point x="260" y="386"/>
      <point x="255" y="356" type="curve"/>
      <point x="253" y="344"/>
      <point x="251" y="334"/>
      <point x="251" y="328" type="curve"/>
      <point x="251" y="307"/>
      <point x="267" y="291"/>
    </contour>
  </outline>
</glyph>
<glyph name="semicolon" format="1">
  <advance width="600"/>
  <unicode hex="003B"/>
  <outline>
    <contour>
      <point x="323" y="389" type="curve"/>
      <point x="374" y="389"/>
      <point x="398" y="412"/>
      <point x="404" y="448" type="curve"/>
      <point x="406" y="460"/>
      <point x="408" y="472"/>
      <point x="408" y="480" type="curve"/>
      <point x="408" y="505"/>
      <point x="390" y="525"/>
      <point x="343" y="525" type="curve"/>
      <point x="292" y="525"/>
      <point x="268" y="502"/>
      <point x="262" y="466" type="curve"/>
      <point x="260" y="454"/>
      <point x="258" y="442"/>
      <point x="258" y="434" type="curve"/>
      <point x="258" y="409"/>
      <point x="276" y="389"/>
    </contour>
    <contour>
      <point x="364" y="135" type="line"/>
      <point x="237" y="135" type="line"/>
      <point x="139" y="-141" type="line"/>
      <point x="205" y="-141" type="line"/>
    </contour>
  </outline>
</glyph>
<glyph name="F" format="1">
  <advance width="600"/>
  <unicode hex="0046"/>
  <outline>
    <contour>
      <point x="164" y="698" type="line"/>
      <point x="47" y="0" type="line"/>
      <point x="129" y="0" type="line"/>
      <point x="182" y="317" type="line"/>
      <point x="509" y="317" type="line"/>
      <point x="521" y="389" type="line"/>
      <point x="194" y="389" type="line"/>
      <point x="234" y="626" type="line"/>
      <point x="590" y="626" type="line"/>
      <point x="602" y="698" type="line"/>
    </contour>
  </outline>
</glyph>
<glyph name="L" format="1">
  <advance width="600"/>
  <unicode hex="004C"/>
  <outline>
    <contour>
      <point x="195" y="698" type="line"/>
      <point x="78" y="0" type="line"/>
      <point x="491" y="0" type="line"/>
      <point x="503" y="72" type="line"/>
      <point x="172" y="72" type="line"/>
      <point x="276" y="698" type="line"/>
    </contour>
  </outline>
</glyph>
<glyph name="T" format="1">
  <advance width="600"/>
  <unicode hex="0054"/>
  <outline>
    <contour>
      <point x="298" y="0" type="line"/>
      <point x="403" y="626" type="line"/>
      <point x="637" y="626" type="line"/>
      <point x="649" y="698" type="line"/>
      <point x="99" y="698" type="line"/>
      <point x="87" y="626" type="line"/>
      <point x="321" y="626" type="line"/>
      <point x="216" y="0" type="line"/>
    </contour>
  </outline>
</glyph>
<glyph name="Z" format="1">
  <advance width="600"/>
  <unicode hex="005A"/>
  <outline>
    <contour>
      <point x="5" y="0" type="line"/>
      <point x="508" y="0" type="line"/>
      <point x="520" y="72" type="line"/>
      <point x="111" y="72" type="line"/>
      <point x="597" y="624" type="line"/>
      <point x="609" y="698" type="line"/>
      <point x="141" y="698" type="line"/>
      <point x="129" y="626" type="line"/>
      <point x="503" y="626" type="line"/>
      <point x="17" y="74" type="line"/>
    </contour>
  </outline>
</glyph>
<glyph name="bracketright" format="1">
  <advance width="600"/>
  <unicode hex="005D"/>
  <outline>
    <contour>
      <point x="286" y="-138" type="line"/>
      <point x="436" y="760" type="line"/>
      <point x="160" y="760" type="line"/>
      <point x="149" y="699" type="line"/>
      <point x="358" y="699" type="line"/>
      <point x="229" y="-77" type="line"/>
      <point x="20" y="-77" type="line"/>
      <point x="10" y="-138" type="line"/>
    </contour>
  </outline>
</glyph>
<glyph name="i" format="1">
  <advance width="600"/>
  <unicode hex="0069"/>
  <outline>
    <contour>
      <point x="340" y="631" type="curve"/>
      <point x="380" y="631"/>
      <point x="401" y="649"/>
      <point x="406" y="679" type="curve"/>
      <point x="408" y="691"/>
      <point x="410" y="700"/>
      <point x="410" y="708" type="curve"/>
      <point x="410" y="729"/>
      <point x="395" y="748"/>
      <point x="352" y="748" type="curve"/>
      <point x="312" y="748"/>
      <point x="291" y="730"/>
      <point x="286" y="700" type="curve"/>
      <point x="284" y="688"/>
      <point x="282" y="679"/>
      <point x="282" y="671" type="curve"/>
      <point x="282" y="650"/>
      <point x="297" y="631"/>
    </contour>
    <contour>
      <point x="272" y="-12" type="curve"/>
      <point x="317" y="-12"/>
      <point x="354" y="12"/>
      <point x="448" y="99" type="curve"/>
      <point x="539" y="183" type="line"/>
      <point x="492" y="227" type="line"/>
      <point x="295" y="57" type="line"/>
      <point x="272" y="66" type="line"/>
      <point x="359" y="516" type="line"/>
      <point x="93" y="516" type="line"/>
      <point x="82" y="449" type="line"/>
      <point x="268" y="449" type="line"/>
      <point x="200" y="97" type="line" smooth="yes"/>
      <point x="198" y="85"/>
      <point x="195" y="70"/>
      <point x="195" y="57" type="curve"/>
      <point x="195" y="17"/>
      <point x="222" y="-12"/>
    </contour>
  </outline>
</glyph>
<glyph name="guillemotleft" format="1">
  <advance width="600"/>
  <unicode hex="00AB"/>
  <outline>
    <contour>
      <point x="299" y="231" type="line"/>
      <point x="474" y="57" type="line"/>
      <point x="508" y="107" type="line"/>
      <point x="387" y="265" type="line"/>
      <point x="560" y="423" type="line"/>
      <point x="545" y="483" type="line"/>
      <point x="312" y="309" type="line"/>
    </contour>
    <contour>
      <point x="69" y="231" type="line"/>
      <point x="244" y="57" type="line"/>
      <point x="278" y="107" type="line"/>
      <point x="157" y="265" type="line"/>
      <point x="330" y="423" type="line"/>
      <point x="315" y="483" type="line"/>
      <point x="82" y="309" type="line"/>
    </contour>
  </outline>
</glyph>
<glyph name="logicalnot" format="1">
  <advance width="600"/>
  <unicode hex="00AC"/>
  <outline>
    <contour>
      <point x="459" y="272" type="line"/>
      <point x="427" y="78" type="line"/>
      <point x="495" y="78" type="line"/>
      <point x="538" y="338" type="line"/>
      <point x="78" y="338" type="line"/>
      <point x="67" y="272" type="line"/>
    </contour>
  </outline>
</glyph>
<glyph name="macron" format="1">
  <advance width="600"/>
  <unicode hex="00AF"/>
  <outline>
    <contour>
      <point x="468" y="705" type="line"/>
      <point x="191" y="705" type="line"/>
      <point x="180" y="638" type="line"/>
      <point x="457" y="638" type="line"/>
    </contour>
  </outline>
</glyph>
<glyph name="guillemotright" format="1">
  <advance width="600"/>
  <unicode hex="00BB"/>
  <outline>
    <contour>
      <point x="448" y="275" type="line"/>
      <point x="275" y="117" type="line"/>
      <point x="290" y="57" type="line"/>
      <point x="523" y="231" type="line"/>
      <point x="536" y="309" type="line"/>
      <point x="361" y="483" type="line"/>
      <point x="327" y="433" type="line"/>
    </contour>
    <contour>
      <point x="218" y="275" type="line"/>
      <point x="45" y="117" type="line"/>
      <point x="60" y="57" type="line"/>
      <point x="293" y="231" type="line"/>
      <point x="306" y="309" type="line"/>
      <point x="131" y="483" type="line"/>
      <point x="97" y="433" type="line"/>
    </contour>
  </outline>
</glyph>
<glyph name="onehalf" format="1">
  <advance width="600"/>
  <unicode hex="00BD"/>
  <outline>
    <contour>
      <point x="424" y="148" type="curve"/>
      <point x="297" y="57" type="line"/>
      <point x="287" y="0" type="line"/>
      <point x="530" y="0" type="line"/>
      <point x="538" y="50" type="line"/>
      <point x="365" y="50" type="line"/>
      <point x="454" y="112" type="line" smooth="yes"/>
      <point x="514" y="154"/>
      <point x="559" y="191"/>
      <point x="559" y="250" type="curve"/>
      <point x="559" y="300"/>
      <point x="524" y="341"/>
      <point x="452" y="341" type="curve"/>
      <point x="384" y="341"/>
      <point x="345" y="303"/>
      <point x="323" y="256" type="curve"/>
      <point x="374" y="234" type="line"/>
      <point x="392" y="270"/>
      <point x="412" y="290"/>
      <point x="445" y="290" type="curve"/>
      <point x="477" y="290"/>
      <point x="494" y="274"/>
      <point x="494" y="248" type="curve"/>
      <point x="494" y="245"/>
      <point x="493" y="237"/>
      <point x="492" y="231" type="curve"/>
      <point x="487" y="201"/>
      <point x="469" y="180"/>
    </contour>
    <contour>
      <point x="656" y="698" type="line"/>
      <point x="584" y="698" type="line"/>
      <point x="375" y="398" type="line"/>
      <point x="447" y="398" type="line"/>
    </contour>
    <contour>
      <point x="257" y="300" type="line"/>
      <point x="185" y="300" type="line"/>
      <point x="-24" y="0" type="line"/>
      <point x="48" y="0" type="line"/>
    </contour>
    <contour>
      <point x="159" y="413" type="line"/>
      <point x="66" y="413" type="line"/>
      <point x="58" y="363" type="line"/>
      <point x="295" y="363" type="line"/>
      <point x="304" y="413" type="line"/>
      <point x="221" y="413" type="line"/>
      <point x="269" y="698" type="line"/>
      <point x="202" y="698" type="line"/>
      <point x="86" y="642" type="line"/>
      <point x="103" y="596" type="line"/>
      <point x="198" y="642" type="line"/>
    </contour>
  </outline>
</glyph>
<glyph name="Atilde" format="1">
  <advance width="600"/>
  <unicode hex="00C3"/>
  <outline>
    <contour>
      <point x="465" y="782" type="curve"/>
      <point x="507" y="782"/>
      <point x="542" y="808"/>
      <point x="564" y="834" type="curve"/>
      <point x="536" y="875" type="line"/>
      <point x="513" y="857"/>
      <point x="494" y="846"/>
      <point x="473" y="846" type="curve"/>
      <point x="454" y="846"/>
      <point x="432" y="855"/>
      <point x="409" y="869" type="curve"/>
      <point x="389" y="881"/>
      <point x="366" y="897"/>
      <point x="333" y="897" type="curve"/>
      <point x="291" y="897"/>
      <point x="256" y="871"/>
      <point x="234" y="845" type="curve"/>
      <point x="262" y="804" type="line"/>
      <point x="285" y="822"/>
      <point x="304" y="833"/>
      <point x="325" y="833" type="curve"/>
      <point x="344" y="833"/>
      <point x="366" y="824"/>
      <point x="389" y="810" type="curve"/>
      <point x="409" y="798"/>
      <point x="432" y="782"/>
    </contour>
    <contour>
      <point x="417" y="199" type="line"/>
      <point x="442" y="0" type="line"/>
      <point x="528" y="0" type="line"/>
      <point x="431" y="698" type="line"/>
      <point x="321" y="698" type="line"/>
      <point x="-9" y="0" type="line"/>
      <point x="79" y="0" type="line"/>
      <point x="171" y="199" type="line"/>
    </contour>
    <contour>
      <point x="357" y="614" type="line"/>
      <point x="366" y="614" type="line"/>
      <point x="409" y="272" type="line"/>
      <point x="202" y="272" type="line"/>
    </contour>
  </outline>
</glyph>
<glyph name="Egrave" format="1">
  <advance width="600"/>
  <unicode hex="00C8"/>
  <outline>
    <contour>
      <point x="382" y="949" type="line"/>
      <point x="309" y="918" type="line"/>
      <point x="383" y="755" type="line"/>
      <point x="434" y="775" type="line"/>
    </contour>
    <contour>
      <point x="164" y="698" type="line"/>
      <point x="47" y="0" type="line"/>
      <point x="477" y="0" type="line"/>
      <point x="489" y="72" type="line"/>
      <point x="141" y="72" type="line"/>
      <point x="182" y="318" type="line"/>
      <point x="517" y="318" type="line"/>
      <point x="529" y="390" type="line"/>
      <point x="194" y="390" type="line"/>
      <point x="234" y="626" type="line"/>
      <point x="580" y="626" type="line"/>
      <point x="592" y="698" type="line"/>
    </contour>
  </outline>
</glyph>
<glyph name="Edieresis" format="1">
  <advance width="600"/>
  <unicode hex="00CB"/>
  <outline>
    <contour>
      <point x="305" y="789" type="curve"/>
      <point x="345" y="789"/>
      <point x="357" y="806"/>
      <point x="364" y="832" type="curve"/>
      <point x="366" y="839"/>
      <point x="368" y="850"/>
      <point x="368" y="857" type="curve"/>
      <point x="368" y="876"/>
      <point x="355" y="893"/>
      <point x="316" y="893" type="curve"/>
      <point x="276" y="893"/>
      <point x="264" y="876"/>
      <point x="257" y="850" type="curve"/>
      <point x="255" y="843"/>
      <point x="253" y="832"/>
      <point x="253" y="825" type="curve"/>
      <point x="253" y="806"/>
      <point x="266" y="789"/>
    </contour>
    <contour>
      <point x="491" y="789" type="curve"/>
      <point x="531" y="789"/>
      <point x="543" y="806"/>
      <point x="550" y="832" type="curve"/>
      <point x="552" y="839"/>
      <point x="554" y="850"/>
      <point x="554" y="857" type="curve"/>
      <point x="554" y="876"/>
      <point x="541" y="893"/>
      <point x="502" y="893" type="curve"/>
      <point x="462" y="893"/>
      <point x="450" y="876"/>
      <point x="443" y="850" type="curve"/>
      <point x="441" y="843"/>
      <point x="439" y="832"/>
      <point x="439" y="825" type="curve"/>
      <point x="439" y="806"/>
      <point x="452" y="789"/>
    </contour>
    <contour>
      <point x="164" y="698" type="line"/>
      <point x="47" y="0" type="line"/>
      <point x="477" y="0" type="line"/>
      <point x="489" y="72" type="line"/>
      <point x="141" y="72" type="line"/>
      <point x="182" y="318" type="line"/>
      <point x="517" y="318" type="line"/>
      <point x="529" y="390" type="line"/>
      <point x="194" y="390" type="line"/>
      <point x="234" y="626" type="line"/>
      <point x="580" y="626" type="line"/>
      <point x="592" y="698" type="line"/>
    </contour>
  </outline>
</glyph>
<glyph name="Ntilde" format="1">
  <advance width="600"/>
  <unicode hex="00D1"/>
  <outline>
    <contour>
      <point x="462" y="782" type="curve"/>
      <point x="504" y="782"/>
      <point x="539" y="808"/>
      <point x="561" y="834" type="curve"/>
      <point x="533" y="875" type="line"/>
      <point x="510" y="857"/>
      <point x="491" y="846"/>
      <point x="470" y="846" type="curve"/>
      <point x="451" y="846"/>
      <point x="429" y="855"/>
      <point x="406" y="869" type="curve"/>
      <point x="386" y="881"/>
      <point x="363" y="897"/>
      <point x="330" y="897" type="curve"/>
      <point x="288" y="897"/>
      <point x="253" y="871"/>
      <point x="231" y="845" type="curve"/>
      <point x="259" y="804" type="line"/>
      <point x="282" y="822"/>
      <point x="301" y="833"/>
      <point x="322" y="833" type="curve"/>
      <point x="341" y="833"/>
      <point x="363" y="824"/>
      <point x="386" y="810" type="curve"/>
      <point x="406" y="798"/>
      <point x="429" y="782"/>
    </contour>
    <contour>
      <point x="216" y="602" type="line"/>
      <point x="223" y="602" type="line"/>
      <point x="356" y="0" type="line"/>
      <point x="475" y="0" type="line"/>
      <point x="592" y="698" type="line"/>
      <point x="516" y="698" type="line"/>
      <point x="415" y="96" type="line"/>
      <point x="408" y="96" type="line"/>
      <point x="275" y="698" type="line"/>
      <point x="156" y="698" type="line"/>
      <point x="39" y="0" type="line"/>
      <point x="115" y="0" type="line"/>
    </contour>
  </outline>
</glyph>
<glyph name="Ograve" format="1">
  <advance width="600"/>
  <unicode hex="00D2"/>
  <outline>
    <contour>
      <point x="368" y="949" type="line"/>
      <point x="295" y="918" type="line"/>
      <point x="369" y="755" type="line"/>
      <point x="420" y="775" type="line"/>
    </contour>
    <contour>
      <point x="260" y="-12" type="curve"/>
      <point x="510" y="-12"/>
      <point x="570" y="297"/>
      <point x="570" y="473" type="curve"/>
      <point x="570" y="625"/>
      <point x="508" y="710"/>
      <point x="372" y="710" type="curve"/>
      <point x="122" y="710"/>
      <point x="62" y="401"/>
      <point x="62" y="225" type="curve"/>
      <point x="62" y="73"/>
      <point x="124" y="-12"/>
    </contour>
    <contour>
      <point x="266" y="60" type="curve"/>
      <point x="178" y="60"/>
      <point x="143" y="115"/>
      <point x="143" y="210" type="curve"/>
      <point x="143" y="233"/>
      <point x="145" y="262"/>
      <point x="150" y="292" type="curve"/>
      <point x="169" y="406" type="line" smooth="yes"/>
      <point x="193" y="549"/>
      <point x="259" y="638"/>
      <point x="366" y="638" type="curve"/>
      <point x="454" y="638"/>
      <point x="489" y="583"/>
      <point x="489" y="488" type="curve"/>
      <point x="489" y="465"/>
      <point x="487" y="436"/>
      <point x="482" y="406" type="curve"/>
      <point x="463" y="292" type="line" smooth="yes"/>
      <point x="439" y="149"/>
      <point x="373" y="60"/>
    </contour>
  </outline>
</glyph>
<glyph name="Odieresis" format="1">
  <advance width="600"/>
  <unicode hex="00D6"/>
  <outline>
    <contour>
      <point x="291" y="789" type="curve"/>
      <point x="331" y="789"/>
      <point x="343" y="806"/>
      <point x="350" y="832" type="curve"/>
      <point x="352" y="839"/>
      <point x="354" y="850"/>
      <point x="354" y="857" type="curve"/>
      <point x="354" y="876"/>
      <point x="341" y="893"/>
      <point x="302" y="893" type="curve"/>
      <point x="262" y="893"/>
      <point x="250" y="876"/>
      <point x="243" y="850" type="curve"/>
      <point x="241" y="843"/>
      <point x="239" y="832"/>
      <point x="239" y="825" type="curve"/>
      <point x="239" y="806"/>
      <point x="252" y="789"/>
    </contour>
    <contour>
      <point x="477" y="789" type="curve"/>
      <point x="517" y="789"/>
      <point x="529" y="806"/>
      <point x="536" y="832" type="curve"/>
      <point x="538" y="839"/>
      <point x="540" y="850"/>
      <point x="540" y="857" type="curve"/>
      <point x="540" y="876"/>
      <point x="527" y="893"/>
      <point x="488" y="893" type="curve"/>
      <point x="448" y="893"/>
      <point x="436" y="876"/>
      <point x="429" y="850" type="curve"/>
      <point x="427" y="843"/>
      <point x="425" y="832"/>
      <point x="425" y="825" type="curve"/>
      <point x="425" y="806"/>
      <point x="438" y="789"/>
    </contour>
    <contour>
      <point x="260" y="-12" type="curve"/>
      <point x="510" y="-12"/>
      <point x="570" y="297"/>
      <point x="570" y="473" type="curve"/>
      <point x="570" y="625"/>
      <point x="508" y="710"/>
      <point x="372" y="710" type="curve"/>
      <point x="122" y="710"/>
      <point x="62" y="401"/>
      <point x="62" y="225" type="curve"/>
      <point x="62" y="73"/>
      <point x="124" y="-12"/>
    </contour>
    <contour>
      <point x="266" y="60" type="curve"/>
      <point x="178" y="60"/>
      <point x="143" y="115"/>
      <point x="143" y="210" type="curve"/>
      <point x="143" y="233"/>
      <point x="145" y="262"/>
      <point x="150" y="292" type="curve"/>
      <point x="169" y="406" type="line" smooth="yes"/>
      <point x="193" y="549"/>
      <point x="259" y="638"/>
      <point x="366" y="638" type="curve"/>
      <point x="454" y="638"/>
      <point x="489" y="583"/>
      <point x="489" y="488" type="curve"/>
      <point x="489" y="465"/>
      <point x="487" y="436"/>
      <point x="482" y="406" type="curve"/>
      <point x="463" y="292" type="line" smooth="yes"/>
      <point x="439" y="149"/>
      <point x="373" y="60"/>
    </contour>
  </outline>
</glyph>
<glyph name="atilde" format="1">
  <advance width="600"/>
  <unicode hex="00E3"/>
  <outline>
    <contour>
      <point x="411" y="612" type="curve"/>
      <point x="453" y="612"/>
      <point x="488" y="638"/>
      <point x="510" y="664" type="curve"/>
      <point x="482" y="705" type="line"/>
      <point x="459" y="687"/>
      <point x="440" y="676"/>
      <point x="419" y="676" type="curve"/>
      <point x="400" y="676"/>
      <point x="378" y="685"/>
      <point x="355" y="699" type="curve"/>
      <point x="335" y="711"/>
      <point x="312" y="727"/>
      <point x="279" y="727" type="curve"/>
      <point x="237" y="727"/>
      <point x="202" y="701"/>
      <point x="180" y="675" type="curve"/>
      <point x="208" y="634" type="line"/>
      <point x="231" y="652"/>
      <point x="250" y="663"/>
      <point x="271" y="663" type="curve"/>
      <point x="290" y="663"/>
      <point x="312" y="654"/>
      <point x="335" y="640" type="curve"/>
      <point x="355" y="628"/>
      <point x="378" y="612"/>
    </contour>
    <contour>
      <point x="403" y="122" type="line"/>
      <point x="383" y="0" type="line"/>
      <point x="461" y="0" type="line"/>
      <point x="547" y="516" type="line"/>
      <point x="469" y="516" type="line"/>
      <point x="454" y="426" type="line"/>
      <point x="451" y="426" type="line"/>
      <point x="429" y="493"/>
      <point x="376" y="528"/>
      <point x="300" y="528" type="curve"/>
      <point x="118" y="528"/>
      <point x="56" y="326"/>
      <point x="56" y="188" type="curve"/>
      <point x="56" y="56"/>
      <point x="113" y="-12"/>
      <point x="217" y="-12" type="curve"/>
      <point x="308" y="-12"/>
      <point x="360" y="41"/>
      <point x="400" y="122" type="curve"/>
    </contour>
    <contour>
      <point x="244" y="57" type="curve"/>
      <point x="172" y="57"/>
      <point x="135" y="103"/>
      <point x="135" y="180" type="curve"/>
      <point x="135" y="193"/>
      <point x="136" y="207"/>
      <point x="139" y="225" type="curve"/>
      <point x="151" y="297" type="line" smooth="yes"/>
      <point x="167" y="393"/>
      <point x="224" y="459"/>
      <point x="323" y="459" type="curve"/>
      <point x="400" y="459"/>
      <point x="453" y="418"/>
      <point x="441" y="346" type="curve"/>
      <point x="422" y="232" type="line" smooth="yes"/>
      <point x="414" y="184"/>
      <point x="391" y="143"/>
      <point x="365" y="114" type="curve"/>
      <point x="329" y="74"/>
      <point x="287" y="57"/>
    </contour>
  </outline>
</glyph>
<glyph name="idieresis" format="1">
  <advance width="600"/>
  <unicode hex="00EF"/>
  <outline>
    <contour>
      <point x="242" y="619" type="curve"/>
      <point x="282" y="619"/>
      <point x="295" y="636"/>
      <point x="301" y="662" type="curve"/>
      <point x="303" y="671"/>
      <point x="305" y="680"/>
      <point x="305" y="687" type="curve"/>
      <point x="305" y="706"/>
      <point x="292" y="723"/>
      <point x="253" y="723" type="curve"/>
      <point x="213" y="723"/>
      <point x="200" y="706"/>
      <point x="194" y="680" type="curve"/>
      <point x="192" y="671"/>
      <point x="190" y="662"/>
      <point x="190" y="655" type="curve"/>
      <point x="190" y="636"/>
      <point x="203" y="619"/>
    </contour>
    <contour>
      <point x="428" y="619" type="curve"/>
      <point x="468" y="619"/>
      <point x="481" y="636"/>
      <point x="487" y="662" type="curve"/>
      <point x="489" y="671"/>
      <point x="491" y="680"/>
      <point x="491" y="687" type="curve"/>
      <point x="491" y="706"/>
      <point x="478" y="723"/>
      <point x="439" y="723" type="curve"/>
      <point x="399" y="723"/>
      <point x="386" y="706"/>
      <point x="380" y="680" type="curve"/>
      <point x="378" y="671"/>
      <point x="376" y="662"/>
      <point x="376" y="655" type="curve"/>
      <point x="376" y="636"/>
      <point x="389" y="619"/>
    </contour>
    <contour>
      <point x="272" y="-12" type="curve"/>
      <point x="317" y="-12"/>
      <point x="354" y="12"/>
      <point x="448" y="99" type="curve"/>
      <point x="539" y="183" type="line"/>
      <point x="492" y="227" type="line"/>
      <point x="295" y="57" type="line"/>
      <point x="272" y="66" type="line"/>
      <point x="359" y="516" type="line"/>
      <point x="93" y="516" type="line"/>
      <point x="82" y="449" type="line"/>
      <point x="268" y="449" type="line"/>
      <point x="200" y="97" type="line" smooth="yes"/>
      <point x="198" y="85"/>
      <point x="195" y="70"/>
      <point x="195" y="57" type="curve"/>
      <point x="195" y="17"/>
      <point x="222" y="-12"/>
    </contour>
  </outline>
</glyph>
<glyph name="ucircumflex" format="1">
  <advance width="600"/>
  <unicode hex="00FB"/>
  <outline>
    <contour>
      <point x="516" y="618" type="line"/>
      <point x="429" y="765" type="line"/>
      <point x="331" y="765" type="line"/>
      <point x="198" y="624" type="line"/>
      <point x="237" y="591" type="line"/>
      <point x="374" y="708" type="line"/>
      <point x="470" y="591" type="line"/>
    </contour>
    <contour>
      <point x="395" y="122" type="curve"/>
      <point x="399" y="122" type="line"/>
      <point x="379" y="0" type="line"/>
      <point x="457" y="0" type="line"/>
      <point x="543" y="516" type="line"/>
      <point x="465" y="516" type="line"/>
      <point x="417" y="231" type="line" smooth="yes"/>
      <point x="407" y="172"/>
      <point x="369" y="126"/>
      <point x="358" y="113" type="curve"/>
      <point x="329" y="79"/>
      <point x="294" y="57"/>
      <point x="249" y="57" type="curve"/>
      <point x="191" y="57"/>
      <point x="163" y="95"/>
      <point x="163" y="156" type="curve"/>
      <point x="163" y="167"/>
      <point x="164" y="187"/>
      <point x="168" y="211" type="curve"/>
      <point x="219" y="516" type="line"/>
      <point x="141" y="516" type="line"/>
      <point x="89" y="204" type="line" smooth="yes"/>
      <point x="85" y="181"/>
      <point x="83" y="157"/>
      <point x="83" y="137" type="curve"/>
      <point x="83" y="43"/>
      <point x="137" y="-12"/>
      <point x="223" y="-12" type="curve"/>
      <point x="306" y="-12"/>
      <point x="357" y="40"/>
    </contour>
  </outline>
</glyph>
<glyph name="Dcaron" format="1">
  <advance width="600"/>
  <unicode hex="010E"/>
  <outline>
    <contour>
      <point x="208" y="916" type="line"/>
      <point x="295" y="769" type="line"/>
      <point x="393" y="769" type="line"/>
      <point x="526" y="910" type="line"/>
      <point x="487" y="943" type="line"/>
      <point x="350" y="826" type="line"/>
      <point x="254" y="943" type="line"/>
    </contour>
    <contour>
      <point x="343" y="698" type="curve"/>
      <point x="172" y="698" type="line"/>
      <point x="55" y="0" type="line"/>
      <point x="248" y="0" type="line" smooth="yes"/>
      <point x="443" y="0"/>
      <point x="565" y="148"/>
      <point x="565" y="473" type="curve"/>
      <point x="565" y="602"/>
      <point x="489" y="698"/>
    </contour>
    <contour>
      <point x="255" y="72" type="curve"/>
      <point x="149" y="72" type="line"/>
      <point x="242" y="626" type="line"/>
      <point x="333" y="626" type="line" smooth="yes"/>
      <point x="431" y="626"/>
      <point x="483" y="572"/>
      <point x="483" y="471" type="curve"/>
      <point x="483" y="443"/>
      <point x="480" y="409"/>
      <point x="476" y="385" type="curve"/>
      <point x="460" y="289" type="line" smooth="yes"/>
      <point x="436" y="146"/>
      <point x="366" y="72"/>
    </contour>
  </outline>
</glyph>
<glyph name="Ebreve" format="1">
  <advance width="600"/>
  <unicode hex="0114"/>
  <outline>
    <contour>
      <point x="394" y="765" type="curve"/>
      <point x="499" y="765"/>
      <point x="546" y="854"/>
      <point x="575" y="916" type="curve"/>
      <point x="525" y="937" type="line"/>
      <point x="498" y="903" type="line" smooth="yes"/>
      <point x="455" y="849"/>
      <point x="438" y="828"/>
      <point x="396" y="828" type="curve"/>
      <point x="351" y="828"/>
      <point x="338" y="853"/>
      <point x="316" y="903" type="curve"/>
      <point x="301" y="937" type="line"/>
      <point x="253" y="916" type="line"/>
      <point x="262" y="855"/>
      <point x="288" y="765"/>
    </contour>
    <contour>
      <point x="164" y="698" type="line"/>
      <point x="47" y="0" type="line"/>
      <point x="477" y="0" type="line"/>
      <point x="489" y="72" type="line"/>
      <point x="141" y="72" type="line"/>
      <point x="182" y="318" type="line"/>
      <point x="517" y="318" type="line"/>
      <point x="529" y="390" type="line"/>
      <point x="194" y="390" type="line"/>
      <point x="234" y="626" type="line"/>
      <point x="580" y="626" type="line"/>
      <point x="592" y="698" type="line"/>
    </contour>
  </outline>
</glyph>
<glyph name="Ecaron" format="1">
  <advance width="600"/>
  <unicode hex="011A"/>
  <outline>
    <contour>
      <point x="256" y="916" type="line"/>
      <point x="343" y="769" type="line"/>
      <point x="441" y="769" type="line"/>
      <point x="574" y="910" type="line"/>
      <point x="535" y="943" type="line"/>
      <point x="398" y="826" type="line"/>
      <point x="302" y="943" type="line"/>
    </contour>
    <contour>
      <point x="164" y="698" type="line"/>
      <point x="47" y="0" type="line"/>
      <point x="477" y="0" type="line"/>
      <point x="489" y="72" type="line"/>
      <point x="141" y="72" type="line"/>
      <point x="182" y="318" type="line"/>
      <point x="517" y="318" type="line"/>
      <point x="529" y="390" type="line"/>
      <point x="194" y="390" type="line"/>
      <point x="234" y="626" type="line"/>
      <point x="580" y="626" type="line"/>
      <point x="592" y="698" type="line"/>
    </contour>
  </outline>
</glyph>
<glyph name="Ibreve" format="1">
  <advance width="600"/>
  <unicode hex="012C"/>
  <outline>
    <contour>
      <point x="387" y="765" type="curve"/>
      <point x="492" y="765"/>
      <point x="539" y="854"/>
      <point x="568" y="916" type="curve"/>
      <point x="518" y="937" type="line"/>
      <point x="491" y="903" type="line" smooth="yes"/>
      <point x="448" y="849"/>
      <point x="431" y="828"/>
      <point x="389" y="828" type="curve"/>
      <point x="344" y="828"/>
      <point x="331" y="853"/>
      <point x="309" y="903" type="curve"/>
      <point x="294" y="937" type="line"/>
      <point x="246" y="916" type="line"/>
      <point x="255" y="855"/>
      <point x="281" y="765"/>
    </contour>
    <contour>
      <point x="52" y="66" type="line"/>
      <point x="41" y="0" type="line"/>
      <point x="473" y="0" type="line"/>
      <point x="484" y="66" type="line"/>
      <point x="309" y="66" type="line"/>
      <point x="404" y="632" type="line"/>
      <point x="579" y="632" type="line"/>
      <point x="590" y="698" type="line"/>
      <point x="158" y="698" type="line"/>
      <point x="147" y="632" type="line"/>
      <point x="322" y="632" type="line"/>
      <point x="227" y="66" type="line"/>
    </contour>
  </outline>
</glyph>
<glyph name="dotlessi" format="1">
  <advance width="600"/>
  <unicode hex="0131"/>
  <outline>
    <contour>
      <point x="272" y="-12" type="curve"/>
      <point x="317" y="-12"/>
      <point x="354" y="12"/>
      <point x="448" y="99" type="curve"/>
      <point x="539" y="183" type="line"/>
      <point x="492" y="227" type="line"/>
      <point x="295" y="57" type="line"/>
      <point x="272" y="66" type="line"/>
      <point x="359" y="516" type="line"/>
      <point x="93" y="516" type="line"/>
      <point x="82" y="449" type="line"/>
      <point x="268" y="449" type="line"/>
      <point x="200" y="97" type="line" smooth="yes"/>
      <point x="198" y="85"/>
      <point x="195" y="70"/>
      <point x="195" y="57" type="curve"/>
      <point x="195" y="17"/>
      <point x="222" y="-12"/>
    </contour>
  </outline>
</glyph>
<glyph name="Jcircumflex" format="1">
  <advance width="600"/>
  <unicode hex="0134"/>
  <outline>
    <contour>
      <point x="560" y="788" type="line"/>
      <point x="473" y="935" type="line"/>
      <point x="375" y="935" type="line"/>
      <point x="242" y="794" type="line"/>
      <point x="281" y="761" type="line"/>
      <point x="418" y="878" type="line"/>
      <point x="514" y="761" type="line"/>
    </contour>
    <contour>
      <point x="465" y="170" type="curve"/>
      <point x="553" y="698" type="line"/>
      <point x="217" y="698" type="line"/>
      <point x="205" y="626" type="line"/>
      <point x="459" y="626" type="line"/>
      <point x="387" y="195" type="line" smooth="yes"/>
      <point x="372" y="105"/>
      <point x="326" y="61"/>
      <point x="251" y="61" type="curve"/>
      <point x="166" y="61"/>
      <point x="144" y="109"/>
      <point x="137" y="168" type="curve"/>
      <point x="58" y="151" type="line"/>
      <point x="69" y="43"/>
      <point x="142" y="-12"/>
      <point x="249" y="-12" type="curve"/>
      <point x="362" y="-12"/>
      <point x="444" y="45"/>
    </contour>
  </outline>
</glyph>
<glyph name="jcircumflex" format="1">
  <advance width="600"/>
  <unicode hex="0135"/>
  <outline>
    <contour>
      <point x="611" y="618" type="line"/>
      <point x="524" y="765" type="line"/>
      <point x="426" y="765" type="line"/>
      <point x="293" y="624" type="line"/>
      <point x="332" y="591" type="line"/>
      <point x="469" y="708" type="line"/>
      <point x="565" y="591" type="line"/>
    </contour>
    <contour>
      <point x="275" y="-212" type="curve"/>
      <point x="334" y="-212"/>
      <point x="361" y="-162"/>
      <point x="370" y="-107" type="curve"/>
      <point x="474" y="516" type="line"/>
      <point x="183" y="516" type="line"/>
      <point x="172" y="449" type="line"/>
      <point x="385" y="449" type="line"/>
      <point x="287" y="-138" type="line"/>
      <point x="269" y="-142" type="line"/>
      <point x="111" y="26" type="line"/>
      <point x="58" y="-22" type="line"/>
      <point x="123" y="-93" type="line" smooth="yes"/>
      <point x="209" y="-187"/>
      <point x="234" y="-212"/>
    </contour>
  </outline>
</glyph>
<glyph name="uni0136" format="1">
  <advance width="600"/>
  <unicode hex="0136"/>
  <outline>
    <contour>
      <point x="310" y="-64" type="line"/>
      <point x="202" y="-64" type="line"/>
      <point x="147" y="-249" type="line"/>
      <point x="208" y="-249" type="line"/>
    </contour>
    <contour>
      <point x="162" y="221" type="line"/>
      <point x="287" y="345" type="line"/>
      <point x="440" y="0" type="line"/>
      <point x="530" y="0" type="line"/>
      <point x="347" y="402" type="line"/>
      <point x="645" y="698" type="line"/>
      <point x="541" y="698" type="line"/>
      <point x="319" y="477" type="line"/>
      <point x="185" y="335" type="line"/>
      <point x="181" y="335" type="line"/>
      <point x="242" y="698" type="line"/>
      <point x="160" y="698" type="line"/>
      <point x="43" y="0" type="line"/>
      <point x="125" y="0" type="line"/>
    </contour>
  </outline>
</glyph>
<glyph name="lacute" format="1">
  <advance width="600"/>
  <unicode hex="013A"/>
  <outline>
    <contour>
      <point x="305" y="795" type="line"/>
      <point x="352" y="767" type="line"/>
      <point x="481" y="922" type="line"/>
      <point x="413" y="961" type="line"/>
    </contour>
    <contour>
      <point x="249" y="-12" type="curve"/>
      <point x="289" y="-12"/>
      <point x="325" y="5"/>
      <point x="422" y="93" type="curve"/>
      <point x="526" y="187" type="line"/>
      <point x="481" y="231" type="line"/>
      <point x="276" y="57" type="line"/>
      <point x="251" y="65" type="line"/>
      <point x="381" y="740" type="line"/>
      <point x="118" y="740" type="line"/>
      <point x="107" y="673" type="line"/>
      <point x="289" y="673" type="line"/>
      <point x="177" y="91" type="line" smooth="yes"/>
      <point x="175" y="82"/>
      <point x="174" y="68"/>
      <point x="174" y="59" type="curve"/>
      <point x="174" y="18"/>
      <point x="195" y="-12"/>
    </contour>
  </outline>
</glyph>
<glyph name="Lcaron" format="1">
  <advance width="600"/>
  <unicode hex="013D"/>
  <outline>
    <contour>
      <point x="340" y="553" type="line"/>
      <point x="398" y="553" type="line"/>
      <point x="478" y="740" type="line"/>
      <point x="376" y="740" type="line"/>
    </contour>
    <contour>
      <point x="195" y="698" type="line"/>
      <point x="78" y="0" type="line"/>
      <point x="491" y="0" type="line"/>
      <point x="503" y="72" type="line"/>
      <point x="172" y="72" type="line"/>
      <point x="276" y="698" type="line"/>
    </contour>
  </outline>
</glyph>
<glyph name="ldot" format="1">
  <advance width="600"/>
  <unicode hex="0140"/>
  <outline>
    <contour>
      <point x="468" y="323" type="curve"/>
      <point x="512" y="323"/>
      <point x="530" y="347"/>
      <point x="534" y="371" type="curve"/>
      <point x="535" y="377"/>
      <point x="538" y="393"/>
      <point x="538" y="400" type="curve"/>
      <point x="538" y="421"/>
      <point x="523" y="440"/>
      <point x="480" y="440" type="curve"/>
      <point x="436" y="440"/>
      <point x="418" y="416"/>
      <point x="414" y="392" type="curve"/>
      <point x="413" y="386"/>
      <point x="410" y="370"/>
      <point x="410" y="363" type="curve"/>
      <point x="410" y="342"/>
      <point x="425" y="323"/>
    </contour>
    <contour>
      <point x="249" y="-12" type="curve"/>
      <point x="289" y="-12"/>
      <point x="325" y="5"/>
      <point x="422" y="93" type="curve"/>
      <point x="526" y="187" type="line"/>
      <point x="481" y="231" type="line"/>
      <point x="276" y="57" type="line"/>
      <point x="251" y="65" type="line"/>
      <point x="381" y="740" type="line"/>
      <point x="118" y="740" type="line"/>
      <point x="107" y="673" type="line"/>
      <point x="289" y="673" type="line"/>
      <point x="177" y="91" type="line" smooth="yes"/>
      <point x="175" y="82"/>
      <point x="174" y="68"/>
      <point x="174" y="59" type="curve"/>
      <point x="174" y="18"/>
      <point x="195" y="-12"/>
    </contour>
  </outline>
</glyph>
<glyph name="omacron" format="1">
  <advance width="600"/>
  <unicode hex="014D"/>
  <outline>
    <contour>
      <point x="511" y="705" type="line"/>
      <point x="234" y="705" type="line"/>
      <point x="223" y="638" type="line"/>
      <point x="500" y="638" type="line"/>
    </contour>
    <contour>
      <point x="265" y="-12" type="curve"/>
      <point x="417" y="-12"/>
      <point x="536" y="113"/>
      <point x="536" y="310" type="curve"/>
      <point x="536" y="439"/>
      <point x="468" y="528"/>
      <point x="334" y="528" type="curve"/>
      <point x="183" y="528"/>
      <point x="64" y="403"/>
      <point x="64" y="206" type="curve"/>
      <point x="64" y="77"/>
      <point x="133" y="-12"/>
    </contour>
    <contour>
      <point x="269" y="56" type="curve"/>
      <point x="192" y="56"/>
      <point x="143" y="96"/>
      <point x="143" y="183" type="curve"/>
      <point x="143" y="195"/>
      <point x="144" y="210"/>
      <point x="148" y="234" type="curve"/>
      <point x="158" y="294" type="line" smooth="yes"/>
      <point x="175" y="396"/>
      <point x="234" y="460"/>
      <point x="331" y="460" type="curve"/>
      <point x="408" y="460"/>
      <point x="457" y="420"/>
      <point x="457" y="333" type="curve"/>
      <point x="457" y="321"/>
      <point x="456" y="306"/>
      <point x="452" y="282" type="curve"/>
      <point x="442" y="222" type="line" smooth="yes"/>
      <point x="425" y="120"/>
      <point x="366" y="56"/>
    </contour>
  </outline>
</glyph>
<glyph name="obreve" format="1">
  <advance width="600"/>
  <unicode hex="014F"/>
  <outline>
    <contour>
      <point x="358" y="595" type="curve"/>
      <point x="463" y="595"/>
      <point x="510" y="684"/>
      <point x="539" y="746" type="curve"/>
      <point x="489" y="767" type="line"/>
      <point x="462" y="733" type="line" smooth="yes"/>
      <point x="419" y="679"/>
      <point x="402" y="658"/>
      <point x="360" y="658" type="curve"/>
      <point x="315" y="658"/>
      <point x="302" y="683"/>
      <point x="280" y="733" type="curve"/>
      <point x="265" y="767" type="line"/>
      <point x="217" y="746" type="line"/>
      <point x="226" y="685"/>
      <point x="252" y="595"/>
    </contour>
    <contour>
      <point x="265" y="-12" type="curve"/>
      <point x="417" y="-12"/>
      <point x="536" y="113"/>
      <point x="536" y="310" type="curve"/>
      <point x="536" y="439"/>
      <point x="468" y="528"/>
      <point x="334" y="528" type="curve"/>
      <point x="183" y="528"/>
      <point x="64" y="403"/>
      <point x="64" y="206" type="curve"/>
      <point x="64" y="77"/>
      <point x="133" y="-12"/>
    </contour>
    <contour>
      <point x="269" y="56" type="curve"/>
      <point x="192" y="56"/>
      <point x="143" y="96"/>
      <point x="143" y="183" type="curve"/>
      <point x="143" y="195"/>
      <point x="144" y="210"/>
      <point x="148" y="234" type="curve"/>
      <point x="158" y="294" type="line" smooth="yes"/>
      <point x="175" y="396"/>
      <point x="234" y="460"/>
      <point x="331" y="460" type="curve"/>
      <point x="408" y="460"/>
      <point x="457" y="420"/>
      <point x="457" y="333" type="curve"/>
      <point x="457" y="321"/>
      <point x="456" y="306"/>
      <point x="452" y="282" type="curve"/>
      <point x="442" y="222" type="line" smooth="yes"/>
      <point x="425" y="120"/>
      <point x="366" y="56"/>
    </contour>
  </outline>
</glyph>
<glyph name="uni0157" format="1">
  <advance width="600"/>
  <unicode hex="0157"/>
  <outline>
    <contour>
      <point x="262" y="-64" type="line"/>
      <point x="154" y="-64" type="line"/>
      <point x="99" y="-249" type="line"/>
      <point x="160" y="-249" type="line"/>
    </contour>
    <contour>
      <point x="253" y="449" type="line"/>
      <point x="178" y="0" type="line"/>
      <point x="256" y="0" type="line"/>
      <point x="301" y="269" type="line" smooth="yes"/>
      <point x="311" y="329"/>
      <point x="347" y="371"/>
      <point x="360" y="386" type="curve"/>
      <point x="391" y="422"/>
      <point x="428" y="438"/>
      <point x="488" y="438" type="curve"/>
      <point x="576" y="438" type="line"/>
      <point x="589" y="516" type="line"/>
      <point x="511" y="516" type="line" smooth="yes"/>
      <point x="412" y="516"/>
      <point x="360" y="460"/>
      <point x="324" y="378" type="curve"/>
      <point x="319" y="378" type="line"/>
      <point x="342" y="516" type="line"/>
      <point x="119" y="516" type="line"/>
      <point x="108" y="449" type="line"/>
    </contour>
  </outline>
</glyph>
<glyph name="rcaron" format="1">
  <advance width="600"/>
  <unicode hex="0159"/>
  <outline>
    <contour>
      <point x="246" y="746" type="line"/>
      <point x="333" y="599" type="line"/>
      <point x="431" y="599" type="line"/>
      <point x="564" y="740" type="line"/>
      <point x="525" y="773" type="line"/>
      <point x="388" y="656" type="line"/>
      <point x="292" y="773" type="line"/>
    </contour>
    <contour>
      <point x="253" y="449" type="line"/>
      <point x="178" y="0" type="line"/>
      <point x="256" y="0" type="line"/>
      <point x="301" y="269" type="line" smooth="yes"/>
      <point x="311" y="329"/>
      <point x="347" y="371"/>
      <point x="360" y="386" type="curve"/>
      <point x="391" y="422"/>
      <point x="428" y="438"/>
      <point x="488" y="438" type="curve"/>
      <point x="576" y="438" type="line"/>
      <point x="589" y="516" type="line"/>
      <point x="511" y="516" type="line" smooth="yes"/>
      <point x="412" y="516"/>
      <point x="360" y="460"/>
      <point x="324" y="378" type="curve"/>
      <point x="319" y="378" type="line"/>
      <point x="342" y="516" type="line"/>
      <point x="119" y="516" type="line"/>
      <point x="108" y="449" type="line"/>
    </contour>
  </outline>
</glyph>
<glyph name="Tcaron" format="1">
  <advance width="600"/>
  <unicode hex="0164"/>
  <outline>
    <contour>
      <point x="245" y="916" type="line"/>
      <point x="332" y="769" type="line"/>
      <point x="430" y="769" type="line"/>
      <point x="563" y="910" type="line"/>
      <point x="524" y="943" type="line"/>
      <point x="387" y="826" type="line"/>
      <point x="291" y="943" type="line"/>
    </contour>
    <contour>
      <point x="298" y="0" type="line"/>
      <point x="403" y="626" type="line"/>
      <point x="637" y="626" type="line"/>
      <point x="649" y="698" type="line"/>
      <point x="99" y="698" type="line"/>
      <point x="87" y="626" type="line"/>
      <point x="321" y="626" type="line"/>
      <point x="216" y="0" type="line"/>
    </contour>
  </outline>
</glyph>
<glyph name="Utilde" format="1">
  <advance width="600"/>
  <unicode hex="0168"/>
  <outline>
    <contour>
      <point x="458" y="782" type="curve"/>
      <point x="500" y="782"/>
      <point x="535" y="808"/>
      <point x="557" y="834" type="curve"/>
      <point x="529" y="875" type="line"/>
      <point x="506" y="857"/>
      <point x="487" y="846"/>
      <point x="466" y="846" type="curve"/>
      <point x="447" y="846"/>
      <point x="425" y="855"/>
      <point x="402" y="869" type="curve"/>
      <point x="382" y="881"/>
      <point x="359" y="897"/>
      <point x="326" y="897" type="curve"/>
      <point x="284" y="897"/>
      <point x="249" y="871"/>
      <point x="227" y="845" type="curve"/>
      <point x="255" y="804" type="line"/>
      <point x="278" y="822"/>
      <point x="297" y="833"/>
      <point x="318" y="833" type="curve"/>
      <point x="337" y="833"/>
      <point x="359" y="824"/>
      <point x="382" y="810" type="curve"/>
      <point x="402" y="798"/>
      <point x="425" y="782"/>
    </contour>
    <contour>
      <point x="169" y="298" type="curve"/>
      <point x="236" y="698" type="line"/>
      <point x="154" y="698" type="line"/>
      <point x="91" y="323" type="line" smooth="yes"/>
      <point x="82" y="269"/>
      <point x="73" y="209"/>
      <point x="73" y="166" type="curve"/>
      <point x="73" y="52"/>
      <point x="126" y="-12"/>
      <point x="269" y="-12" type="curve"/>
      <point x="452" y="-12"/>
      <point x="489" y="84"/>
      <point x="524" y="291" type="curve"/>
      <point x="592" y="698" type="line"/>
      <point x="510" y="698" type="line"/>
      <point x="439" y="274" type="line" smooth="yes"/>
      <point x="416" y="137"/>
      <point x="398" y="60"/>
      <point x="266" y="60" type="curve"/>
      <point x="177" y="60"/>
      <point x="154" y="104"/>
      <point x="154" y="173" type="curve"/>
      <point x="154" y="198"/>
      <point x="157" y="226"/>
    </contour>
  </outline>
</glyph>
<glyph name="uring" format="1">
  <advance width="600"/>
  <unicode hex="016F"/>
  <outline>
    <contour>
      <point x="353" y="578" type="curve"/>
      <point x="421" y="578"/>
      <point x="482" y="634"/>
      <point x="482" y="705" type="curve"/>
      <point x="482" y="763"/>
      <point x="440" y="804"/>
      <point x="381" y="804" type="curve"/>
      <point x="313" y="804"/>
      <point x="252" y="748"/>
      <point x="252" y="677" type="curve"/>
      <point x="252" y="619"/>
      <point x="294" y="578"/>
    </contour>
    <contour>
      <point x="357" y="625" type="curve"/>
      <point x="324" y="625"/>
      <point x="307" y="642"/>
      <point x="307" y="669" type="curve"/>
      <point x="307" y="676"/>
      <point x="309" y="689"/>
      <point x="311" y="701" type="curve"/>
      <point x="317" y="737"/>
      <point x="343" y="757"/>
      <point x="377" y="757" type="curve"/>
      <point x="410" y="757"/>
      <point x="427" y="740"/>
      <point x="427" y="713" type="curve"/>
      <point x="427" y="706"/>
      <point x="425" y="693"/>
      <point x="423" y="681" type="curve"/>
      <point x="417" y="645"/>
      <point x="391" y="625"/>
    </contour>
    <contour>
      <point x="395" y="122" type="curve"/>
      <point x="399" y="122" type="line"/>
      <point x="379" y="0" type="line"/>
      <point x="457" y="0" type="line"/>
      <point x="543" y="516" type="line"/>
      <point x="465" y="516" type="line"/>
      <point x="417" y="231" type="line" smooth="yes"/>
      <point x="407" y="172"/>
      <point x="369" y="126"/>
      <point x="358" y="113" type="curve"/>
      <point x="329" y="79"/>
      <point x="294" y="57"/>
      <point x="249" y="57" type="curve"/>
      <point x="191" y="57"/>
      <point x="163" y="95"/>
      <point x="163" y="156" type="curve"/>
      <point x="163" y="167"/>
      <point x="164" y="187"/>
      <point x="168" y="211" type="curve"/>
      <point x="219" y="516" type="line"/>
      <point x="141" y="516" type="line"/>
      <point x="89" y="204" type="line" smooth="yes"/>
      <point x="85" y="181"/>
      <point x="83" y="157"/>
      <point x="83" y="137" type="curve"/>
      <point x="83" y="43"/>
      <point x="137" y="-12"/>
      <point x="223" y="-12" type="curve"/>
      <point x="306" y="-12"/>
      <point x="357" y="40"/>
    </contour>
  </outline>
</glyph>
<glyph name="Uhungarumlaut" format="1">
  <advance width="600"/>
  <unicode hex="0170"/>
  <outline>
    <contour>
      <point x="263" y="782" type="line"/>
      <point x="307" y="756" type="line"/>
      <point x="435" y="911" type="line"/>
      <point x="370" y="948" type="line"/>
    </contour>
    <contour>
      <point x="424" y="782" type="line"/>
      <point x="468" y="756" type="line"/>
      <point x="596" y="911" type="line"/>
      <point x="531" y="948" type="line"/>
    </contour>
    <contour>
      <point x="169" y="298" type="curve"/>
      <point x="236" y="698" type="line"/>
      <point x="154" y="698" type="line"/>
      <point x="91" y="323" type="line" smooth="yes"/>
      <point x="82" y="269"/>
      <point x="73" y="209"/>
      <point x="73" y="166" type="curve"/>
      <point x="73" y="52"/>
      <point x="126" y="-12"/>
      <point x="269" y="-12" type="curve"/>
      <point x="452" y="-12"/>
      <point x="489" y="84"/>
      <point x="524" y="291" type="curve"/>
      <point x="592" y="698" type="line"/>
      <point x="510" y="698" type="line"/>
      <point x="439" y="274" type="line" smooth="yes"/>
      <point x="416" y="137"/>
      <point x="398" y="60"/>
      <point x="266" y="60" type="curve"/>
      <point x="177" y="60"/>
      <point x="154" y="104"/>
      <point x="154" y="173" type="curve"/>
      <point x="154" y="198"/>
      <point x="157" y="226"/>
    </contour>
  </outline>
</glyph>
<glyph name="Zacute" format="1">
  <advance width="600"/>
  <unicode hex="0179"/>
  <outline>
    <contour>
      <point x="337" y="783" type="line"/>
      <point x="384" y="755" type="line"/>
      <point x="513" y="910" type="line"/>
      <point x="445" y="949" type="line"/>
    </contour>
    <contour>
      <point x="5" y="0" type="line"/>
      <point x="508" y="0" type="line"/>
      <point x="520" y="72" type="line"/>
      <point x="111" y="72" type="line"/>
      <point x="597" y="624" type="line"/>
      <point x="609" y="698" type="line"/>
      <point x="141" y="698" type="line"/>
      <point x="129" y="626" type="line"/>
      <point x="503" y="626" type="line"/>
      <point x="17" y="74" type="line"/>
    </contour>
  </outline>
</glyph>
<glyph name="Aringacute" format="1">
  <advance width="600"/>
  <unicode hex="01FA"/>
  <outline>
    <contour>
      <point x="389" y="1012" type="line"/>
      <point x="426" y="984" type="line"/>
      <point x="532" y="1087" type="line"/>
      <point x="479" y="1126" type="line"/>
    </contour>
    <contour>
      <point x="387" y="738" type="curve"/>
      <point x="455" y="738"/>
      <point x="516" y="794"/>
      <point x="516" y="865" type="curve"/>
      <point x="516" y="923"/>
      <point x="474" y="964"/>
      <point x="415" y="964" type="curve"/>
      <point x="347" y="964"/>
      <point x="286" y="908"/>
      <point x="286" y="837" type="curve"/>
      <point x="286" y="779"/>
      <point x="328" y="738"/>
    </contour>
    <contour>
      <point x="391" y="785" type="curve"/>
      <point x="358" y="785"/>
      <point x="341" y="802"/>
      <point x="341" y="829" type="curve"/>
      <point x="341" y="836"/>
      <point x="342" y="845"/>
      <point x="345" y="861" type="curve"/>
      <point x="353" y="902"/>
      <point x="380" y="917"/>
      <point x="411" y="917" type="curve"/>
      <point x="444" y="917"/>
      <point x="461" y="900"/>
      <point x="461" y="873" type="curve"/>
      <point x="461" y="866"/>
      <point x="460" y="857"/>
      <point x="457" y="841" type="curve"/>
      <point x="449" y="800"/>
      <point x="422" y="785"/>
    </contour>
    <contour>
      <point x="417" y="199" type="line"/>
      <point x="442" y="0" type="line"/>
      <point x="528" y="0" type="line"/>
      <point x="431" y="698" type="line"/>
      <point x="321" y="698" type="line"/>
      <point x="-9" y="0" type="line"/>
      <point x="79" y="0" type="line"/>
      <point x="171" y="199" type="line"/>
    </contour>
    <contour>
      <point x="357" y="614" type="line"/>
      <point x="366" y="614" type="line"/>
      <point x="409" y="272" type="line"/>
      <point x="202" y="272" type="line"/>
    </contour>
  </outline>
</glyph>
<glyph name="Oslashacute" format="1">
  <advance width="600"/>
  <unicode hex="01FE"/>
  <outline>
    <contour>
      <point x="338" y="783" type="line"/>
      <point x="385" y="755" type="line"/>
      <point x="514" y="910" type="line"/>
      <point x="446" y="949" type="line"/>
    </contour>
    <contour>
      <point x="260" y="-12" type="curve"/>
      <point x="510" y="-12"/>
      <point x="570" y="297"/>
      <point x="570" y="473" type="curve"/>
      <point x="570" y="524"/>
      <point x="563" y="567"/>
      <point x="549" y="602" type="curve"/>
      <point x="622" y="698" type="line"/>
      <point x="565" y="734" type="line"/>
      <point x="511" y="661" type="line"/>
      <point x="478" y="693"/>
      <point x="433" y="710"/>
      <point x="372" y="710" type="curve"/>
      <point x="122" y="710"/>
      <point x="62" y="401"/>
      <point x="62" y="225" type="curve"/>
      <point x="62" y="174"/>
      <point x="69" y="131"/>
      <point x="83" y="96" type="curve"/>
      <point x="10" y="0" type="line"/>
      <point x="67" y="-36" type="line"/>
      <point x="121" y="37" type="line"/>
      <point x="154" y="5"/>
      <point x="199" y="-12"/>
    </contour>
    <contour>
      <point x="150" y="292" type="curve"/>
      <point x="169" y="406" type="line" smooth="yes"/>
      <point x="193" y="549"/>
      <point x="259" y="638"/>
      <point x="366" y="638" type="curve"/>
      <point x="411" y="638"/>
      <point x="444" y="623"/>
      <point x="463" y="596" type="curve"/>
      <point x="145" y="175" type="line"/>
      <point x="143" y="186"/>
      <point x="143" y="197"/>
      <point x="143" y="210" type="curve"/>
      <point x="143" y="233"/>
      <point x="145" y="262"/>
    </contour>
    <contour>
      <point x="266" y="60" type="curve"/>
      <point x="221" y="60"/>
      <point x="188" y="75"/>
      <point x="169" y="102" type="curve"/>
      <point x="487" y="523" type="line"/>
      <point x="489" y="512"/>
      <point x="489" y="501"/>
      <point x="489" y="488" type="curve"/>
      <point x="489" y="465"/>
      <point x="487" y="436"/>
      <point x="482" y="406" type="curve"/>
      <point x="463" y="292" type="line" smooth="yes"/>
      <point x="439" y="149"/>
      <point x="373" y="60"/>
    </contour>
  </outline>
</glyph>
<glyph name="uni021A" format="1">
  <advance width="600"/>
  <unicode hex="021A"/>
  <outline>
    <contour>
      <point x="302" y="-64" type="line"/>
      <point x="194" y="-64" type="line"/>
      <point x="139" y="-249" type="line"/>
      <point x="200" y="-249" type="line"/>
    </contour>
    <contour>
      <point x="298" y="0" type="line"/>
      <point x="403" y="626" type="line"/>
      <point x="637" y="626" type="line"/>
      <point x="649" y="698" type="line"/>
      <point x="99" y="698" type="line"/>
      <point x="87" y="626" type="line"/>
      <point x="321" y="626" type="line"/>
      <point x="216" y="0" type="line"/>
    </contour>
  </outline>
</glyph>
<glyph name="caron" format="1">
  <advance width="600"/>
  <unicode hex="02C7"/>
  <outline>
    <contour>
      <point x="177" y="746" type="line"/>
      <point x="264" y="599" type="line"/>
      <point x="362" y="599" type="line"/>
      <point x="495" y="740" type="line"/>
      <point x="456" y="773" type="line"/>
      <point x="319" y="656" type="line"/>
      <point x="223" y="773" type="line"/>
    </contour>
  </outline>
</glyph>
<glyph name="breve" format="1">
  <advance width="600"/>
  <unicode hex="02D8"/>
  <outline>
    <contour>
      <point x="315" y="595" type="curve"/>
      <point x="420" y="595"/>
      <point x="467" y="684"/>
      <point x="496" y="746" type="curve"/>
      <point x="446" y="767" type="line"/>
      <point x="419" y="733" type="line" smooth="yes"/>
      <point x="376" y="679"/>
      <point x="359" y="658"/>
      <point x="317" y="658" type="curve"/>
      <point x="272" y="658"/>
      <point x="259" y="683"/>
      <point x="237" y="733" type="curve"/>
      <point x="222" y="767" type="line"/>
      <point x="174" y="746" type="line"/>
      <point x="183" y="685"/>
      <point x="209" y="595"/>
    </contour>
  </outline>
</glyph>
<glyph name="uni0300" format="1">
  <advance width="0"/>
  <unicode hex="0300"/>
  <outline>
    <contour>
      <point x="3" y="779" type="line"/>
      <point x="-71" y="752" type="line"/>
      <point x="4" y="585" type="line"/>
      <point x="55" y="605" type="line"/>
    </contour>
  </outline>
</glyph>
<glyph name="uni0303" format="1">
  <advance width="0"/>
  <unicode hex="0303"/>
  <outline>
    <contour>
      <point x="91" y="612" type="curve"/>
      <point x="133" y="612"/>
      <point x="168" y="638"/>
      <point x="190" y="664" type="curve"/>
      <point x="162" y="705" type="line"/>
      <point x="139" y="687"/>
      <point x="120" y="676"/>
      <point x="99" y="676" type="curve"/>
      <point x="80" y="676"/>
      <point x="58" y="685"/>
      <point x="35" y="699" type="curve"/>
      <point x="15" y="711"/>
      <point x="-8" y="727"/>
      <point x="-41" y="727" type="curve"/>
      <point x="-83" y="727"/>
      <point x="-118" y="701"/>
      <point x="-140" y="675" type="curve"/>
      <point x="-112" y="634" type="line"/>
      <point x="-89" y="652"/>
      <point x="-70" y="663"/>
      <point x="-49" y="663" type="curve"/>
      <point x="-30" y="663"/>
      <point x="-8" y="654"/>
      <point x="15" y="640" type="curve"/>
      <point x="35" y="628"/>
      <point x="58" y="612"/>
    </contour>
  </outline>
</glyph>
<glyph name="uni0306" format="1">
  <advance width="0"/>
  <unicode hex="0306"/>
  <outline>
    <contour>
      <point x="15" y="595" type="curve"/>
      <point x="120" y="595"/>
      <point x="167" y="684"/>
      <point x="196" y="746" type="curve"/>
      <point x="146" y="767" type="line"/>
      <point x="119" y="733" type="line" smooth="yes"/>
      <point x="76" y="679"/>
      <point x="59" y="658"/>
      <point x="17" y="658" type="curve"/>
      <point x="-28" y="658"/>
      <point x="-41" y="683"/>
      <point x="-63" y="733" type="curve"/>
      <point x="-78" y="767" type="line"/>
      <point x="-126" y="746" type="line"/>
      <point x="-117" y="685"/>
      <point x="-91" y="595"/>
    </contour>
  </outline>
</glyph>
<glyph name="uni0308" format="1">
  <advance width="0"/>
  <unicode hex="0308"/>
  <outline>
    <contour>
      <point x="-74" y="619" type="curve"/>
      <point x="-34" y="619"/>
      <point x="-21" y="636"/>
      <point x="-15" y="662" type="curve"/>
      <point x="-13" y="671"/>
      <point x="-11" y="680"/>
      <point x="-11" y="687" type="curve"/>
      <point x="-11" y="706"/>
      <point x="-24" y="723"/>
      <point x="-63" y="723" type="curve"/>
      <point x="-103" y="723"/>
      <point x="-116" y="706"/>
      <point x="-122" y="680" type="curve"/>
      <point x="-124" y="671"/>
      <point x="-126" y="662"/>
      <point x="-126" y="655" type="curve"/>
      <point x="-126" y="636"/>
      <point x="-113" y="619"/>
    </contour>
    <contour>
      <point x="112" y="619" type="curve"/>
      <point x="152" y="619"/>
      <point x="165" y="636"/>
      <point x="171" y="662" type="curve"/>
      <point x="173" y="671"/>
      <point x="175" y="680"/>
      <point x="175" y="687" type="curve"/>
      <point x="175" y="706"/>
      <point x="162" y="723"/>
      <point x="123" y="723" type="curve"/>
      <point x="83" y="723"/>
      <point x="70" y="706"/>
      <point x="64" y="680" type="curve"/>
      <point x="62" y="671"/>
      <point x="60" y="662"/>
      <point x="60" y="655" type="curve"/>
      <point x="60" y="636"/>
      <point x="73" y="619"/>
    </contour>
  </outline>
</glyph>
<glyph name="uni030B" format="1">
  <advance width="0"/>
  <unicode hex="030B"/>
  <outline>
    <contour>
      <point x="-104" y="612" type="line"/>
      <point x="-60" y="586" type="line"/>
      <point x="68" y="741" type="line"/>
      <point x="3" y="778" type="line"/>
    </contour>
    <contour>
      <point x="57" y="612" type="line"/>
      <point x="101" y="586" type="line"/>
      <point x="229" y="741" type="line"/>
      <point x="164" y="778" type="line"/>
    </contour>
  </outline>
</glyph>
<glyph name="uni030C" format="1">
  <advance width="0"/>
  <unicode hex="030C"/>
  <outline>
    <contour>
      <point x="-123" y="746" type="line"/>
      <point x="-36" y="599" type="line"/>
      <point x="62" y="599" type="line"/>
      <point x="195" y="740" type="line"/>
      <point x="156" y="773" type="line"/>
      <point x="19" y="656" type="line"/>
      <point x="-77" y="773" type="line"/>
    </contour>
  </outline>
</glyph>
<glyph name="uni0315" format="1">
  <advance width="0"/>
  <unicode hex="0315"/>
  <outline>
    <contour>
      <point x="-31" y="553" type="line"/>
      <point x="27" y="553" type="line"/>
      <point x="107" y="740" type="line"/>
      <point x="5" y="740" type="line"/>
    </contour>
  </outline>
</glyph>
<glyph name="uni037A" format="1">
  <advance width="300"/>
  <unicode hex="037A"/>
  <outline>
    <contour>
      <point x="121" y="-200" type="curve"/>
      <point x="215" y="-200" type="line"/>
      <point x="228" y="-132" type="line"/>
      <point x="127" y="-132" type="line"/>
      <point x="148" y="-36" type="line"/>
      <point x="71" y="-36" type="line"/>
      <point x="54" y="-113" type="line" smooth="yes"/>
      <point x="52" y="-123"/>
      <point x="51" y="-130"/>
      <point x="51" y="-137" type="curve"/>
      <point x="51" y="-174"/>
      <point x="74" y="-200"/>
    </contour>
  </outline>
</glyph>
<glyph name="uni037E" format="1">
  <advance width="600"/>
  <unicode hex="037E"/>
  <note>
    uni037E
  </note>
  <outline>
    <contour>
      <point x="318" y="394" type="curve"/>
      <point x="363" y="394"/>
      <point x="378" y="422"/>
      <point x="383" y="449" type="curve"/>
      <point x="385" y="459"/>
      <point x="387" y="474"/>
      <point x="387" y="483" type="curve"/>
      <point x="387" y="509"/>
      <point x="368" y="523"/>
      <point x="336" y="523" type="curve"/>
      <point x="291" y="523"/>
      <point x="276" y="495"/>
      <point x="271" y="468" type="curve"/>
      <point x="269" y="458"/>
      <point x="267" y="443"/>
      <point x="267" y="434" type="curve"/>
      <point x="267" y="408"/>
      <point x="286" y="394"/>
    </contour>
    <contour>
      <point x="252" y="117" type="curve"/>
      <point x="207" y="117"/>
      <point x="192" y="89"/>
      <point x="187" y="62" type="curve"/>
      <point x="185" y="52"/>
      <point x="183" y="40"/>
      <point x="183" y="31" type="curve"/>
      <point x="183" y="10"/>
      <point x="195" y="-1"/>
      <point x="216" y="-6" type="curve"/>
      <point x="195" y="-51"/>
      <point x="167" y="-90"/>
      <point x="118" y="-133" type="curve"/>
      <point x="183" y="-133" type="line"/>
      <point x="251" y="-84"/>
      <point x="289" y="-5"/>
      <point x="299" y="46" type="curve"/>
      <point x="301" y="56"/>
      <point x="303" y="68"/>
      <point x="303" y="77" type="curve"/>
      <point x="303" y="103"/>
      <point x="284" y="117"/>
    </contour>
  </outline>
</glyph>
<glyph name="tonos" format="1">
  <advance width="600"/>
  <unicode hex="0384"/>
  <note>
    tonos
  </note>
  <outline>
    <contour>
      <point x="280" y="597" type="line"/>
      <point x="332" y="585" type="line"/>
      <point x="417" y="762" type="line"/>
      <point x="343" y="780" type="line"/>
    </contour>
  </outline>
</glyph>
<glyph name="Alpha" format="1">
  <advance width="600"/>
  <unicode hex="0391"/>
  <note>
    Alpha
  </note>
  <outline>
    <component base="A"/>
    <contour>
      <point x="417" y="702" type="move" name="top"/>
    </contour>
  </outline>
</glyph>
<glyph name="Gamma" format="1">
  <advance width="600"/>
  <unicode hex="0393"/>
  <note>
    Gamma
  </note>
  <outline>
    <contour>
      <point x="583" y="698" type="line"/>
      <point x="189" y="698" type="line"/>
      <point x="49" y="0" type="line"/>
      <point x="130" y="0" type="line"/>
      <point x="256" y="626" type="line"/>
      <point x="569" y="626" type="line"/>
    </contour>
  </outline>
</glyph>
<glyph name="uni0394" format="1">
  <advance width="600"/>
  <unicode hex="0394"/>
  <note>
    uni0394
  </note>
  <outline>
    <contour>
      <point x="340" y="698" type="line"/>
      <point x="0" y="77" type="line"/>
      <point x="-16" y="0" type="line"/>
      <point x="524" y="0" type="line"/>
      <point x="539" y="77" type="line"/>
      <point x="447" y="698" type="line"/>
    </contour>
    <contour>
      <point x="376" y="621" type="line"/>
      <point x="381" y="621" type="line"/>
      <point x="457" y="72" type="line"/>
      <point x="83" y="72" type="line"/>
    </contour>
  </outline>
</glyph>
<glyph name="Epsilon" format="1">
  <advance width="600"/>
  <unicode hex="0395"/>
  <note>
    Epsilon
  </note>
  <outline>
    <component base="E"/>
    <contour>
      <point x="327" y="702" type="move" name="top"/>
    </contour>
  </outline>
</glyph>
<glyph name="Eta" format="1">
  <advance width="600"/>
  <unicode hex="0397"/>
  <note>
    Eta
  </note>
  <outline>
    <component base="H"/>
    <contour>
      <point x="317" y="692" type="move" name="top"/>
    </contour>
  </outline>
</glyph>
<glyph name="Xi" format="1">
  <advance width="600"/>
  <unicode hex="039E"/>
  <note>
    Xi
  </note>
  <outline>
    <contour>
      <point x="609" y="698" type="line"/>
      <point x="152" y="698" type="line"/>
      <point x="137" y="626" type="line"/>
      <point x="594" y="626" type="line"/>
    </contour>
    <contour>
      <point x="491" y="390" type="line"/>
      <point x="145" y="390" type="line"/>
      <point x="131" y="318" type="line"/>
      <point x="477" y="318" type="line"/>
    </contour>
    <contour>
      <point x="483" y="72" type="line"/>
      <point x="26" y="72" type="line"/>
      <point x="11" y="0" type="line"/>
      <point x="468" y="0" type="line"/>
    </contour>
  </outline>
</glyph>
<glyph name="Omicron" format="1">
  <advance width="600"/>
  <unicode hex="039F"/>
  <note>
    Omicron
  </note>
  <outline>
    <component base="O"/>
    <contour>
      <point x="347" y="702" type="move" name="top"/>
    </contour>
  </outline>
</glyph>
<glyph name="Pi" format="1">
  <advance width="600"/>
  <unicode hex="03A0"/>
  <note>
    Pi
  </note>
  <outline>
    <contour>
      <point x="623" y="698" type="line"/>
      <point x="135" y="698" type="line"/>
      <point x="9" y="0" type="line"/>
      <point x="90" y="0" type="line"/>
      <point x="202" y="626" type="line"/>
      <point x="527" y="626" type="line"/>
      <point x="415" y="0" type="line"/>
      <point x="496" y="0" type="line"/>
    </contour>
  </outline>
</glyph>
<glyph name="Upsilon" format="1">
  <advance width="600"/>
  <unicode hex="03A5"/>
  <note>
    Upsilon
  </note>
  <outline>
    <component base="Y"/>
    <contour>
      <point x="347" y="702" type="move" name="top"/>
    </contour>
  </outline>
</glyph>
<glyph name="Phi" format="1">
  <advance width="900"/>
  <unicode hex="03A6"/>
  <note>
    Phi
  </note>
  <outline>
    <contour>
      <point x="346" y="31" type="curve"/>
      <point x="356" y="31" type="line"/>
      <point x="344" y="-29" type="line"/>
      <point x="425" y="-29" type="line"/>
      <point x="437" y="31" type="line"/>
      <point x="447" y="31" type="line" smooth="yes"/>
      <point x="709" y="31"/>
      <point x="842" y="223"/>
      <point x="842" y="431" type="curve"/>
      <point x="842" y="580"/>
      <point x="761" y="677"/>
      <point x="577" y="677" type="curve"/>
      <point x="567" y="677" type="line"/>
      <point x="577" y="725" type="line"/>
      <point x="496" y="725" type="line"/>
      <point x="486" y="677" type="line"/>
      <point x="476" y="677" type="line" smooth="yes"/>
      <point x="214" y="677"/>
      <point x="81" y="485"/>
      <point x="81" y="277" type="curve"/>
      <point x="81" y="128"/>
      <point x="162" y="31"/>
    </contour>
    <contour>
      <point x="465" y="609" type="curve"/>
      <point x="475" y="609" type="line"/>
      <point x="373" y="99" type="line"/>
      <point x="363" y="99" type="line" smooth="yes"/>
      <point x="213" y="99"/>
      <point x="161" y="160"/>
      <point x="161" y="268" type="curve"/>
      <point x="161" y="292"/>
      <point x="162" y="308"/>
      <point x="165" y="324" type="curve"/>
      <point x="176" y="378" type="line" smooth="yes"/>
      <point x="205" y="520"/>
      <point x="302" y="609"/>
    </contour>
    <contour>
      <point x="458" y="99" type="curve"/>
      <point x="448" y="99" type="line"/>
      <point x="550" y="609" type="line"/>
      <point x="560" y="609" type="line" smooth="yes"/>
      <point x="710" y="609"/>
      <point x="762" y="548"/>
      <point x="762" y="440" type="curve"/>
      <point x="762" y="416"/>
      <point x="761" y="400"/>
      <point x="758" y="384" type="curve"/>
      <point x="747" y="330" type="line" smooth="yes"/>
      <point x="718" y="188"/>
      <point x="621" y="99"/>
    </contour>
  </outline>
</glyph>
<glyph name="gamma" format="1">
  <advance width="600"/>
  <unicode hex="03B3"/>
  <note>
    gamma
  </note>
  <outline>
    <contour>
      <point x="138" y="448" type="line"/>
      <point x="198" y="0" type="line"/>
      <point x="158" y="-200" type="line"/>
      <point x="235" y="-200" type="line"/>
      <point x="275" y="0" type="line"/>
      <point x="431" y="212"/>
      <point x="513" y="376"/>
      <point x="555" y="516" type="curve"/>
      <point x="477" y="516" type="line"/>
      <point x="435" y="376"/>
      <point x="356" y="227"/>
      <point x="259" y="89" type="curve"/>
      <point x="254" y="89" type="line"/>
      <point x="237" y="257" type="line"/>
      <point x="211" y="456" type="line" smooth="yes"/>
      <point x="206" y="497"/>
      <point x="185" y="516"/>
      <point x="141" y="516" type="curve"/>
      <point x="98" y="516" type="line"/>
      <point x="85" y="448" type="line"/>
    </contour>
  </outline>
</glyph>
<glyph name="delta" format="1">
  <advance width="600"/>
  <unicode hex="03B4"/>
  <note>
    delta
  </note>
  <outline>
    <contour>
      <point x="268" y="677" type="line"/>
      <point x="351" y="672" type="line"/>
      <point x="556" y="672" type="line"/>
      <point x="570" y="740" type="line"/>
      <point x="213" y="740" type="line"/>
      <point x="196" y="651" type="line"/>
      <point x="321" y="531" type="line"/>
      <point x="324" y="527"/>
      <point x="328" y="524"/>
      <point x="331" y="521" type="curve"/>
      <point x="330" y="516" type="line"/>
      <point x="172" y="516"/>
      <point x="59" y="367"/>
      <point x="59" y="200" type="curve"/>
      <point x="59" y="60"/>
      <point x="137" y="-12"/>
      <point x="245" y="-12" type="curve"/>
      <point x="401" y="-12"/>
      <point x="511" y="141"/>
      <point x="511" y="320" type="curve"/>
      <point x="511" y="422"/>
      <point x="474" y="486"/>
      <point x="370" y="580" type="curve"/>
      <point x="267" y="673" type="line"/>
    </contour>
    <contour>
      <point x="433" y="331" type="curve"/>
      <point x="433" y="303"/>
      <point x="424" y="250"/>
      <point x="411" y="201" type="curve"/>
      <point x="387" y="112"/>
      <point x="329" y="57"/>
      <point x="255" y="57" type="curve"/>
      <point x="177" y="57"/>
      <point x="135" y="106"/>
      <point x="135" y="178" type="curve"/>
      <point x="135" y="196"/>
      <point x="141" y="235"/>
      <point x="152" y="283" type="curve"/>
      <point x="178" y="397"/>
      <point x="255" y="476"/>
      <point x="364" y="488" type="curve"/>
      <point x="417" y="429"/>
      <point x="433" y="387"/>
    </contour>
  </outline>
</glyph>
<glyph name="eta" format="1">
  <advance width="600"/>
  <unicode hex="03B7"/>
  <note>
    eta
  </note>
  <outline>
    <contour>
      <point x="159" y="448" type="line"/>
      <point x="69" y="0" type="line"/>
      <point x="146" y="0" type="line"/>
      <point x="204" y="288" type="line" smooth="yes"/>
      <point x="212" y="329"/>
      <point x="238" y="383"/>
      <point x="272" y="417" type="curve"/>
      <point x="300" y="445"/>
      <point x="330" y="458"/>
      <point x="367" y="458" type="curve"/>
      <point x="422" y="458"/>
      <point x="446" y="429"/>
      <point x="446" y="371" type="curve"/>
      <point x="446" y="359"/>
      <point x="445" y="338"/>
      <point x="441" y="318" type="curve"/>
      <point x="337" y="-200" type="line"/>
      <point x="414" y="-200" type="line"/>
      <point x="518" y="318" type="line" smooth="yes"/>
      <point x="523" y="343"/>
      <point x="525" y="366"/>
      <point x="525" y="385" type="curve"/>
      <point x="525" y="474"/>
      <point x="481" y="528"/>
      <point x="392" y="528" type="curve"/>
      <point x="318" y="528"/>
      <point x="270" y="491"/>
      <point x="234" y="414" type="curve"/>
      <point x="229" y="414" type="line"/>
      <point x="231" y="424" type="line" smooth="yes"/>
      <point x="234" y="438"/>
      <point x="235" y="446"/>
      <point x="235" y="453" type="curve"/>
      <point x="235" y="490"/>
      <point x="213" y="516"/>
      <point x="169" y="516" type="curve"/>
      <point x="99" y="516" type="line"/>
      <point x="86" y="448" type="line"/>
    </contour>
    <contour>
      <point x="367" y="522" type="move" name="top"/>
    </contour>
  </outline>
</glyph>
<glyph name="theta" format="1">
  <advance width="600"/>
  <unicode hex="03B8"/>
  <note>
    theta
  </note>
  <outline>
    <contour>
      <point x="135" y="397" type="curve"/>
      <point x="75" y="397" type="line"/>
      <point x="62" y="329" type="line"/>
      <point x="125" y="329" type="line"/>
      <point x="112" y="263" type="line" smooth="yes"/>
      <point x="102" y="211"/>
      <point x="99" y="190"/>
      <point x="99" y="168" type="curve"/>
      <point x="99" y="64"/>
      <point x="155" y="-12"/>
      <point x="265" y="-12" type="curve"/>
      <point x="331" y="-12"/>
      <point x="377" y="4"/>
      <point x="423" y="50" type="curve"/>
      <point x="508" y="135"/>
      <point x="567" y="404"/>
      <point x="567" y="564" type="curve"/>
      <point x="567" y="678"/>
      <point x="511" y="752"/>
      <point x="401" y="752" type="curve"/>
      <point x="335" y="752"/>
      <point x="287" y="734"/>
      <point x="247" y="694" type="curve"/>
      <point x="205" y="652"/>
      <point x="183" y="585"/>
      <point x="183" y="535" type="curve"/>
      <point x="183" y="453"/>
      <point x="221" y="378"/>
      <point x="363" y="378" type="curve"/>
      <point x="464" y="378" type="line"/>
      <point x="446" y="284" type="line" smooth="yes"/>
      <point x="415" y="120"/>
      <point x="364" y="57"/>
      <point x="275" y="57" type="curve"/>
      <point x="209" y="57"/>
      <point x="175" y="92"/>
      <point x="175" y="160" type="curve"/>
      <point x="175" y="182"/>
      <point x="178" y="208"/>
      <point x="184" y="240" type="curve"/>
      <point x="198" y="310" type="line" smooth="yes"/>
      <point x="200" y="320"/>
      <point x="201" y="328"/>
      <point x="201" y="334" type="curve"/>
      <point x="201" y="371"/>
      <point x="179" y="397"/>
    </contour>
    <contour>
      <point x="259" y="529" type="curve"/>
      <point x="259" y="543"/>
      <point x="260" y="555"/>
      <point x="265" y="579" type="curve"/>
      <point x="278" y="643"/>
      <point x="321" y="683"/>
      <point x="391" y="683" type="curve"/>
      <point x="457" y="683"/>
      <point x="491" y="648"/>
      <point x="491" y="580" type="curve"/>
      <point x="491" y="536"/>
      <point x="487" y="498"/>
      <point x="482" y="468" type="curve"/>
      <point x="478" y="446" type="line"/>
      <point x="376" y="446" type="line" smooth="yes"/>
      <point x="284" y="446"/>
      <point x="259" y="471"/>
    </contour>
  </outline>
</glyph>
<glyph name="iota" format="1">
  <advance width="300"/>
  <unicode hex="03B9"/>
  <note>
    iota
  </note>
  <outline>
    <contour>
      <point x="121" y="0" type="curve"/>
      <point x="215" y="0" type="line"/>
      <point x="228" y="68" type="line"/>
      <point x="127" y="68" type="line"/>
      <point x="217" y="516" type="line"/>
      <point x="140" y="516" type="line"/>
      <point x="54" y="87" type="line" smooth="yes"/>
      <point x="52" y="77"/>
      <point x="51" y="70"/>
      <point x="51" y="63" type="curve"/>
      <point x="51" y="26"/>
      <point x="74" y="0"/>
    </contour>
    <contour>
      <point x="187" y="522" type="move" name="top"/>
    </contour>
  </outline>
</glyph>
<glyph name="lambda" format="1">
  <advance width="600"/>
  <unicode hex="03BB"/>
  <note>
    lambda
  </note>
  <outline>
    <contour>
      <point x="191" y="672" type="line"/>
      <point x="294" y="672" type="line"/>
      <point x="312" y="516" type="line"/>
      <point x="8" y="0" type="line"/>
      <point x="90" y="0" type="line"/>
      <point x="240" y="258" type="line"/>
      <point x="327" y="431" type="line"/>
      <point x="332" y="431" type="line"/>
      <point x="342" y="258" type="line"/>
      <point x="365" y="60" type="line" smooth="yes"/>
      <point x="370" y="20"/>
      <point x="391" y="0"/>
      <point x="435" y="0" type="curve"/>
      <point x="488" y="0" type="line"/>
      <point x="501" y="68" type="line"/>
      <point x="438" y="68" type="line"/>
      <point x="367" y="680" type="line" smooth="yes"/>
      <point x="362" y="720"/>
      <point x="341" y="740"/>
      <point x="297" y="740" type="curve"/>
      <point x="204" y="740" type="line"/>
    </contour>
  </outline>
</glyph>
<glyph name="xi" format="1">
  <advance width="600"/>
  <unicode hex="03BE"/>
  <note>
    xi
  </note>
  <outline>
    <contour>
      <point x="417" y="672" type="curve"/>
      <point x="585" y="672" type="line"/>
      <point x="598" y="740" type="line"/>
      <point x="170" y="740" type="line"/>
      <point x="157" y="672" type="line"/>
      <point x="287" y="672" type="line"/>
      <point x="285" y="665" type="line"/>
      <point x="211" y="633"/>
      <point x="172" y="573"/>
      <point x="172" y="499" type="curve"/>
      <point x="172" y="445"/>
      <point x="204" y="403"/>
      <point x="263" y="389" type="curve"/>
      <point x="262" y="385" type="line"/>
      <point x="136" y="373"/>
      <point x="74" y="278"/>
      <point x="74" y="184" type="curve"/>
      <point x="74" y="98"/>
      <point x="118" y="24"/>
      <point x="232" y="7" type="curve"/>
      <point x="363" y="-13" type="line"/>
      <point x="306" y="-140" type="line"/>
      <point x="373" y="-168" type="line"/>
      <point x="424" y="-54" type="line" smooth="yes"/>
      <point x="434" y="-32"/>
      <point x="438" y="-16"/>
      <point x="438" y="0" type="curve"/>
      <point x="438" y="31"/>
      <point x="423" y="54"/>
      <point x="387" y="60" type="curve"/>
      <point x="249" y="82" type="line" smooth="yes"/>
      <point x="177" y="93"/>
      <point x="151" y="136"/>
      <point x="151" y="184" type="curve"/>
      <point x="151" y="198"/>
      <point x="152" y="208"/>
      <point x="155" y="224" type="curve"/>
      <point x="170" y="305"/>
      <point x="224" y="350"/>
      <point x="322" y="350" type="curve"/>
      <point x="469" y="350" type="line"/>
      <point x="483" y="418" type="line"/>
      <point x="338" y="418" type="line" smooth="yes"/>
      <point x="282" y="418"/>
      <point x="249" y="444"/>
      <point x="249" y="497" type="curve"/>
      <point x="249" y="511"/>
      <point x="250" y="523"/>
      <point x="253" y="539" type="curve"/>
      <point x="269" y="625"/>
      <point x="334" y="672"/>
    </contour>
  </outline>
</glyph>
<glyph name="omicron" format="1">
  <advance width="600"/>
  <unicode hex="03BF"/>
  <note>
    omicron
  </note>
  <outline>
    <component base="o"/>
    <contour>
      <point x="347" y="522" type="move" name="top"/>
    </contour>
  </outline>
</glyph>
<glyph name="rho" format="1">
  <advance width="600"/>
  <unicode hex="03C1"/>
  <note>
    rho
  </note>
  <outline>
    <contour>
      <point x="89" y="282" type="curve"/>
      <point x="-8" y="-200" type="line"/>
      <point x="69" y="-200" type="line"/>
      <point x="126" y="84" type="line"/>
      <point x="130" y="84" type="line"/>
      <point x="145" y="19"/>
      <point x="203" y="-12"/>
      <point x="265" y="-12" type="curve"/>
      <point x="436" y="-12"/>
      <point x="517" y="179"/>
      <point x="517" y="321" type="curve"/>
      <point x="517" y="456"/>
      <point x="446" y="528"/>
      <point x="333" y="528" type="curve"/>
      <point x="201" y="528"/>
      <point x="120" y="434"/>
    </contour>
    <contour>
      <point x="258" y="58" type="curve"/>
      <point x="167" y="58"/>
      <point x="132" y="113"/>
      <point x="145" y="178" type="curve"/>
      <point x="169" y="298" type="line" smooth="yes"/>
      <point x="190" y="403"/>
      <point x="252" y="458"/>
      <point x="323" y="458" type="curve"/>
      <point x="396" y="458"/>
      <point x="438" y="408"/>
      <point x="438" y="341" type="curve"/>
      <point x="438" y="317"/>
      <point x="436" y="300"/>
      <point x="433" y="283" type="curve"/>
      <point x="419" y="214" type="line" smooth="yes"/>
      <point x="399" y="114"/>
      <point x="342" y="58"/>
    </contour>
  </outline>
</glyph>
<glyph name="tau" format="1">
  <advance width="600"/>
  <unicode hex="03C4"/>
  <note>
    tau
  </note>
  <outline>
    <contour>
      <point x="281" y="0" type="curve"/>
      <point x="385" y="0" type="line"/>
      <point x="398" y="68" type="line"/>
      <point x="287" y="68" type="line"/>
      <point x="364" y="448" type="line"/>
      <point x="561" y="448" type="line"/>
      <point x="575" y="516" type="line"/>
      <point x="109" y="516" type="line"/>
      <point x="95" y="448" type="line"/>
      <point x="287" y="448" type="line"/>
      <point x="214" y="87" type="line" smooth="yes"/>
      <point x="212" y="77"/>
      <point x="211" y="70"/>
      <point x="211" y="63" type="curve"/>
      <point x="211" y="26"/>
      <point x="234" y="0"/>
    </contour>
  </outline>
</glyph>
<glyph name="phi" format="1">
  <advance width="900"/>
  <unicode hex="03C6"/>
  <note>
    phi
  </note>
  <outline>
    <contour>
      <point x="351" y="-12" type="curve"/>
      <point x="313" y="-200" type="line"/>
      <point x="390" y="-200" type="line"/>
      <point x="428" y="-12" type="line"/>
      <point x="698" y="-12"/>
      <point x="807" y="137"/>
      <point x="807" y="357" type="curve"/>
      <point x="807" y="479"/>
      <point x="755" y="528"/>
      <point x="619" y="528" type="curve"/>
      <point x="511" y="528"/>
      <point x="444" y="457"/>
      <point x="410" y="284" type="curve"/>
      <point x="365" y="57" type="line"/>
      <point x="213" y="57"/>
      <point x="157" y="96"/>
      <point x="157" y="172" type="curve"/>
      <point x="157" y="188"/>
      <point x="160" y="207"/>
      <point x="164" y="227" type="curve"/>
      <point x="172" y="265" type="line" smooth="yes"/>
      <point x="195" y="373"/>
      <point x="238" y="435"/>
      <point x="368" y="469" type="curve"/>
      <point x="333" y="528" type="line"/>
      <point x="155" y="474"/>
      <point x="81" y="333"/>
      <point x="81" y="176" type="curve"/>
      <point x="81" y="60"/>
      <point x="175" y="-12"/>
    </contour>
    <contour>
      <point x="442" y="57" type="curve"/>
      <point x="492" y="309" type="line" smooth="yes"/>
      <point x="512" y="412"/>
      <point x="554" y="459"/>
      <point x="611" y="459" type="curve"/>
      <point x="705" y="459"/>
      <point x="731" y="431"/>
      <point x="731" y="373" type="curve"/>
      <point x="731" y="356"/>
      <point x="728" y="323"/>
      <point x="723" y="297" type="curve"/>
      <point x="711" y="233" type="line" smooth="yes"/>
      <point x="690" y="122"/>
      <point x="615" y="57"/>
    </contour>
  </outline>
</glyph>
<glyph name="chi" format="1">
  <advance width="600"/>
  <unicode hex="03C7"/>
  <note>
    chi
  </note>
  <outline>
    <contour>
      <point x="178" y="516" type="curve"/>
      <point x="120" y="516" type="line"/>
      <point x="107" y="448" type="line"/>
      <point x="175" y="448" type="line"/>
      <point x="234" y="173" type="line"/>
      <point x="-19" y="-200" type="line"/>
      <point x="69" y="-200" type="line"/>
      <point x="264" y="105" type="line"/>
      <point x="269" y="105" type="line"/>
      <point x="320" y="-152" type="line" smooth="yes"/>
      <point x="327" y="-185"/>
      <point x="350" y="-200"/>
      <point x="388" y="-200" type="curve"/>
      <point x="446" y="-200" type="line"/>
      <point x="459" y="-132" type="line"/>
      <point x="391" y="-132" type="line"/>
      <point x="326" y="166" type="line"/>
      <point x="567" y="516" type="line"/>
      <point x="479" y="516" type="line"/>
      <point x="296" y="234" type="line"/>
      <point x="291" y="234" type="line"/>
      <point x="246" y="468" type="line" smooth="yes"/>
      <point x="240" y="501"/>
      <point x="216" y="516"/>
    </contour>
  </outline>
</glyph>
<glyph name="psi" format="1">
  <advance width="900"/>
  <unicode hex="03C8"/>
  <note>
    psi
  </note>
  <outline>
    <contour>
      <point x="350" y="-12" type="curve"/>
      <point x="312" y="-200" type="line"/>
      <point x="389" y="-200" type="line"/>
      <point x="427" y="-12" type="line"/>
      <point x="655" y="-12"/>
      <point x="741" y="48"/>
      <point x="780" y="240" type="curve"/>
      <point x="836" y="516" type="line"/>
      <point x="759" y="516" type="line"/>
      <point x="705" y="246" type="line" smooth="yes"/>
      <point x="675" y="96"/>
      <point x="631" y="57"/>
      <point x="441" y="57" type="curve"/>
      <point x="572" y="710" type="line"/>
      <point x="495" y="710" type="line"/>
      <point x="364" y="57" type="line"/>
      <point x="202" y="57"/>
      <point x="166" y="93"/>
      <point x="166" y="163" type="curve"/>
      <point x="166" y="185"/>
      <point x="167" y="209"/>
      <point x="176" y="247" type="curve"/>
      <point x="240" y="516" type="line"/>
      <point x="153" y="516" type="line"/>
      <point x="101" y="258" type="line" smooth="yes"/>
      <point x="93" y="218"/>
      <point x="90" y="185"/>
      <point x="90" y="163" type="curve"/>
      <point x="90" y="61"/>
      <point x="158" y="-12"/>
    </contour>
  </outline>
</glyph>
<glyph name="omega" format="1">
  <advance width="900"/>
  <unicode hex="03C9"/>
  <note>
    omega
  </note>
  <outline>
    <contour>
      <point x="458" y="219" type="curve"/>
      <point x="484" y="349" type="line"/>
      <point x="407" y="349" type="line"/>
      <point x="378" y="207" type="line" smooth="yes"/>
      <point x="357" y="104"/>
      <point x="316" y="57"/>
      <point x="239" y="57" type="curve"/>
      <point x="175" y="57"/>
      <point x="149" y="85"/>
      <point x="149" y="143" type="curve"/>
      <point x="149" y="160"/>
      <point x="152" y="193"/>
      <point x="157" y="219" type="curve"/>
      <point x="166" y="265" type="line" smooth="yes"/>
      <point x="187" y="373"/>
      <point x="232" y="435"/>
      <point x="312" y="469" type="curve"/>
      <point x="277" y="528" type="line"/>
      <point x="149" y="474"/>
      <point x="73" y="333"/>
      <point x="73" y="159" type="curve"/>
      <point x="73" y="37"/>
      <point x="125" y="-12"/>
      <point x="231" y="-12" type="curve"/>
      <point x="317" y="-12"/>
      <point x="368" y="29"/>
      <point x="396" y="115" type="curve"/>
      <point x="400" y="115" type="line"/>
      <point x="404" y="33"/>
      <point x="440" y="-12"/>
      <point x="542" y="-12" type="curve"/>
      <point x="708" y="-12"/>
      <point x="776" y="179"/>
      <point x="776" y="328" type="curve"/>
      <point x="776" y="422"/>
      <point x="747" y="480"/>
      <point x="685" y="528" type="curve"/>
      <point x="635" y="476" type="line"/>
      <point x="679" y="440"/>
      <point x="700" y="400"/>
      <point x="700" y="334" type="curve"/>
      <point x="700" y="318"/>
      <point x="698" y="296"/>
      <point x="694" y="278" type="curve"/>
      <point x="685" y="234" type="line" smooth="yes"/>
      <point x="657" y="95"/>
      <point x="612" y="57"/>
      <point x="542" y="57" type="curve"/>
      <point x="476" y="57"/>
      <point x="450" y="85"/>
      <point x="450" y="143" type="curve"/>
      <point x="450" y="160"/>
      <point x="453" y="193"/>
    </contour>
    <contour>
      <point x="477" y="522" type="move" name="top"/>
    </contour>
  </outline>
</glyph>
<glyph name="uni0407" format="1">
  <advance width="600"/>
  <unicode hex="0407"/>
  <note>
    uni0407
  </note>
  <outline>
    <contour>
      <point x="298" y="789" type="curve"/>
      <point x="338" y="789"/>
      <point x="350" y="806"/>
      <point x="357" y="832" type="curve"/>
      <point x="359" y="839"/>
      <point x="361" y="850"/>
      <point x="361" y="857" type="curve"/>
      <point x="361" y="876"/>
      <point x="348" y="893"/>
      <point x="309" y="893" type="curve"/>
      <point x="269" y="893"/>
      <point x="257" y="876"/>
      <point x="250" y="850" type="curve"/>
      <point x="248" y="843"/>
      <point x="246" y="832"/>
      <point x="246" y="825" type="curve"/>
      <point x="246" y="806"/>
      <point x="259" y="789"/>
    </contour>
    <contour>
      <point x="484" y="789" type="curve"/>
      <point x="524" y="789"/>
      <point x="536" y="806"/>
      <point x="543" y="832" type="curve"/>
      <point x="545" y="839"/>
      <point x="547" y="850"/>
      <point x="547" y="857" type="curve"/>
      <point x="547" y="876"/>
      <point x="534" y="893"/>
      <point x="495" y="893" type="curve"/>
      <point x="455" y="893"/>
      <point x="443" y="876"/>
      <point x="436" y="850" type="curve"/>
      <point x="434" y="843"/>
      <point x="432" y="832"/>
      <point x="432" y="825" type="curve"/>
      <point x="432" y="806"/>
      <point x="445" y="789"/>
    </contour>
    <contour>
      <point x="52" y="66" type="line"/>
      <point x="41" y="0" type="line"/>
      <point x="473" y="0" type="line"/>
      <point x="484" y="66" type="line"/>
      <point x="309" y="66" type="line"/>
      <point x="404" y="632" type="line"/>
      <point x="579" y="632" type="line"/>
      <point x="590" y="698" type="line"/>
      <point x="158" y="698" type="line"/>
      <point x="147" y="632" type="line"/>
      <point x="322" y="632" type="line"/>
      <point x="227" y="66" type="line"/>
    </contour>
  </outline>
</glyph>
<glyph name="uni040E" format="1">
  <advance width="600"/>
  <unicode hex="040E"/>
  <note>
    uni040E
  </note>
  <outline>
    <contour>
      <point x="387" y="765" type="curve"/>
      <point x="448" y="765"/>
      <point x="496" y="792"/>
      <point x="538" y="858" type="curve"/>
      <point x="574" y="915" type="line"/>
      <point x="504" y="938" type="line"/>
      <point x="446" y="832" type="line"/>
      <point x="431" y="827"/>
      <point x="408" y="826"/>
      <point x="389" y="826" type="curve"/>
      <point x="376" y="826"/>
      <point x="349" y="827"/>
      <point x="336" y="832" type="curve"/>
      <point x="314" y="938" type="line"/>
      <point x="240" y="915" type="line"/>
      <point x="260" y="858" type="line" smooth="yes"/>
      <point x="281" y="798"/>
      <point x="316" y="765"/>
    </contour>
    <contour>
      <point x="215" y="72" type="line"/>
      <point x="115" y="72" type="line"/>
      <point x="103" y="0" type="line"/>
      <point x="164" y="0" type="line" smooth="yes"/>
      <point x="234" y="0"/>
      <point x="265" y="15"/>
      <point x="301" y="82" type="curve"/>
      <point x="637" y="698" type="line"/>
      <point x="551" y="698" type="line"/>
      <point x="385" y="386" type="line"/>
      <point x="316" y="251" type="line"/>
      <point x="314" y="251" type="line"/>
      <point x="283" y="389" type="line"/>
      <point x="203" y="698" type="line"/>
      <point x="124" y="698" type="line"/>
      <point x="264" y="163" type="line"/>
    </contour>
  </outline>
</glyph>
<glyph name="uni0411" format="1">
  <advance width="600"/>
  <unicode hex="0411"/>
  <note>
    uni0411
  </note>
  <outline>
    <contour>
      <point x="546" y="698" type="line"/>
      <point x="174" y="698" type="line"/>
      <point x="57" y="0" type="line"/>
      <point x="295" y="0" type="line" smooth="yes"/>
      <point x="441" y="0"/>
      <point x="528" y="92"/>
      <point x="528" y="246" type="curve"/>
      <point x="528" y="353"/>
      <point x="474" y="418"/>
      <point x="357" y="418" type="curve"/>
      <point x="209" y="418" type="line"/>
      <point x="244" y="626" type="line"/>
      <point x="534" y="626" type="line"/>
    </contour>
    <contour>
      <point x="303" y="72" type="curve"/>
      <point x="151" y="72" type="line"/>
      <point x="197" y="346" type="line"/>
      <point x="347" y="346" type="line" smooth="yes"/>
      <point x="408" y="346"/>
      <point x="444" y="320"/>
      <point x="444" y="255" type="curve"/>
      <point x="444" y="243"/>
      <point x="443" y="230"/>
      <point x="441" y="216" type="curve"/>
      <point x="435" y="180" type="line" smooth="yes"/>
      <point x="424" y="113"/>
      <point x="378" y="72"/>
    </contour>
  </outline>
</glyph>
<glyph name="uni041C" format="1">
  <advance width="600"/>
  <unicode hex="041C"/>
  <note>
    uni041C
  </note>
  <outline>
    <contour>
      <point x="510" y="574" type="line"/>
      <point x="472" y="350" type="line"/>
      <point x="413" y="0" type="line"/>
      <point x="488" y="0" type="line"/>
      <point x="605" y="698" type="line"/>
      <point x="500" y="698" type="line"/>
      <point x="323" y="389" type="line"/>
      <point x="317" y="389" type="line"/>
      <point x="243" y="698" type="line"/>
      <point x="143" y="698" type="line"/>
      <point x="26" y="0" type="line"/>
      <point x="101" y="0" type="line"/>
      <point x="159" y="350" type="line"/>
      <point x="196" y="574" type="line"/>
      <point x="203" y="574" type="line"/>
      <point x="292" y="214" type="line"/>
      <point x="503" y="574" type="line"/>
    </contour>
  </outline>
</glyph>
<glyph name="uni041D" format="1">
  <advance width="600"/>
  <unicode hex="041D"/>
  <note>
    uni041D
  </note>
  <outline>
    <contour>
      <point x="174" y="318" type="line"/>
      <point x="446" y="318" type="line"/>
      <point x="393" y="0" type="line"/>
      <point x="475" y="0" type="line"/>
      <point x="592" y="698" type="line"/>
      <point x="510" y="698" type="line"/>
      <point x="458" y="390" type="line"/>
      <point x="186" y="390" type="line"/>
      <point x="238" y="698" type="line"/>
      <point x="156" y="698" type="line"/>
      <point x="39" y="0" type="line"/>
      <point x="121" y="0" type="line"/>
    </contour>
  </outline>
</glyph>
<glyph name="uni0425" format="1">
  <advance width="600"/>
  <unicode hex="0425"/>
  <note>
    uni0425
  </note>
  <outline>
    <contour>
      <point x="445" y="0" type="line"/>
      <point x="533" y="0" type="line"/>
      <point x="367" y="353" type="line"/>
      <point x="643" y="698" type="line"/>
      <point x="547" y="698" type="line"/>
      <point x="441" y="563" type="line"/>
      <point x="332" y="425" type="line"/>
      <point x="328" y="425" type="line"/>
      <point x="264" y="563" type="line"/>
      <point x="202" y="698" type="line"/>
      <point x="114" y="698" type="line"/>
      <point x="275" y="360" type="line"/>
      <point x="-16" y="0" type="line"/>
      <point x="80" y="0" type="line"/>
      <point x="191" y="141" type="line"/>
      <point x="309" y="290" type="line"/>
      <point x="313" y="290" type="line"/>
      <point x="381" y="141" type="line"/>
    </contour>
  </outline>
</glyph>
<glyph name="uni0430" format="1">
  <advance width="600"/>
  <unicode hex="0430"/>
  <note>
    uni0430
  </note>
  <outline>
    <contour>
      <point x="403" y="122" type="line"/>
      <point x="383" y="0" type="line"/>
      <point x="461" y="0" type="line"/>
      <point x="547" y="516" type="line"/>
      <point x="469" y="516" type="line"/>
      <point x="454" y="426" type="line"/>
      <point x="451" y="426" type="line"/>
      <point x="429" y="493"/>
      <point x="376" y="528"/>
      <point x="300" y="528" type="curve"/>
      <point x="118" y="528"/>
      <point x="56" y="326"/>
      <point x="56" y="188" type="curve"/>
      <point x="56" y="56"/>
      <point x="113" y="-12"/>
      <point x="217" y="-12" type="curve"/>
      <point x="308" y="-12"/>
      <point x="360" y="41"/>
      <point x="400" y="122" type="curve"/>
    </contour>
    <contour>
      <point x="244" y="57" type="curve"/>
      <point x="172" y="57"/>
      <point x="135" y="103"/>
      <point x="135" y="180" type="curve"/>
      <point x="135" y="193"/>
      <point x="136" y="207"/>
      <point x="139" y="225" type="curve"/>
      <point x="151" y="297" type="line" smooth="yes"/>
      <point x="167" y="393"/>
      <point x="224" y="459"/>
      <point x="323" y="459" type="curve"/>
      <point x="400" y="459"/>
      <point x="453" y="418"/>
      <point x="441" y="346" type="curve"/>
      <point x="422" y="232" type="line" smooth="yes"/>
      <point x="414" y="184"/>
      <point x="391" y="143"/>
      <point x="365" y="114" type="curve"/>
      <point x="329" y="74"/>
      <point x="287" y="57"/>
    </contour>
  </outline>
</glyph>
<glyph name="uni043C" format="1">
  <advance width="600"/>
  <unicode hex="043C"/>
  <note>
    uni043C
  </note>
  <outline>
    <contour>
      <point x="222" y="516" type="line"/>
      <point x="120" y="516" type="line"/>
      <point x="34" y="0" type="line"/>
      <point x="108" y="0" type="line"/>
      <point x="166" y="347" type="line"/>
      <point x="175" y="417" type="line"/>
      <point x="181" y="417" type="line"/>
      <point x="272" y="94" type="line"/>
      <point x="472" y="417" type="line"/>
      <point x="478" y="417" type="line"/>
      <point x="465" y="347" type="line"/>
      <point x="406" y="0" type="line"/>
      <point x="480" y="0" type="line"/>
      <point x="566" y="516" type="line"/>
      <point x="461" y="516" type="line"/>
      <point x="298" y="252" type="line"/>
      <point x="296" y="252" type="line"/>
    </contour>
  </outline>
</glyph>
<glyph name="uni043D" format="1">
  <advance width="600"/>
  <unicode hex="043D"/>
  <note>
    uni043D
  </note>
  <outline>
    <contour>
      <point x="221" y="516" type="line"/>
      <point x="143" y="516" type="line"/>
      <point x="57" y="0" type="line"/>
      <point x="135" y="0" type="line"/>
      <point x="173" y="232" type="line"/>
      <point x="419" y="232" type="line"/>
      <point x="381" y="0" type="line"/>
      <point x="459" y="0" type="line"/>
      <point x="545" y="516" type="line"/>
      <point x="467" y="516" type="line"/>
      <point x="430" y="299" type="line"/>
      <point x="184" y="299" type="line"/>
    </contour>
  </outline>
</glyph>
<glyph name="uni0448" format="1">
  <advance width="600"/>
  <unicode hex="0448"/>
  <note>
    uni0448
  </note>
  <outline>
    <contour>
      <point x="119" y="-12" type="curve"/>
      <point x="179" y="-12"/>
      <point x="218" y="27"/>
      <point x="244" y="86" type="curve"/>
      <point x="247" y="86" type="line"/>
      <point x="243" y="30"/>
      <point x="268" y="-12"/>
      <point x="326" y="-12" type="curve"/>
      <point x="383" y="-12"/>
      <point x="414" y="29"/>
      <point x="438" y="81" type="curve"/>
      <point x="442" y="81" type="line"/>
      <point x="429" y="0" type="line"/>
      <point x="501" y="0" type="line"/>
      <point x="587" y="516" type="line"/>
      <point x="515" y="516" type="line"/>
      <point x="459" y="182" type="line" smooth="yes"/>
      <point x="454" y="152"/>
      <point x="442" y="119"/>
      <point x="423" y="92" type="curve"/>
      <point x="407" y="69"/>
      <point x="384" y="52"/>
      <point x="356" y="52" type="curve"/>
      <point x="328" y="52"/>
      <point x="314" y="69"/>
      <point x="314" y="111" type="curve"/>
      <point x="314" y="127"/>
      <point x="316" y="146"/>
      <point x="320" y="170" type="curve"/>
      <point x="378" y="516" type="line"/>
      <point x="306" y="516" type="line"/>
      <point x="250" y="182" type="line" smooth="yes"/>
      <point x="245" y="152"/>
      <point x="233" y="118"/>
      <point x="214" y="92" type="curve"/>
      <point x="197" y="69"/>
      <point x="177" y="52"/>
      <point x="149" y="52" type="curve"/>
      <point x="119" y="52"/>
      <point x="105" y="71"/>
      <point x="105" y="108" type="curve"/>
      <point x="105" y="122"/>
      <point x="108" y="146"/>
      <point x="112" y="170" type="curve"/>
      <point x="170" y="516" type="line"/>
      <point x="98" y="516" type="line"/>
      <point x="38" y="157" type="line" smooth="yes"/>
      <point x="34" y="133"/>
      <point x="31" y="106"/>
      <point x="31" y="87" type="curve"/>
      <point x="31" y="24"/>
      <point x="62" y="-12"/>
    </contour>
  </outline>
</glyph>
<glyph name="uni044D" format="1">
  <advance width="600"/>
  <unicode hex="044D"/>
  <note>
    uni044D
  </note>
  <outline>
    <contour>
      <point x="426" y="294" type="curve"/>
      <point x="207" y="294" type="line"/>
      <point x="196" y="227" type="line"/>
      <point x="415" y="227" type="line"/>
      <point x="396" y="115"/>
      <point x="339" y="56"/>
      <point x="251" y="56" type="curve"/>
      <point x="187" y="56"/>
      <point x="149" y="75"/>
      <point x="129" y="138" type="curve"/>
      <point x="62" y="112" type="line"/>
      <point x="80" y="44"/>
      <point x="133" y="-12"/>
      <point x="242" y="-12" type="curve"/>
      <point x="389" y="-12"/>
      <point x="508" y="113"/>
      <point x="508" y="310" type="curve"/>
      <point x="508" y="439"/>
      <point x="441" y="528"/>
      <point x="313" y="528" type="curve"/>
      <point x="227" y="528"/>
      <point x="168" y="494"/>
      <point x="104" y="414" type="curve"/>
      <point x="158" y="373" type="line"/>
      <point x="208" y="433"/>
      <point x="249" y="460"/>
      <point x="303" y="460" type="curve"/>
      <point x="378" y="460"/>
      <point x="429" y="419"/>
      <point x="429" y="331" type="curve"/>
      <point x="429" y="320"/>
      <point x="428" y="310"/>
    </contour>
  </outline>
</glyph>
<glyph name="uni045D" format="1">
  <advance width="600"/>
  <unicode hex="045D"/>
  <note>
    uni045D
  </note>
  <outline>
    <contour>
      <point x="343" y="779" type="line"/>
      <point x="269" y="752" type="line"/>
      <point x="344" y="585" type="line"/>
      <point x="395" y="605" type="line"/>
    </contour>
    <contour>
      <point x="395" y="122" type="curve"/>
      <point x="399" y="122" type="line"/>
      <point x="379" y="0" type="line"/>
      <point x="457" y="0" type="line"/>
      <point x="543" y="516" type="line"/>
      <point x="465" y="516" type="line"/>
      <point x="417" y="231" type="line" smooth="yes"/>
      <point x="407" y="172"/>
      <point x="369" y="126"/>
      <point x="358" y="113" type="curve"/>
      <point x="329" y="79"/>
      <point x="294" y="57"/>
      <point x="249" y="57" type="curve"/>
      <point x="191" y="57"/>
      <point x="163" y="95"/>
      <point x="163" y="156" type="curve"/>
      <point x="163" y="167"/>
      <point x="164" y="187"/>
      <point x="168" y="211" type="curve"/>
      <point x="219" y="516" type="line"/>
      <point x="141" y="516" type="line"/>
      <point x="89" y="204" type="line" smooth="yes"/>
      <point x="85" y="181"/>
      <point x="83" y="157"/>
      <point x="83" y="137" type="curve"/>
      <point x="83" y="43"/>
      <point x="137" y="-12"/>
      <point x="223" y="-12" type="curve"/>
      <point x="306" y="-12"/>
      <point x="357" y="40"/>
    </contour>
  </outline>
</glyph>
<glyph name="uni0491" format="1">
  <advance width="600"/>
  <unicode hex="0491"/>
  <note>
    uni0491
  </note>
  <outline>
    <contour>
      <point x="469" y="516" type="line"/>
      <point x="178" y="516" type="line"/>
      <point x="92" y="0" type="line"/>
      <point x="170" y="0" type="line"/>
      <point x="244" y="448" type="line"/>
      <point x="529" y="448" type="line"/>
      <point x="564" y="656" type="line"/>
      <point x="492" y="656" type="line"/>
    </contour>
  </outline>
</glyph>
<glyph name="uni0496" format="1">
  <advance width="600"/>
  <unicode hex="0496"/>
  <note>
    uni0496
  </note>
  <outline>
    <contour>
      <point x="453" y="0" type="line"/>
      <point x="516" y="0" type="line"/>
      <point x="491" y="-150" type="line"/>
      <point x="566" y="-150" type="line"/>
      <point x="603" y="72" type="line"/>
      <point x="522" y="72" type="line"/>
      <point x="492" y="275" type="line" smooth="yes"/>
      <point x="485" y="323"/>
      <point x="471" y="342"/>
      <point x="443" y="352" type="curve"/>
      <point x="444" y="357" type="line"/>
      <point x="475" y="363"/>
      <point x="495" y="384"/>
      <point x="514" y="428" type="curve"/>
      <point x="631" y="698" type="line"/>
      <point x="551" y="698" type="line"/>
      <point x="417" y="390" type="line"/>
      <point x="350" y="390" type="line"/>
      <point x="402" y="698" type="line"/>
      <point x="323" y="698" type="line"/>
      <point x="271" y="390" type="line"/>
      <point x="204" y="390" type="line"/>
      <point x="168" y="698" type="line"/>
      <point x="93" y="698" type="line"/>
      <point x="124" y="433" type="line" smooth="yes"/>
      <point x="129" y="389"/>
      <point x="140" y="369"/>
      <point x="166" y="357" type="curve"/>
      <point x="165" y="352" type="line"/>
      <point x="133" y="346"/>
      <point x="108" y="324"/>
      <point x="85" y="274" type="curve"/>
      <point x="-43" y="0" type="line"/>
      <point x="43" y="0" type="line"/>
      <point x="192" y="318" type="line"/>
      <point x="259" y="318" type="line"/>
      <point x="205" y="0" type="line"/>
      <point x="285" y="0" type="line"/>
      <point x="338" y="318" type="line"/>
      <point x="405" y="318" type="line"/>
    </contour>
  </outline>
</glyph>
<glyph name="uni04A0" format="1">
  <advance width="600"/>
  <unicode hex="04A0"/>
  <note>
    uni04A0
  </note>
  <outline>
    <contour>
      <point x="71" y="626" type="line"/>
      <point x="231" y="626" type="line"/>
      <point x="126" y="0" type="line"/>
      <point x="208" y="0" type="line"/>
      <point x="261" y="318" type="line"/>
      <point x="356" y="318" type="line"/>
      <point x="416" y="82" type="line" smooth="yes"/>
      <point x="431" y="23"/>
      <point x="459" y="0"/>
      <point x="502" y="0" type="curve"/>
      <point x="556" y="0" type="line"/>
      <point x="568" y="72" type="line"/>
      <point x="504" y="72" type="line"/>
      <point x="452" y="277" type="line" smooth="yes"/>
      <point x="438" y="331"/>
      <point x="426" y="346"/>
      <point x="400" y="352" type="curve"/>
      <point x="401" y="357" type="line"/>
      <point x="427" y="361"/>
      <point x="447" y="373"/>
      <point x="471" y="414" type="curve"/>
      <point x="636" y="698" type="line"/>
      <point x="547" y="698" type="line"/>
      <point x="368" y="390" type="line"/>
      <point x="273" y="390" type="line"/>
      <point x="325" y="698" type="line"/>
      <point x="83" y="698" type="line"/>
    </contour>
  </outline>
</glyph>
<glyph name="uni04A3" format="1">
  <advance width="600"/>
  <unicode hex="04A3"/>
  <note>
    uni04A3
  </note>
  <outline>
    <contour>
      <point x="354" y="0" type="line"/>
      <point x="444" y="0" type="line"/>
      <point x="420" y="-140" type="line"/>
      <point x="492" y="-140" type="line"/>
      <point x="527" y="68" type="line"/>
      <point x="443" y="68" type="line"/>
      <point x="518" y="516" type="line"/>
      <point x="440" y="516" type="line"/>
      <point x="403" y="299" type="line"/>
      <point x="166" y="299" type="line"/>
      <point x="203" y="516" type="line"/>
      <point x="125" y="516" type="line"/>
      <point x="39" y="0" type="line"/>
      <point x="117" y="0" type="line"/>
      <point x="155" y="232" type="line"/>
      <point x="392" y="232" type="line"/>
    </contour>
  </outline>
</glyph>
<glyph name="uni04AE" format="1">
  <advance width="600"/>
  <unicode hex="04AE"/>
  <note>
    uni04AE
  </note>
  <outline>
    <contour>
      <point x="262" y="272" type="line"/>
      <point x="216" y="0" type="line"/>
      <point x="298" y="0" type="line"/>
      <point x="345" y="279" type="line"/>
      <point x="656" y="698" type="line"/>
      <point x="558" y="698" type="line"/>
      <point x="427" y="515" type="line"/>
      <point x="312" y="354" type="line"/>
      <point x="308" y="354" type="line"/>
      <point x="249" y="515" type="line"/>
      <point x="178" y="698" type="line"/>
      <point x="90" y="698" type="line"/>
    </contour>
  </outline>
</glyph>
<glyph name="uni04AF" format="1">
  <advance width="600"/>
  <unicode hex="04AF"/>
  <note>
    uni04AF
  </note>
  <outline>
    <contour>
      <point x="113" y="516" type="line"/>
      <point x="219" y="0" type="line"/>
      <point x="185" y="-200" type="line"/>
      <point x="263" y="-200" type="line"/>
      <point x="297" y="0" type="line"/>
      <point x="575" y="516" type="line"/>
      <point x="498" y="516" type="line"/>
      <point x="390" y="314" type="line"/>
      <point x="275" y="90" type="line"/>
      <point x="271" y="90" type="line"/>
      <point x="230" y="314" type="line"/>
      <point x="190" y="516" type="line"/>
    </contour>
  </outline>
</glyph>
<glyph name="uni04B2" format="1">
  <advance width="600"/>
  <unicode hex="04B2"/>
  <note>
    uni04B2
  </note>
  <outline>
    <contour>
      <point x="439" y="0" type="line"/>
      <point x="493" y="0" type="line"/>
      <point x="468" y="-150" type="line"/>
      <point x="545" y="-150" type="line"/>
      <point x="582" y="72" type="line"/>
      <point x="493" y="72" type="line"/>
      <point x="361" y="353" type="line"/>
      <point x="637" y="698" type="line"/>
      <point x="541" y="698" type="line"/>
      <point x="435" y="563" type="line"/>
      <point x="326" y="425" type="line"/>
      <point x="322" y="425" type="line"/>
      <point x="258" y="563" type="line"/>
      <point x="196" y="698" type="line"/>
      <point x="108" y="698" type="line"/>
      <point x="269" y="360" type="line"/>
      <point x="-22" y="0" type="line"/>
      <point x="74" y="0" type="line"/>
      <point x="185" y="141" type="line"/>
      <point x="303" y="290" type="line"/>
      <point x="307" y="290" type="line"/>
      <point x="375" y="141" type="line"/>
    </contour>
  </outline>
</glyph>
<glyph name="uni04C1" format="1">
  <advance width="600"/>
  <unicode hex="04C1"/>
  <note>
    uni04C1
  </note>
  <outline>
    <contour>
      <point x="387" y="765" type="curve"/>
      <point x="448" y="765"/>
      <point x="496" y="792"/>
      <point x="538" y="858" type="curve"/>
      <point x="574" y="915" type="line"/>
      <point x="504" y="938" type="line"/>
      <point x="446" y="832" type="line"/>
      <point x="431" y="827"/>
      <point x="408" y="826"/>
      <point x="389" y="826" type="curve"/>
      <point x="376" y="826"/>
      <point x="349" y="827"/>
      <point x="336" y="832" type="curve"/>
      <point x="314" y="938" type="line"/>
      <point x="240" y="915" type="line"/>
      <point x="260" y="858" type="line" smooth="yes"/>
      <point x="281" y="798"/>
      <point x="316" y="765"/>
    </contour>
    <contour>
      <point x="95" y="274" type="curve"/>
      <point x="-33" y="0" type="line"/>
      <point x="53" y="0" type="line"/>
      <point x="202" y="318" type="line"/>
      <point x="271" y="318" type="line"/>
      <point x="217" y="0" type="line"/>
      <point x="297" y="0" type="line"/>
      <point x="350" y="318" type="line"/>
      <point x="419" y="318" type="line"/>
      <point x="467" y="0" type="line"/>
      <point x="547" y="0" type="line"/>
      <point x="506" y="275" type="line" smooth="yes"/>
      <point x="499" y="323"/>
      <point x="485" y="342"/>
      <point x="457" y="352" type="curve"/>
      <point x="458" y="357" type="line"/>
      <point x="489" y="363"/>
      <point x="509" y="384"/>
      <point x="528" y="428" type="curve"/>
      <point x="645" y="698" type="line"/>
      <point x="565" y="698" type="line"/>
      <point x="431" y="390" type="line"/>
      <point x="362" y="390" type="line"/>
      <point x="414" y="698" type="line"/>
      <point x="335" y="698" type="line"/>
      <point x="283" y="390" type="line"/>
      <point x="214" y="390" type="line"/>
      <point x="178" y="698" type="line"/>
      <point x="103" y="698" type="line"/>
      <point x="134" y="433" type="line" smooth="yes"/>
      <point x="139" y="389"/>
      <point x="150" y="369"/>
      <point x="176" y="357" type="curve"/>
      <point x="175" y="352" type="line"/>
      <point x="143" y="346"/>
      <point x="118" y="324"/>
    </contour>
  </outline>
</glyph>
<glyph name="uni04C2" format="1">
  <advance width="600"/>
  <unicode hex="04C2"/>
  <note>
    uni04C2
  </note>
  <outline>
    <contour>
      <point x="359" y="595" type="curve"/>
      <point x="420" y="595"/>
      <point x="468" y="622"/>
      <point x="510" y="688" type="curve"/>
      <point x="546" y="745" type="line"/>
      <point x="476" y="768" type="line"/>
      <point x="418" y="662" type="line"/>
      <point x="403" y="657"/>
      <point x="380" y="656"/>
      <point x="361" y="656" type="curve"/>
      <point x="348" y="656"/>
      <point x="321" y="657"/>
      <point x="308" y="662" type="curve"/>
      <point x="286" y="768" type="line"/>
      <point x="212" y="745" type="line"/>
      <point x="232" y="688" type="line" smooth="yes"/>
      <point x="253" y="628"/>
      <point x="288" y="595"/>
    </contour>
    <contour>
      <point x="62" y="66" type="curve"/>
      <point x="-17" y="66" type="line"/>
      <point x="-28" y="0" type="line"/>
      <point x="19" y="0" type="line" smooth="yes"/>
      <point x="51" y="0"/>
      <point x="82" y="7"/>
      <point x="109" y="34" type="curve"/>
      <point x="144" y="69"/>
      <point x="163" y="116"/>
      <point x="185" y="235" type="curve"/>
      <point x="262" y="235" type="line"/>
      <point x="224" y="0" type="line"/>
      <point x="295" y="0" type="line"/>
      <point x="333" y="235" type="line"/>
      <point x="412" y="235" type="line"/>
      <point x="410" y="221"/>
      <point x="407" y="185"/>
      <point x="407" y="147" type="curve"/>
      <point x="407" y="33"/>
      <point x="447" y="0"/>
      <point x="515" y="0" type="curve"/>
      <point x="547" y="0" type="line"/>
      <point x="558" y="66" type="line"/>
      <point x="486" y="66" type="line"/>
      <point x="477" y="85"/>
      <point x="472" y="111"/>
      <point x="472" y="144" type="curve"/>
      <point x="472" y="182"/>
      <point x="476" y="231"/>
      <point x="484" y="280" type="curve"/>
      <point x="498" y="365"/>
      <point x="520" y="420"/>
      <point x="542" y="450" type="curve"/>
      <point x="613" y="450" type="line"/>
      <point x="624" y="516" type="line"/>
      <point x="585" y="516" type="line" smooth="yes"/>
      <point x="553" y="516"/>
      <point x="522" y="509"/>
      <point x="495" y="482" type="curve"/>
      <point x="460" y="447"/>
      <point x="440" y="393"/>
      <point x="422" y="297" type="curve"/>
      <point x="344" y="297" type="line"/>
      <point x="380" y="516" type="line"/>
      <point x="309" y="516" type="line"/>
      <point x="273" y="297" type="line"/>
      <point x="194" y="297" type="line"/>
      <point x="196" y="321"/>
      <point x="197" y="341"/>
      <point x="197" y="369" type="curve"/>
      <point x="197" y="483"/>
      <point x="157" y="516"/>
      <point x="89" y="516" type="curve"/>
      <point x="65" y="516" type="line"/>
      <point x="54" y="450" type="line"/>
      <point x="118" y="450" type="line"/>
      <point x="127" y="431"/>
      <point x="132" y="405"/>
      <point x="132" y="372" type="curve"/>
      <point x="132" y="334"/>
      <point x="128" y="285"/>
      <point x="120" y="236" type="curve"/>
      <point x="106" y="151"/>
      <point x="84" y="96"/>
    </contour>
  </outline>
</glyph>
<glyph name="uni04CF" format="1">
  <advance width="600"/>
  <unicode hex="04CF"/>
  <note>
    uni04CF
  </note>
  <outline>
    <contour>
      <point x="131" y="673" type="line"/>
      <point x="313" y="673" type="line"/>
      <point x="183" y="0" type="line"/>
      <point x="446" y="0" type="line"/>
      <point x="457" y="67" type="line"/>
      <point x="275" y="67" type="line"/>
      <point x="405" y="740" type="line"/>
      <point x="142" y="740" type="line"/>
    </contour>
  </outline>
</glyph>
<glyph name="uni04D0" format="1">
  <advance width="600"/>
  <unicode hex="04D0"/>
  <note>
    uni04D0
  </note>
  <outline>
    <contour>
      <point x="387" y="765" type="curve"/>
      <point x="448" y="765"/>
      <point x="496" y="792"/>
      <point x="538" y="858" type="curve"/>
      <point x="574" y="915" type="line"/>
      <point x="504" y="938" type="line"/>
      <point x="446" y="832" type="line"/>
      <point x="431" y="827"/>
      <point x="408" y="826"/>
      <point x="389" y="826" type="curve"/>
      <point x="376" y="826"/>
      <point x="349" y="827"/>
      <point x="336" y="832" type="curve"/>
      <point x="314" y="938" type="line"/>
      <point x="240" y="915" type="line"/>
      <point x="260" y="858" type="line" smooth="yes"/>
      <point x="281" y="798"/>
      <point x="316" y="765"/>
    </contour>
    <contour>
      <point x="417" y="199" type="line"/>
      <point x="442" y="0" type="line"/>
      <point x="528" y="0" type="line"/>
      <point x="431" y="698" type="line"/>
      <point x="321" y="698" type="line"/>
      <point x="-9" y="0" type="line"/>
      <point x="79" y="0" type="line"/>
      <point x="171" y="199" type="line"/>
    </contour>
    <contour>
      <point x="357" y="614" type="line"/>
      <point x="366" y="614" type="line"/>
      <point x="409" y="272" type="line"/>
      <point x="202" y="272" type="line"/>
    </contour>
  </outline>
</glyph>
<glyph name="uni04D1" format="1">
  <advance width="600"/>
  <unicode hex="04D1"/>
  <note>
    uni04D1
  </note>
  <outline>
    <contour>
      <point x="335" y="595" type="curve"/>
      <point x="396" y="595"/>
      <point x="444" y="622"/>
      <point x="486" y="688" type="curve"/>
      <point x="522" y="745" type="line"/>
      <point x="452" y="768" type="line"/>
      <point x="394" y="662" type="line"/>
      <point x="379" y="657"/>
      <point x="356" y="656"/>
      <point x="337" y="656" type="curve"/>
      <point x="324" y="656"/>
      <point x="297" y="657"/>
      <point x="284" y="662" type="curve"/>
      <point x="262" y="768" type="line"/>
      <point x="188" y="745" type="line"/>
      <point x="208" y="688" type="line" smooth="yes"/>
      <point x="229" y="628"/>
      <point x="264" y="595"/>
    </contour>
    <contour>
      <point x="403" y="122" type="line"/>
      <point x="383" y="0" type="line"/>
      <point x="461" y="0" type="line"/>
      <point x="547" y="516" type="line"/>
      <point x="469" y="516" type="line"/>
      <point x="454" y="426" type="line"/>
      <point x="451" y="426" type="line"/>
      <point x="429" y="493"/>
      <point x="376" y="528"/>
      <point x="300" y="528" type="curve"/>
      <point x="118" y="528"/>
      <point x="56" y="326"/>
      <point x="56" y="188" type="curve"/>
      <point x="56" y="56"/>
      <point x="113" y="-12"/>
      <point x="217" y="-12" type="curve"/>
      <point x="308" y="-12"/>
      <point x="360" y="41"/>
      <point x="400" y="122" type="curve"/>
    </contour>
    <contour>
      <point x="244" y="57" type="curve"/>
      <point x="172" y="57"/>
      <point x="135" y="103"/>
      <point x="135" y="180" type="curve"/>
      <point x="135" y="193"/>
      <point x="136" y="207"/>
      <point x="139" y="225" type="curve"/>
      <point x="151" y="297" type="line" smooth="yes"/>
      <point x="167" y="393"/>
      <point x="224" y="459"/>
      <point x="323" y="459" type="curve"/>
      <point x="400" y="459"/>
      <point x="453" y="418"/>
      <point x="441" y="346" type="curve"/>
      <point x="422" y="232" type="line" smooth="yes"/>
      <point x="414" y="184"/>
      <point x="391" y="143"/>
      <point x="365" y="114" type="curve"/>
      <point x="329" y="74"/>
      <point x="287" y="57"/>
    </contour>
  </outline>
</glyph>
<glyph name="uni04D3" format="1">
  <advance width="600"/>
  <unicode hex="04D3"/>
  <note>
    uni04D3
  </note>
  <outline>
    <contour>
      <point x="246" y="619" type="curve"/>
      <point x="286" y="619"/>
      <point x="299" y="636"/>
      <point x="305" y="662" type="curve"/>
      <point x="307" y="671"/>
      <point x="309" y="680"/>
      <point x="309" y="687" type="curve"/>
      <point x="309" y="706"/>
      <point x="296" y="723"/>
      <point x="257" y="723" type="curve"/>
      <point x="217" y="723"/>
      <point x="204" y="706"/>
      <point x="198" y="680" type="curve"/>
      <point x="196" y="671"/>
      <point x="194" y="662"/>
      <point x="194" y="655" type="curve"/>
      <point x="194" y="636"/>
      <point x="207" y="619"/>
    </contour>
    <contour>
      <point x="432" y="619" type="curve"/>
      <point x="472" y="619"/>
      <point x="485" y="636"/>
      <point x="491" y="662" type="curve"/>
      <point x="493" y="671"/>
      <point x="495" y="680"/>
      <point x="495" y="687" type="curve"/>
      <point x="495" y="706"/>
      <point x="482" y="723"/>
      <point x="443" y="723" type="curve"/>
      <point x="403" y="723"/>
      <point x="390" y="706"/>
      <point x="384" y="680" type="curve"/>
      <point x="382" y="671"/>
      <point x="380" y="662"/>
      <point x="380" y="655" type="curve"/>
      <point x="380" y="636"/>
      <point x="393" y="619"/>
    </contour>
    <contour>
      <point x="403" y="122" type="line"/>
      <point x="383" y="0" type="line"/>
      <point x="461" y="0" type="line"/>
      <point x="547" y="516" type="line"/>
      <point x="469" y="516" type="line"/>
      <point x="454" y="426" type="line"/>
      <point x="451" y="426" type="line"/>
      <point x="429" y="493"/>
      <point x="376" y="528"/>
      <point x="300" y="528" type="curve"/>
      <point x="118" y="528"/>
      <point x="56" y="326"/>
      <point x="56" y="188" type="curve"/>
      <point x="56" y="56"/>
      <point x="113" y="-12"/>
      <point x="217" y="-12" type="curve"/>
      <point x="308" y="-12"/>
      <point x="360" y="41"/>
      <point x="400" y="122" type="curve"/>
    </contour>
    <contour>
      <point x="244" y="57" type="curve"/>
      <point x="172" y="57"/>
      <point x="135" y="103"/>
      <point x="135" y="180" type="curve"/>
      <point x="135" y="193"/>
      <point x="136" y="207"/>
      <point x="139" y="225" type="curve"/>
      <point x="151" y="297" type="line" smooth="yes"/>
      <point x="167" y="393"/>
      <point x="224" y="459"/>
      <point x="323" y="459" type="curve"/>
      <point x="400" y="459"/>
      <point x="453" y="418"/>
      <point x="441" y="346" type="curve"/>
      <point x="422" y="232" type="line" smooth="yes"/>
      <point x="414" y="184"/>
      <point x="391" y="143"/>
      <point x="365" y="114" type="curve"/>
      <point x="329" y="74"/>
      <point x="287" y="57"/>
    </contour>
  </outline>
</glyph>
<glyph name="uni04D6" format="1">
  <advance width="600"/>
  <unicode hex="04D6"/>
  <note>
    uni04D6
  </note>
  <outline>
    <contour>
      <point x="392" y="765" type="curve"/>
      <point x="453" y="765"/>
      <point x="501" y="792"/>
      <point x="543" y="858" type="curve"/>
      <point x="579" y="915" type="line"/>
      <point x="509" y="938" type="line"/>
      <point x="451" y="832" type="line"/>
      <point x="436" y="827"/>
      <point x="413" y="826"/>
      <point x="394" y="826" type="curve"/>
      <point x="381" y="826"/>
      <point x="354" y="827"/>
      <point x="341" y="832" type="curve"/>
      <point x="319" y="938" type="line"/>
      <point x="245" y="915" type="line"/>
      <point x="265" y="858" type="line" smooth="yes"/>
      <point x="286" y="798"/>
      <point x="321" y="765"/>
    </contour>
    <contour>
      <point x="164" y="698" type="line"/>
      <point x="47" y="0" type="line"/>
      <point x="477" y="0" type="line"/>
      <point x="489" y="72" type="line"/>
      <point x="141" y="72" type="line"/>
      <point x="182" y="318" type="line"/>
      <point x="517" y="318" type="line"/>
      <point x="529" y="390" type="line"/>
      <point x="194" y="390" type="line"/>
      <point x="234" y="626" type="line"/>
      <point x="580" y="626" type="line"/>
      <point x="592" y="698" type="line"/>
    </contour>
  </outline>
</glyph>
<glyph name="uni04D7" format="1">
  <advance width="600"/>
  <unicode hex="04D7"/>
  <note>
    uni04D7
  </note>
  <outline>
    <contour>
      <point x="369" y="595" type="curve"/>
      <point x="430" y="595"/>
      <point x="478" y="622"/>
      <point x="520" y="688" type="curve"/>
      <point x="556" y="745" type="line"/>
      <point x="486" y="768" type="line"/>
      <point x="428" y="662" type="line"/>
      <point x="413" y="657"/>
      <point x="390" y="656"/>
      <point x="371" y="656" type="curve"/>
      <point x="358" y="656"/>
      <point x="331" y="657"/>
      <point x="318" y="662" type="curve"/>
      <point x="296" y="768" type="line"/>
      <point x="222" y="745" type="line"/>
      <point x="242" y="688" type="line" smooth="yes"/>
      <point x="263" y="628"/>
      <point x="298" y="595"/>
    </contour>
    <contour>
      <point x="277" y="-12" type="curve"/>
      <point x="386" y="-12"/>
      <point x="456" y="40"/>
      <point x="514" y="135" type="curve"/>
      <point x="459" y="169" type="line"/>
      <point x="401" y="87"/>
      <point x="358" y="55"/>
      <point x="284" y="55" type="curve"/>
      <point x="176" y="55"/>
      <point x="155" y="122"/>
      <point x="155" y="194" type="curve"/>
      <point x="155" y="196"/>
      <point x="155" y="207"/>
      <point x="156" y="217" type="curve"/>
      <point x="485" y="226"/>
      <point x="532" y="316"/>
      <point x="532" y="389" type="curve"/>
      <point x="532" y="479"/>
      <point x="458" y="528"/>
      <point x="357" y="528" type="curve"/>
      <point x="191" y="528"/>
      <point x="73" y="396"/>
      <point x="73" y="209" type="curve"/>
      <point x="73" y="61"/>
      <point x="147" y="-12"/>
    </contour>
    <contour>
      <point x="350" y="463" type="curve"/>
      <point x="425" y="463"/>
      <point x="452" y="428"/>
      <point x="452" y="386" type="curve"/>
      <point x="452" y="336"/>
      <point x="414" y="279"/>
      <point x="162" y="271" type="curve"/>
      <point x="163" y="281" type="line" smooth="yes"/>
      <point x="178" y="398"/>
      <point x="246" y="463"/>
    </contour>
  </outline>
</glyph>
<glyph name="uni04DC" format="1">
  <advance width="600"/>
  <unicode hex="04DC"/>
  <note>
    uni04DC
  </note>
  <outline>
    <contour>
      <point x="300" y="789" type="curve"/>
      <point x="340" y="789"/>
      <point x="352" y="806"/>
      <point x="359" y="832" type="curve"/>
      <point x="361" y="839"/>
      <point x="363" y="850"/>
      <point x="363" y="857" type="curve"/>
      <point x="363" y="876"/>
      <point x="350" y="893"/>
      <point x="311" y="893" type="curve"/>
      <point x="271" y="893"/>
      <point x="259" y="876"/>
      <point x="252" y="850" type="curve"/>
      <point x="250" y="843"/>
      <point x="248" y="832"/>
      <point x="248" y="825" type="curve"/>
      <point x="248" y="806"/>
      <point x="261" y="789"/>
    </contour>
    <contour>
      <point x="486" y="789" type="curve"/>
      <point x="526" y="789"/>
      <point x="538" y="806"/>
      <point x="545" y="832" type="curve"/>
      <point x="547" y="839"/>
      <point x="549" y="850"/>
      <point x="549" y="857" type="curve"/>
      <point x="549" y="876"/>
      <point x="536" y="893"/>
      <point x="497" y="893" type="curve"/>
      <point x="457" y="893"/>
      <point x="445" y="876"/>
      <point x="438" y="850" type="curve"/>
      <point x="436" y="843"/>
      <point x="434" y="832"/>
      <point x="434" y="825" type="curve"/>
      <point x="434" y="806"/>
      <point x="447" y="789"/>
    </contour>
    <contour>
      <point x="95" y="274" type="curve"/>
      <point x="-33" y="0" type="line"/>
      <point x="53" y="0" type="line"/>
      <point x="202" y="318" type="line"/>
      <point x="271" y="318" type="line"/>
      <point x="217" y="0" type="line"/>
      <point x="297" y="0" type="line"/>
      <point x="350" y="318" type="line"/>
      <point x="419" y="318" type="line"/>
      <point x="467" y="0" type="line"/>
      <point x="547" y="0" type="line"/>
      <point x="506" y="275" type="line" smooth="yes"/>
      <point x="499" y="323"/>
      <point x="485" y="342"/>
      <point x="457" y="352" type="curve"/>
      <point x="458" y="357" type="line"/>
      <point x="489" y="363"/>
      <point x="509" y="384"/>
      <point x="528" y="428" type="curve"/>
      <point x="645" y="698" type="line"/>
      <point x="565" y="698" type="line"/>
      <point x="431" y="390" type="line"/>
      <point x="362" y="390" type="line"/>
      <point x="414" y="698" type="line"/>
      <point x="335" y="698" type="line"/>
      <point x="283" y="390" type="line"/>
      <point x="214" y="390" type="line"/>
      <point x="178" y="698" type="line"/>
      <point x="103" y="698" type="line"/>
      <point x="134" y="433" type="line" smooth="yes"/>
      <point x="139" y="389"/>
      <point x="150" y="369"/>
      <point x="176" y="357" type="curve"/>
      <point x="175" y="352" type="line"/>
      <point x="143" y="346"/>
      <point x="118" y="324"/>
    </contour>
  </outline>
</glyph>
<glyph name="uni04DF" format="1">
  <advance width="600"/>
  <unicode hex="04DF"/>
  <note>
    uni04DF
  </note>
  <outline>
    <contour>
      <point x="266" y="619" type="curve"/>
      <point x="306" y="619"/>
      <point x="319" y="636"/>
      <point x="325" y="662" type="curve"/>
      <point x="327" y="671"/>
      <point x="329" y="680"/>
      <point x="329" y="687" type="curve"/>
      <point x="329" y="706"/>
      <point x="316" y="723"/>
      <point x="277" y="723" type="curve"/>
      <point x="237" y="723"/>
      <point x="224" y="706"/>
      <point x="218" y="680" type="curve"/>
      <point x="216" y="671"/>
      <point x="214" y="662"/>
      <point x="214" y="655" type="curve"/>
      <point x="214" y="636"/>
      <point x="227" y="619"/>
    </contour>
    <contour>
      <point x="452" y="619" type="curve"/>
      <point x="492" y="619"/>
      <point x="505" y="636"/>
      <point x="511" y="662" type="curve"/>
      <point x="513" y="671"/>
      <point x="515" y="680"/>
      <point x="515" y="687" type="curve"/>
      <point x="515" y="706"/>
      <point x="502" y="723"/>
      <point x="463" y="723" type="curve"/>
      <point x="423" y="723"/>
      <point x="410" y="706"/>
      <point x="404" y="680" type="curve"/>
      <point x="402" y="671"/>
      <point x="400" y="662"/>
      <point x="400" y="655" type="curve"/>
      <point x="400" y="636"/>
      <point x="413" y="619"/>
    </contour>
    <contour>
      <point x="263" y="-12" type="curve"/>
      <point x="407" y="-12"/>
      <point x="494" y="68"/>
      <point x="494" y="167" type="curve"/>
      <point x="494" y="227"/>
      <point x="462" y="257"/>
      <point x="404" y="270" type="curve"/>
      <point x="404" y="274" type="line"/>
      <point x="480" y="293"/>
      <point x="520" y="338"/>
      <point x="520" y="397" type="curve"/>
      <point x="520" y="476"/>
      <point x="448" y="528"/>
      <point x="335" y="528" type="curve"/>
      <point x="239" y="528"/>
      <point x="171" y="490"/>
      <point x="113" y="432" type="curve"/>
      <point x="156" y="383" type="line"/>
      <point x="208" y="437"/>
      <point x="264" y="462"/>
      <point x="331" y="462" type="curve"/>
      <point x="401" y="462"/>
      <point x="437" y="434"/>
      <point x="437" y="394" type="curve"/>
      <point x="437" y="387"/>
      <point x="436" y="378"/>
      <point x="435" y="373" type="curve"/>
      <point x="427" y="329"/>
      <point x="376" y="300"/>
      <point x="314" y="300" type="curve"/>
      <point x="221" y="300" type="line"/>
      <point x="210" y="233" type="line"/>
      <point x="306" y="233" type="line" smooth="yes"/>
      <point x="374" y="233"/>
      <point x="409" y="211"/>
      <point x="409" y="167" type="curve"/>
      <point x="409" y="157"/>
      <point x="407" y="145"/>
      <point x="406" y="139" type="curve"/>
      <point x="397" y="89"/>
      <point x="355" y="54"/>
      <point x="270" y="54" type="curve"/>
      <point x="196" y="54"/>
      <point x="145" y="81"/>
      <point x="105" y="131" type="curve"/>
      <point x="47" y="85" type="line"/>
      <point x="92" y="23"/>
      <point x="167" y="-12"/>
    </contour>
  </outline>
</glyph>
<glyph name="uni04E2" format="1">
  <advance width="600"/>
  <unicode hex="04E2"/>
  <note>
    uni04E2
  </note>
  <outline>
    <contour>
      <point x="534" y="875" type="line"/>
      <point x="257" y="875" type="line"/>
      <point x="246" y="808" type="line"/>
      <point x="523" y="808" type="line"/>
    </contour>
    <contour>
      <point x="238" y="698" type="line"/>
      <point x="156" y="698" type="line"/>
      <point x="39" y="0" type="line"/>
      <point x="118" y="0" type="line"/>
      <point x="382" y="388" type="line"/>
      <point x="495" y="554" type="line"/>
      <point x="501" y="554" type="line"/>
      <point x="450" y="341" type="line"/>
      <point x="393" y="0" type="line"/>
      <point x="475" y="0" type="line"/>
      <point x="592" y="698" type="line"/>
      <point x="513" y="698" type="line"/>
      <point x="256" y="320" type="line"/>
      <point x="136" y="144" type="line"/>
      <point x="130" y="144" type="line"/>
      <point x="181" y="357" type="line"/>
    </contour>
  </outline>
</glyph>
<glyph name="uni04E4" format="1">
  <advance width="600"/>
  <unicode hex="04E4"/>
  <note>
    uni04E4
  </note>
  <outline>
    <contour>
      <point x="332" y="789"/>
      <point x="344" y="806"/>
      <point x="351" y="832" type="curve" smooth="yes"/>
      <point x="353" y="839"/>
      <point x="355" y="850"/>
      <point x="355" y="857" type="curve" smooth="yes"/>
      <point x="355" y="876"/>
      <point x="342" y="893"/>
      <point x="303" y="893" type="curve" smooth="yes"/>
      <point x="263" y="893"/>
      <point x="251" y="876"/>
      <point x="244" y="850" type="curve" smooth="yes"/>
      <point x="242" y="843"/>
      <point x="240" y="832"/>
      <point x="240" y="825" type="curve" smooth="yes"/>
      <point x="240" y="806"/>
      <point x="253" y="789"/>
      <point x="292" y="789" type="curve" smooth="yes"/>
    </contour>
    <contour>
      <point x="518" y="789"/>
      <point x="530" y="806"/>
      <point x="537" y="832" type="curve" smooth="yes"/>
      <point x="539" y="839"/>
      <point x="541" y="850"/>
      <point x="541" y="857" type="curve" smooth="yes"/>
      <point x="541" y="876"/>
      <point x="528" y="893"/>
      <point x="489" y="893" type="curve" smooth="yes"/>
      <point x="449" y="893"/>
      <point x="437" y="876"/>
      <point x="430" y="850" type="curve" smooth="yes"/>
      <point x="428" y="843"/>
      <point x="426" y="832"/>
      <point x="426" y="825" type="curve" smooth="yes"/>
      <point x="426" y="806"/>
      <point x="439" y="789"/>
      <point x="478" y="789" type="curve" smooth="yes"/>
    </contour>
    <contour>
      <point x="39" y="0" type="line"/>
      <point x="118" y="0" type="line"/>
      <point x="382" y="388" type="line"/>
      <point x="495" y="554" type="line"/>
      <point x="501" y="554" type="line"/>
      <point x="450" y="341" type="line"/>
      <point x="393" y="0" type="line"/>
      <point x="475" y="0" type="line"/>
      <point x="592" y="698" type="line"/>
      <point x="513" y="698" type="line"/>
      <point x="256" y="320" type="line"/>
      <point x="136" y="144" type="line"/>
      <point x="130" y="144" type="line"/>
      <point x="181" y="357" type="line"/>
      <point x="238" y="698" type="line"/>
      <point x="156" y="698" type="line"/>
    </contour>
  </outline>
</glyph>
<glyph name="uni04F0" format="1">
  <advance width="600"/>
  <unicode hex="04F0"/>
  <note>
    uni04F0
  </note>
  <outline>
    <contour>
      <point x="300" y="789" type="curve"/>
      <point x="340" y="789"/>
      <point x="352" y="806"/>
      <point x="359" y="832" type="curve"/>
      <point x="361" y="839"/>
      <point x="363" y="850"/>
      <point x="363" y="857" type="curve"/>
      <point x="363" y="876"/>
      <point x="350" y="893"/>
      <point x="311" y="893" type="curve"/>
      <point x="271" y="893"/>
      <point x="259" y="876"/>
      <point x="252" y="850" type="curve"/>
      <point x="250" y="843"/>
      <point x="248" y="832"/>
      <point x="248" y="825" type="curve"/>
      <point x="248" y="806"/>
      <point x="261" y="789"/>
    </contour>
    <contour>
      <point x="486" y="789" type="curve"/>
      <point x="526" y="789"/>
      <point x="538" y="806"/>
      <point x="545" y="832" type="curve"/>
      <point x="547" y="839"/>
      <point x="549" y="850"/>
      <point x="549" y="857" type="curve"/>
      <point x="549" y="876"/>
      <point x="536" y="893"/>
      <point x="497" y="893" type="curve"/>
      <point x="457" y="893"/>
      <point x="445" y="876"/>
      <point x="438" y="850" type="curve"/>
      <point x="436" y="843"/>
      <point x="434" y="832"/>
      <point x="434" y="825" type="curve"/>
      <point x="434" y="806"/>
      <point x="447" y="789"/>
    </contour>
    <contour>
      <point x="215" y="72" type="line"/>
      <point x="115" y="72" type="line"/>
      <point x="103" y="0" type="line"/>
      <point x="164" y="0" type="line" smooth="yes"/>
      <point x="234" y="0"/>
      <point x="265" y="15"/>
      <point x="301" y="82" type="curve"/>
      <point x="637" y="698" type="line"/>
      <point x="551" y="698" type="line"/>
      <point x="385" y="386" type="line"/>
      <point x="316" y="251" type="line"/>
      <point x="314" y="251" type="line"/>
      <point x="283" y="389" type="line"/>
      <point x="203" y="698" type="line"/>
      <point x="124" y="698" type="line"/>
      <point x="264" y="163" type="line"/>
    </contour>
  </outline>
</glyph>
<glyph name="uni04F4" format="1">
  <advance width="600"/>
  <unicode hex="04F4"/>
  <note>
    uni04F4
  </note>
  <outline>
    <contour>
      <point x="287" y="789" type="curve"/>
      <point x="327" y="789"/>
      <point x="339" y="806"/>
      <point x="346" y="832" type="curve"/>
      <point x="348" y="839"/>
      <point x="350" y="850"/>
      <point x="350" y="857" type="curve"/>
      <point x="350" y="876"/>
      <point x="337" y="893"/>
      <point x="298" y="893" type="curve"/>
      <point x="258" y="893"/>
      <point x="246" y="876"/>
      <point x="239" y="850" type="curve"/>
      <point x="237" y="843"/>
      <point x="235" y="832"/>
      <point x="235" y="825" type="curve"/>
      <point x="235" y="806"/>
      <point x="248" y="789"/>
    </contour>
    <contour>
      <point x="473" y="789" type="curve"/>
      <point x="513" y="789"/>
      <point x="525" y="806"/>
      <point x="532" y="832" type="curve"/>
      <point x="534" y="839"/>
      <point x="536" y="850"/>
      <point x="536" y="857" type="curve"/>
      <point x="536" y="876"/>
      <point x="523" y="893"/>
      <point x="484" y="893" type="curve"/>
      <point x="444" y="893"/>
      <point x="432" y="876"/>
      <point x="425" y="850" type="curve"/>
      <point x="423" y="843"/>
      <point x="421" y="832"/>
      <point x="421" y="825" type="curve"/>
      <point x="421" y="806"/>
      <point x="434" y="789"/>
    </contour>
    <contour>
      <point x="427" y="275" type="curve"/>
      <point x="431" y="275" type="line"/>
      <point x="385" y="0" type="line"/>
      <point x="467" y="0" type="line"/>
      <point x="584" y="698" type="line"/>
      <point x="502" y="698" type="line"/>
      <point x="443" y="349" type="line"/>
      <point x="399" y="334"/>
      <point x="356" y="324"/>
      <point x="298" y="324" type="curve"/>
      <point x="229" y="324"/>
      <point x="181" y="338"/>
      <point x="181" y="434" type="curve"/>
      <point x="181" y="458"/>
      <point x="184" y="486"/>
      <point x="188" y="510" type="curve"/>
      <point x="220" y="698" type="line"/>
      <point x="138" y="698" type="line"/>
      <point x="109" y="526" type="line" smooth="yes"/>
      <point x="104" y="494"/>
      <point x="100" y="461"/>
      <point x="100" y="429" type="curve"/>
      <point x="100" y="316"/>
      <point x="150" y="252"/>
      <point x="289" y="252" type="curve"/>
      <point x="341" y="252"/>
      <point x="386" y="261"/>
    </contour>
  </outline>
</glyph>
<glyph name="uni04F5" format="1">
  <advance width="600"/>
  <unicode hex="04F5"/>
  <note>
    uni04F5
  </note>
  <outline>
    <contour>
      <point x="255" y="619" type="curve"/>
      <point x="295" y="619"/>
      <point x="308" y="636"/>
      <point x="314" y="662" type="curve"/>
      <point x="316" y="671"/>
      <point x="318" y="680"/>
      <point x="318" y="687" type="curve"/>
      <point x="318" y="706"/>
      <point x="305" y="723"/>
      <point x="266" y="723" type="curve"/>
      <point x="226" y="723"/>
      <point x="213" y="706"/>
      <point x="207" y="680" type="curve"/>
      <point x="205" y="671"/>
      <point x="203" y="662"/>
      <point x="203" y="655" type="curve"/>
      <point x="203" y="636"/>
      <point x="216" y="619"/>
    </contour>
    <contour>
      <point x="441" y="619" type="curve"/>
      <point x="481" y="619"/>
      <point x="494" y="636"/>
      <point x="500" y="662" type="curve"/>
      <point x="502" y="671"/>
      <point x="504" y="680"/>
      <point x="504" y="687" type="curve"/>
      <point x="504" y="706"/>
      <point x="491" y="723"/>
      <point x="452" y="723" type="curve"/>
      <point x="412" y="723"/>
      <point x="399" y="706"/>
      <point x="393" y="680" type="curve"/>
      <point x="391" y="671"/>
      <point x="389" y="662"/>
      <point x="389" y="655" type="curve"/>
      <point x="389" y="636"/>
      <point x="402" y="619"/>
    </contour>
    <contour>
      <point x="406" y="277" type="curve"/>
      <point x="411" y="277" type="line"/>
      <point x="366" y="0" type="line"/>
      <point x="443" y="0" type="line"/>
      <point x="530" y="516" type="line"/>
      <point x="452" y="516" type="line"/>
      <point x="428" y="375" type="line" smooth="yes"/>
      <point x="418" y="315"/>
      <point x="362" y="245"/>
      <point x="265" y="245" type="curve"/>
      <point x="208" y="245"/>
      <point x="174" y="269"/>
      <point x="174" y="313" type="curve"/>
      <point x="174" y="321"/>
      <point x="175" y="339"/>
      <point x="178" y="359" type="curve"/>
      <point x="205" y="516" type="line"/>
      <point x="127" y="516" type="line"/>
      <point x="101" y="359" type="line" smooth="yes"/>
      <point x="97" y="334"/>
      <point x="95" y="310"/>
      <point x="95" y="297" type="curve"/>
      <point x="95" y="228"/>
      <point x="156" y="175"/>
      <point x="248" y="175" type="curve"/>
      <point x="322" y="175"/>
      <point x="370" y="210"/>
    </contour>
  </outline>
</glyph>
<glyph name="uni1EA6" format="1">
  <advance width="600"/>
  <unicode hex="1EA6"/>
  <outline>
    <contour>
      <point x="253" y="1075" type="line"/>
      <point x="182" y="1049" type="line"/>
      <point x="257" y="883" type="line"/>
      <point x="305" y="901" type="line"/>
    </contour>
    <contour>
      <point x="548" y="778" type="line"/>
      <point x="461" y="925" type="line"/>
      <point x="363" y="925" type="line"/>
      <point x="230" y="784" type="line"/>
      <point x="269" y="751" type="line"/>
      <point x="406" y="868" type="line"/>
      <point x="502" y="751" type="line"/>
    </contour>
    <contour>
      <point x="417" y="199" type="line"/>
      <point x="442" y="0" type="line"/>
      <point x="528" y="0" type="line"/>
      <point x="431" y="698" type="line"/>
      <point x="321" y="698" type="line"/>
      <point x="-9" y="0" type="line"/>
      <point x="79" y="0" type="line"/>
      <point x="171" y="199" type="line"/>
    </contour>
    <contour>
      <point x="357" y="614" type="line"/>
      <point x="366" y="614" type="line"/>
      <point x="409" y="272" type="line"/>
      <point x="202" y="272" type="line"/>
    </contour>
  </outline>
</glyph>
<glyph name="uni1EA8" format="1">
  <advance width="600"/>
  <unicode hex="1EA8"/>
  <outline>
    <contour>
      <point x="581" y="1065" type="curve"/>
      <point x="480" y="1065" type="line"/>
      <point x="469" y="1004" type="line"/>
      <point x="584" y="1004" type="line"/>
      <point x="513" y="904" type="line"/>
      <point x="555" y="877" type="line"/>
      <point x="611" y="940" type="line" smooth="yes"/>
      <point x="634" y="966"/>
      <point x="648" y="990"/>
      <point x="648" y="1014" type="curve"/>
      <point x="648" y="1042"/>
      <point x="628" y="1065"/>
    </contour>
    <contour>
      <point x="549" y="778" type="line"/>
      <point x="462" y="925" type="line"/>
      <point x="364" y="925" type="line"/>
      <point x="231" y="784" type="line"/>
      <point x="270" y="751" type="line"/>
      <point x="407" y="868" type="line"/>
      <point x="503" y="751" type="line"/>
    </contour>
    <contour>
      <point x="417" y="199" type="line"/>
      <point x="442" y="0" type="line"/>
      <point x="528" y="0" type="line"/>
      <point x="431" y="698" type="line"/>
      <point x="321" y="698" type="line"/>
      <point x="-9" y="0" type="line"/>
      <point x="79" y="0" type="line"/>
      <point x="171" y="199" type="line"/>
    </contour>
    <contour>
      <point x="357" y="614" type="line"/>
      <point x="366" y="614" type="line"/>
      <point x="409" y="272" type="line"/>
      <point x="202" y="272" type="line"/>
    </contour>
  </outline>
</glyph>
<glyph name="uni1EB6" format="1">
  <advance width="600"/>
  <unicode hex="1EB6"/>
  <outline>
    <contour>
      <point x="239" y="-171" type="curve"/>
      <point x="279" y="-171"/>
      <point x="291" y="-153"/>
      <point x="298" y="-128" type="curve"/>
      <point x="300" y="-121"/>
      <point x="302" y="-109"/>
      <point x="302" y="-102" type="curve"/>
      <point x="302" y="-83"/>
      <point x="288" y="-66"/>
      <point x="250" y="-66" type="curve"/>
      <point x="210" y="-66"/>
      <point x="198" y="-84"/>
      <point x="191" y="-109" type="curve"/>
      <point x="189" y="-116"/>
      <point x="187" y="-128"/>
      <point x="187" y="-135" type="curve"/>
      <point x="187" y="-154"/>
      <point x="201" y="-171"/>
    </contour>
    <contour>
      <point x="389" y="765" type="curve"/>
      <point x="494" y="765"/>
      <point x="541" y="854"/>
      <point x="570" y="916" type="curve"/>
      <point x="520" y="937" type="line"/>
      <point x="493" y="903" type="line" smooth="yes"/>
      <point x="450" y="849"/>
      <point x="433" y="828"/>
      <point x="391" y="828" type="curve"/>
      <point x="346" y="828"/>
      <point x="333" y="853"/>
      <point x="311" y="903" type="curve"/>
      <point x="296" y="937" type="line"/>
      <point x="248" y="916" type="line"/>
      <point x="257" y="855"/>
      <point x="283" y="765"/>
    </contour>
    <contour>
      <point x="417" y="199" type="line"/>
      <point x="442" y="0" type="line"/>
      <point x="528" y="0" type="line"/>
      <point x="431" y="698" type="line"/>
      <point x="321" y="698" type="line"/>
      <point x="-9" y="0" type="line"/>
      <point x="79" y="0" type="line"/>
      <point x="171" y="199" type="line"/>
    </contour>
    <contour>
      <point x="357" y="614" type="line"/>
      <point x="366" y="614" type="line"/>
      <point x="409" y="272" type="line"/>
      <point x="202" y="272" type="line"/>
    </contour>
  </outline>
</glyph>
<glyph name="uni1EB8" format="1">
  <advance width="600"/>
  <unicode hex="1EB8"/>
  <outline>
    <contour>
      <point x="254" y="-171" type="curve"/>
      <point x="294" y="-171"/>
      <point x="306" y="-153"/>
      <point x="313" y="-128" type="curve"/>
      <point x="315" y="-121"/>
      <point x="317" y="-109"/>
      <point x="317" y="-102" type="curve"/>
      <point x="317" y="-83"/>
      <point x="303" y="-66"/>
      <point x="265" y="-66" type="curve"/>
      <point x="225" y="-66"/>
      <point x="213" y="-84"/>
      <point x="206" y="-109" type="curve"/>
      <point x="204" y="-116"/>
      <point x="202" y="-128"/>
      <point x="202" y="-135" type="curve"/>
      <point x="202" y="-154"/>
      <point x="216" y="-171"/>
    </contour>
    <contour>
      <point x="164" y="698" type="line"/>
      <point x="47" y="0" type="line"/>
      <point x="477" y="0" type="line"/>
      <point x="489" y="72" type="line"/>
      <point x="141" y="72" type="line"/>
      <point x="182" y="318" type="line"/>
      <point x="517" y="318" type="line"/>
      <point x="529" y="390" type="line"/>
      <point x="194" y="390" type="line"/>
      <point x="234" y="626" type="line"/>
      <point x="580" y="626" type="line"/>
      <point x="592" y="698" type="line"/>
    </contour>
  </outline>
</glyph>
<glyph name="uni1EBA" format="1">
  <advance width="600"/>
  <unicode hex="1EBA"/>
  <outline>
    <contour>
      <point x="439" y="935" type="curve"/>
      <point x="337" y="935" type="line"/>
      <point x="327" y="874" type="line"/>
      <point x="442" y="874" type="line"/>
      <point x="371" y="774" type="line"/>
      <point x="414" y="747" type="line"/>
      <point x="454" y="789" type="line" smooth="yes"/>
      <point x="487" y="823"/>
      <point x="506" y="853"/>
      <point x="506" y="883" type="curve"/>
      <point x="506" y="913"/>
      <point x="486" y="935"/>
    </contour>
    <contour>
      <point x="164" y="698" type="line"/>
      <point x="47" y="0" type="line"/>
      <point x="477" y="0" type="line"/>
      <point x="489" y="72" type="line"/>
      <point x="141" y="72" type="line"/>
      <point x="182" y="318" type="line"/>
      <point x="517" y="318" type="line"/>
      <point x="529" y="390" type="line"/>
      <point x="194" y="390" type="line"/>
      <point x="234" y="626" type="line"/>
      <point x="580" y="626" type="line"/>
      <point x="592" y="698" type="line"/>
    </contour>
  </outline>
</glyph>
<glyph name="uni1EC9" format="1">
  <advance width="600"/>
  <unicode hex="1EC9"/>
  <outline>
    <contour>
      <point x="376" y="765" type="curve"/>
      <point x="274" y="765" type="line"/>
      <point x="264" y="704" type="line"/>
      <point x="379" y="704" type="line"/>
      <point x="308" y="604" type="line"/>
      <point x="351" y="577" type="line"/>
      <point x="391" y="619" type="line" smooth="yes"/>
      <point x="424" y="653"/>
      <point x="443" y="683"/>
      <point x="443" y="713" type="curve"/>
      <point x="443" y="743"/>
      <point x="423" y="765"/>
    </contour>
    <contour>
      <point x="272" y="-12" type="curve"/>
      <point x="317" y="-12"/>
      <point x="354" y="12"/>
      <point x="448" y="99" type="curve"/>
      <point x="539" y="183" type="line"/>
      <point x="492" y="227" type="line"/>
      <point x="295" y="57" type="line"/>
      <point x="272" y="66" type="line"/>
      <point x="359" y="516" type="line"/>
      <point x="93" y="516" type="line"/>
      <point x="82" y="449" type="line"/>
      <point x="268" y="449" type="line"/>
      <point x="200" y="97" type="line" smooth="yes"/>
      <point x="198" y="85"/>
      <point x="195" y="70"/>
      <point x="195" y="57" type="curve"/>
      <point x="195" y="17"/>
      <point x="222" y="-12"/>
    </contour>
  </outline>
</glyph>
<glyph name="uni1ECC" format="1">
  <advance width="600"/>
  <unicode hex="1ECC"/>
  <outline>
    <contour>
      <point x="238" y="-171" type="curve"/>
      <point x="278" y="-171"/>
      <point x="290" y="-153"/>
      <point x="297" y="-128" type="curve"/>
      <point x="299" y="-121"/>
      <point x="301" y="-109"/>
      <point x="301" y="-102" type="curve"/>
      <point x="301" y="-83"/>
      <point x="287" y="-66"/>
      <point x="249" y="-66" type="curve"/>
      <point x="209" y="-66"/>
      <point x="197" y="-84"/>
      <point x="190" y="-109" type="curve"/>
      <point x="188" y="-116"/>
      <point x="186" y="-128"/>
      <point x="186" y="-135" type="curve"/>
      <point x="186" y="-154"/>
      <point x="200" y="-171"/>
    </contour>
    <contour>
      <point x="260" y="-12" type="curve"/>
      <point x="510" y="-12"/>
      <point x="570" y="297"/>
      <point x="570" y="473" type="curve"/>
      <point x="570" y="625"/>
      <point x="508" y="710"/>
      <point x="372" y="710" type="curve"/>
      <point x="122" y="710"/>
      <point x="62" y="401"/>
      <point x="62" y="225" type="curve"/>
      <point x="62" y="73"/>
      <point x="124" y="-12"/>
    </contour>
    <contour>
      <point x="266" y="60" type="curve"/>
      <point x="178" y="60"/>
      <point x="143" y="115"/>
      <point x="143" y="210" type="curve"/>
      <point x="143" y="233"/>
      <point x="145" y="262"/>
      <point x="150" y="292" type="curve"/>
      <point x="169" y="406" type="line" smooth="yes"/>
      <point x="193" y="549"/>
      <point x="259" y="638"/>
      <point x="366" y="638" type="curve"/>
      <point x="454" y="638"/>
      <point x="489" y="583"/>
      <point x="489" y="488" type="curve"/>
      <point x="489" y="465"/>
      <point x="487" y="436"/>
      <point x="482" y="406" type="curve"/>
      <point x="463" y="292" type="line" smooth="yes"/>
      <point x="439" y="149"/>
      <point x="373" y="60"/>
    </contour>
  </outline>
</glyph>
<glyph name="uni1ECF" format="1">
  <advance width="600"/>
  <unicode hex="1ECF"/>
  <outline>
    <contour>
      <point x="403" y="765" type="curve"/>
      <point x="301" y="765" type="line"/>
      <point x="291" y="704" type="line"/>
      <point x="406" y="704" type="line"/>
      <point x="335" y="604" type="line"/>
      <point x="378" y="577" type="line"/>
      <point x="418" y="619" type="line" smooth="yes"/>
      <point x="451" y="653"/>
      <point x="470" y="683"/>
      <point x="470" y="713" type="curve"/>
      <point x="470" y="743"/>
      <point x="450" y="765"/>
    </contour>
    <contour>
      <point x="265" y="-12" type="curve"/>
      <point x="417" y="-12"/>
      <point x="536" y="113"/>
      <point x="536" y="310" type="curve"/>
      <point x="536" y="439"/>
      <point x="468" y="528"/>
      <point x="334" y="528" type="curve"/>
      <point x="183" y="528"/>
      <point x="64" y="403"/>
      <point x="64" y="206" type="curve"/>
      <point x="64" y="77"/>
      <point x="133" y="-12"/>
    </contour>
    <contour>
      <point x="269" y="56" type="curve"/>
      <point x="192" y="56"/>
      <point x="143" y="96"/>
      <point x="143" y="183" type="curve"/>
      <point x="143" y="195"/>
      <point x="144" y="210"/>
      <point x="148" y="234" type="curve"/>
      <point x="158" y="294" type="line" smooth="yes"/>
      <point x="175" y="396"/>
      <point x="234" y="460"/>
      <point x="331" y="460" type="curve"/>
      <point x="408" y="460"/>
      <point x="457" y="420"/>
      <point x="457" y="333" type="curve"/>
      <point x="457" y="321"/>
      <point x="456" y="306"/>
      <point x="452" y="282" type="curve"/>
      <point x="442" y="222" type="line" smooth="yes"/>
      <point x="425" y="120"/>
      <point x="366" y="56"/>
    </contour>
  </outline>
</glyph>
<glyph name="uni1ED7" format="1">
  <advance width="600"/>
  <unicode hex="1ED7"/>
  <outline>
    <contour>
      <point x="331" y="894" type="curve"/>
      <point x="289" y="894"/>
      <point x="254" y="868"/>
      <point x="232" y="842" type="curve"/>
      <point x="260" y="801" type="line"/>
      <point x="283" y="819"/>
      <point x="302" y="830"/>
      <point x="323" y="830" type="curve"/>
      <point x="342" y="830"/>
      <point x="364" y="821"/>
      <point x="387" y="807" type="curve"/>
      <point x="407" y="795"/>
      <point x="430" y="779"/>
      <point x="463" y="779" type="curve"/>
      <point x="505" y="779"/>
      <point x="540" y="805"/>
      <point x="562" y="831" type="curve"/>
      <point x="534" y="872" type="line"/>
      <point x="511" y="854"/>
      <point x="492" y="843"/>
      <point x="471" y="843" type="curve"/>
      <point x="452" y="843"/>
      <point x="430" y="852"/>
      <point x="407" y="866" type="curve"/>
      <point x="387" y="878"/>
      <point x="364" y="894"/>
    </contour>
    <contour>
      <point x="520" y="606" type="line"/>
      <point x="432" y="745" type="line"/>
      <point x="333" y="745" type="line"/>
      <point x="201" y="616" type="line"/>
      <point x="240" y="581" type="line"/>
      <point x="375" y="692" type="line"/>
      <point x="473" y="581" type="line"/>
    </contour>
    <contour>
      <point x="265" y="-12" type="curve"/>
      <point x="417" y="-12"/>
      <point x="536" y="113"/>
      <point x="536" y="310" type="curve"/>
      <point x="536" y="439"/>
      <point x="468" y="528"/>
      <point x="334" y="528" type="curve"/>
      <point x="183" y="528"/>
      <point x="64" y="403"/>
      <point x="64" y="206" type="curve"/>
      <point x="64" y="77"/>
      <point x="133" y="-12"/>
    </contour>
    <contour>
      <point x="269" y="56" type="curve"/>
      <point x="192" y="56"/>
      <point x="143" y="96"/>
      <point x="143" y="183" type="curve"/>
      <point x="143" y="195"/>
      <point x="144" y="210"/>
      <point x="148" y="234" type="curve"/>
      <point x="158" y="294" type="line" smooth="yes"/>
      <point x="175" y="396"/>
      <point x="234" y="460"/>
      <point x="331" y="460" type="curve"/>
      <point x="408" y="460"/>
      <point x="457" y="420"/>
      <point x="457" y="333" type="curve"/>
      <point x="457" y="321"/>
      <point x="456" y="306"/>
      <point x="452" y="282" type="curve"/>
      <point x="442" y="222" type="line" smooth="yes"/>
      <point x="425" y="120"/>
      <point x="366" y="56"/>
    </contour>
  </outline>
</glyph>
<glyph name="uni1EDD" format="1">
  <advance width="600"/>
  <unicode hex="1EDD"/>
  <outline>
    <contour>
      <point x="346" y="779" type="line"/>
      <point x="272" y="752" type="line"/>
      <point x="347" y="585" type="line"/>
      <point x="398" y="605" type="line"/>
    </contour>
    <contour>
      <point x="581" y="526" type="curve"/>
      <point x="598" y="627" type="line"/>
      <point x="529" y="627" type="line"/>
      <point x="511" y="516" type="line"/>
      <point x="411" y="516" type="line"/>
      <point x="389" y="524"/>
      <point x="363" y="528"/>
      <point x="334" y="528" type="curve"/>
      <point x="183" y="528"/>
      <point x="64" y="403"/>
      <point x="64" y="206" type="curve"/>
      <point x="64" y="77"/>
      <point x="133" y="-12"/>
      <point x="265" y="-12" type="curve"/>
      <point x="417" y="-12"/>
      <point x="536" y="113"/>
      <point x="536" y="310" type="curve"/>
      <point x="536" y="376"/>
      <point x="519" y="430"/>
      <point x="482" y="468" type="curve"/>
      <point x="508" y="468" type="line" smooth="yes"/>
      <point x="557" y="468"/>
      <point x="575" y="492"/>
    </contour>
    <contour>
      <point x="269" y="56" type="curve"/>
      <point x="192" y="56"/>
      <point x="143" y="96"/>
      <point x="143" y="183" type="curve"/>
      <point x="143" y="195"/>
      <point x="144" y="210"/>
      <point x="148" y="234" type="curve"/>
      <point x="158" y="294" type="line" smooth="yes"/>
      <point x="175" y="396"/>
      <point x="234" y="460"/>
      <point x="331" y="460" type="curve"/>
      <point x="408" y="460"/>
      <point x="457" y="420"/>
      <point x="457" y="333" type="curve"/>
      <point x="457" y="321"/>
      <point x="456" y="306"/>
      <point x="452" y="282" type="curve"/>
      <point x="442" y="222" type="line" smooth="yes"/>
      <point x="425" y="120"/>
      <point x="366" y="56"/>
    </contour>
  </outline>
</glyph>
<glyph name="uni1EE0" format="1">
  <advance width="600"/>
  <unicode hex="1EE0"/>
  <outline>
    <contour>
      <point x="446" y="786" type="curve"/>
      <point x="488" y="786"/>
      <point x="521" y="811"/>
      <point x="543" y="837" type="curve"/>
      <point x="512" y="877" type="line"/>
      <point x="491" y="860"/>
      <point x="472" y="850"/>
      <point x="451" y="850" type="curve"/>
      <point x="434" y="850"/>
      <point x="418" y="858"/>
      <point x="396" y="870" type="curve"/>
      <point x="374" y="882"/>
      <point x="360" y="894"/>
      <point x="332" y="894" type="curve"/>
      <point x="290" y="894"/>
      <point x="257" y="869"/>
      <point x="235" y="843" type="curve"/>
      <point x="266" y="803" type="line"/>
      <point x="287" y="820"/>
      <point x="306" y="830"/>
      <point x="327" y="830" type="curve"/>
      <point x="344" y="830"/>
      <point x="360" y="822"/>
      <point x="382" y="810" type="curve"/>
      <point x="404" y="798"/>
      <point x="418" y="786"/>
    </contour>
    <contour>
      <point x="604" y="708" type="curve"/>
      <point x="621" y="809" type="line"/>
      <point x="552" y="809" type="line"/>
      <point x="534" y="698" type="line"/>
      <point x="451" y="698" type="line"/>
      <point x="428" y="706"/>
      <point x="402" y="710"/>
      <point x="372" y="710" type="curve"/>
      <point x="122" y="710"/>
      <point x="62" y="401"/>
      <point x="62" y="225" type="curve"/>
      <point x="62" y="73"/>
      <point x="124" y="-12"/>
      <point x="260" y="-12" type="curve"/>
      <point x="510" y="-12"/>
      <point x="570" y="297"/>
      <point x="570" y="473" type="curve"/>
      <point x="570" y="547"/>
      <point x="556" y="605"/>
      <point x="518" y="646" type="curve"/>
      <point x="532" y="646" type="line" smooth="yes"/>
      <point x="581" y="646"/>
      <point x="598" y="674"/>
    </contour>
    <contour>
      <point x="266" y="60" type="curve"/>
      <point x="178" y="60"/>
      <point x="143" y="115"/>
      <point x="143" y="210" type="curve"/>
      <point x="143" y="233"/>
      <point x="145" y="262"/>
      <point x="150" y="292" type="curve"/>
      <point x="169" y="406" type="line" smooth="yes"/>
      <point x="193" y="549"/>
      <point x="259" y="638"/>
      <point x="366" y="638" type="curve"/>
      <point x="454" y="638"/>
      <point x="489" y="583"/>
      <point x="489" y="488" type="curve"/>
      <point x="489" y="465"/>
      <point x="487" y="436"/>
      <point x="482" y="406" type="curve"/>
      <point x="463" y="292" type="line" smooth="yes"/>
      <point x="439" y="149"/>
      <point x="373" y="60"/>
    </contour>
  </outline>
</glyph>
<glyph name="uni1EE1" format="1">
  <advance width="600"/>
  <unicode hex="1EE1"/>
  <outline>
    <contour>
      <point x="424" y="616" type="curve"/>
      <point x="466" y="616"/>
      <point x="499" y="641"/>
      <point x="521" y="667" type="curve"/>
      <point x="490" y="707" type="line"/>
      <point x="469" y="690"/>
      <point x="450" y="680"/>
      <point x="429" y="680" type="curve"/>
      <point x="412" y="680"/>
      <point x="396" y="688"/>
      <point x="374" y="700" type="curve"/>
      <point x="352" y="712"/>
      <point x="338" y="724"/>
      <point x="310" y="724" type="curve"/>
      <point x="268" y="724"/>
      <point x="235" y="699"/>
      <point x="213" y="673" type="curve"/>
      <point x="244" y="633" type="line"/>
      <point x="265" y="650"/>
      <point x="284" y="660"/>
      <point x="305" y="660" type="curve"/>
      <point x="322" y="660"/>
      <point x="338" y="652"/>
      <point x="360" y="640" type="curve"/>
      <point x="382" y="628"/>
      <point x="396" y="616"/>
    </contour>
    <contour>
      <point x="581" y="526" type="curve"/>
      <point x="598" y="627" type="line"/>
      <point x="529" y="627" type="line"/>
      <point x="511" y="516" type="line"/>
      <point x="411" y="516" type="line"/>
      <point x="389" y="524"/>
      <point x="363" y="528"/>
      <point x="334" y="528" type="curve"/>
      <point x="183" y="528"/>
      <point x="64" y="403"/>
      <point x="64" y="206" type="curve"/>
      <point x="64" y="77"/>
      <point x="133" y="-12"/>
      <point x="265" y="-12" type="curve"/>
      <point x="417" y="-12"/>
      <point x="536" y="113"/>
      <point x="536" y="310" type="curve"/>
      <point x="536" y="376"/>
      <point x="519" y="430"/>
      <point x="482" y="468" type="curve"/>
      <point x="508" y="468" type="line" smooth="yes"/>
      <point x="557" y="468"/>
      <point x="575" y="492"/>
    </contour>
    <contour>
      <point x="269" y="56" type="curve"/>
      <point x="192" y="56"/>
      <point x="143" y="96"/>
      <point x="143" y="183" type="curve"/>
      <point x="143" y="195"/>
      <point x="144" y="210"/>
      <point x="148" y="234" type="curve"/>
      <point x="158" y="294" type="line" smooth="yes"/>
      <point x="175" y="396"/>
      <point x="234" y="460"/>
      <point x="331" y="460" type="curve"/>
      <point x="408" y="460"/>
      <point x="457" y="420"/>
      <point x="457" y="333" type="curve"/>
      <point x="457" y="321"/>
      <point x="456" y="306"/>
      <point x="452" y="282" type="curve"/>
      <point x="442" y="222" type="line" smooth="yes"/>
      <point x="425" y="120"/>
      <point x="366" y="56"/>
    </contour>
  </outline>
</glyph>
<glyph name="uni1EEA" format="1">
  <advance width="600"/>
  <unicode hex="1EEA"/>
  <outline>
    <contour>
      <point x="370" y="949" type="line"/>
      <point x="297" y="918" type="line"/>
      <point x="371" y="755" type="line"/>
      <point x="422" y="775" type="line"/>
    </contour>
    <contour>
      <point x="169" y="298" type="curve"/>
      <point x="236" y="698" type="line"/>
      <point x="154" y="698" type="line"/>
      <point x="91" y="323" type="line" smooth="yes"/>
      <point x="82" y="269"/>
      <point x="73" y="209"/>
      <point x="73" y="166" type="curve"/>
      <point x="73" y="52"/>
      <point x="126" y="-12"/>
      <point x="269" y="-12" type="curve"/>
      <point x="452" y="-12"/>
      <point x="489" y="84"/>
      <point x="524" y="291" type="curve"/>
      <point x="583" y="646" type="line"/>
      <point x="602" y="646" type="line" smooth="yes"/>
      <point x="651" y="646"/>
      <point x="668" y="674"/>
      <point x="674" y="708" type="curve"/>
      <point x="691" y="809" type="line"/>
      <point x="622" y="809" type="line"/>
      <point x="604" y="698" type="line"/>
      <point x="510" y="698" type="line"/>
      <point x="439" y="274" type="line" smooth="yes"/>
      <point x="416" y="137"/>
      <point x="398" y="60"/>
      <point x="266" y="60" type="curve"/>
      <point x="177" y="60"/>
      <point x="154" y="104"/>
      <point x="154" y="173" type="curve"/>
      <point x="154" y="198"/>
      <point x="157" y="226"/>
    </contour>
  </outline>
</glyph>
<glyph name="uni1EF0" format="1">
  <advance width="600"/>
  <unicode hex="1EF0"/>
  <outline>
    <contour>
      <point x="231" y="-171" type="curve"/>
      <point x="271" y="-171"/>
      <point x="283" y="-153"/>
      <point x="290" y="-128" type="curve"/>
      <point x="292" y="-121"/>
      <point x="294" y="-109"/>
      <point x="294" y="-102" type="curve"/>
      <point x="294" y="-83"/>
      <point x="280" y="-66"/>
      <point x="242" y="-66" type="curve"/>
      <point x="202" y="-66"/>
      <point x="190" y="-84"/>
      <point x="183" y="-109" type="curve"/>
      <point x="181" y="-116"/>
      <point x="179" y="-128"/>
      <point x="179" y="-135" type="curve"/>
      <point x="179" y="-154"/>
      <point x="193" y="-171"/>
    </contour>
    <contour>
      <point x="169" y="298" type="curve"/>
      <point x="236" y="698" type="line"/>
      <point x="154" y="698" type="line"/>
      <point x="91" y="323" type="line" smooth="yes"/>
      <point x="82" y="269"/>
      <point x="73" y="209"/>
      <point x="73" y="166" type="curve"/>
      <point x="73" y="52"/>
      <point x="126" y="-12"/>
      <point x="269" y="-12" type="curve"/>
      <point x="452" y="-12"/>
      <point x="489" y="84"/>
      <point x="524" y="291" type="curve"/>
      <point x="583" y="646" type="line"/>
      <point x="602" y="646" type="line" smooth="yes"/>
      <point x="651" y="646"/>
      <point x="668" y="674"/>
      <point x="674" y="708" type="curve"/>
      <point x="691" y="809" type="line"/>
      <point x="622" y="809" type="line"/>
      <point x="604" y="698" type="line"/>
      <point x="510" y="698" type="line"/>
      <point x="439" y="274" type="line" smooth="yes"/>
      <point x="416" y="137"/>
      <point x="398" y="60"/>
      <point x="266" y="60" type="curve"/>
      <point x="177" y="60"/>
      <point x="154" y="104"/>
      <point x="154" y="173" type="curve"/>
      <point x="154" y="198"/>
      <point x="157" y="226"/>
    </contour>
  </outline>
</glyph>
<glyph name="Ygrave" format="1">
  <advance width="600"/>
  <unicode hex="1EF2"/>
  <outline>
    <contour>
      <point x="367" y="949" type="line"/>
      <point x="294" y="918" type="line"/>
      <point x="368" y="755" type="line"/>
      <point x="419" y="775" type="line"/>
    </contour>
    <contour>
      <point x="262" y="272" type="line"/>
      <point x="216" y="0" type="line"/>
      <point x="298" y="0" type="line"/>
      <point x="345" y="279" type="line"/>
      <point x="656" y="698" type="line"/>
      <point x="558" y="698" type="line"/>
      <point x="427" y="515" type="line"/>
      <point x="312" y="354" type="line"/>
      <point x="308" y="354" type="line"/>
      <point x="249" y="515" type="line"/>
      <point x="178" y="698" type="line"/>
      <point x="90" y="698" type="line"/>
    </contour>
  </outline>
</glyph>
<glyph name="uni1EF4" format="1">
  <advance width="600"/>
  <unicode hex="1EF4"/>
  <outline>
    <contour>
      <point x="234" y="-171" type="curve"/>
      <point x="274" y="-171"/>
      <point x="286" y="-153"/>
      <point x="293" y="-128" type="curve"/>
      <point x="295" y="-121"/>
      <point x="297" y="-109"/>
      <point x="297" y="-102" type="curve"/>
      <point x="297" y="-83"/>
      <point x="283" y="-66"/>
      <point x="245" y="-66" type="curve"/>
      <point x="205" y="-66"/>
      <point x="193" y="-84"/>
      <point x="186" y="-109" type="curve"/>
      <point x="184" y="-116"/>
      <point x="182" y="-128"/>
      <point x="182" y="-135" type="curve"/>
      <point x="182" y="-154"/>
      <point x="196" y="-171"/>
    </contour>
    <contour>
      <point x="262" y="272" type="line"/>
      <point x="216" y="0" type="line"/>
      <point x="298" y="0" type="line"/>
      <point x="345" y="279" type="line"/>
      <point x="656" y="698" type="line"/>
      <point x="558" y="698" type="line"/>
      <point x="427" y="515" type="line"/>
      <point x="312" y="354" type="line"/>
      <point x="308" y="354" type="line"/>
      <point x="249" y="515" type="line"/>
      <point x="178" y="698" type="line"/>
      <point x="90" y="698" type="line"/>
    </contour>
  </outline>
</glyph>
<glyph name="uni1FBF" format="1">
  <advance width="600"/>
  <unicode hex="1FBF"/>
  <outline>
    <contour>
      <point x="296" y="645" type="qcurve"/>
      <point x="296" y="604" type="line"/>
      <point x="361" y="611"/>
      <point x="417" y="677"/>
      <point x="417" y="735" type="qcurve"/>
      <point x="417" y="762"/>
      <point x="387" y="800"/>
      <point x="361" y="800" type="qcurve"/>
      <point x="337" y="800"/>
      <point x="304" y="776"/>
      <point x="304" y="747" type="qcurve"/>
      <point x="304" y="721"/>
      <point x="337" y="695"/>
      <point x="361" y="695" type="qcurve"/>
      <point x="361" y="677"/>
      <point x="334" y="647"/>
    </contour>
  </outline>
</glyph>
<glyph name="quoteright" format="1">
  <advance width="600"/>
  <unicode hex="2019"/>
  <outline>
    <contour>
      <point x="485" y="740" type="line"/>
      <point x="358" y="740" type="line"/>
      <point x="260" y="464" type="line"/>
      <point x="326" y="464" type="line"/>
    </contour>
  </outline>
</glyph>
<glyph name="quotedblright" format="1">
  <advance width="600"/>
  <unicode hex="201D"/>
  <outline>
    <contour>
      <point x="611" y="740" type="line"/>
      <point x="484" y="740" type="line"/>
      <point x="386" y="464" type="line"/>
      <point x="452" y="464" type="line"/>
    </contour>
    <contour>
      <point x="371" y="740" type="line"/>
      <point x="244" y="740" type="line"/>
      <point x="146" y="464" type="line"/>
      <point x="212" y="464" type="line"/>
    </contour>
  </outline>
</glyph>
<glyph name="dagger" format="1">
  <advance width="600"/>
  <unicode hex="2020"/>
  <outline>
    <contour>
      <point x="297" y="453" type="line"/>
      <point x="189" y="-200" type="line"/>
      <point x="257" y="-200" type="line"/>
      <point x="365" y="453" type="line"/>
      <point x="559" y="453" type="line"/>
      <point x="569" y="516" type="line"/>
      <point x="375" y="516" type="line"/>
      <point x="413" y="740" type="line"/>
      <point x="345" y="740" type="line"/>
      <point x="308" y="516" type="line"/>
      <point x="114" y="516" type="line"/>
      <point x="103" y="453" type="line"/>
    </contour>
  </outline>
</glyph>
<glyph name="uni2083" format="1">
  <advance width="600"/>
  <unicode hex="2083"/>
  <outline>
    <contour>
      <point x="282" y="216" type="curve"/>
      <point x="236" y="216" type="line"/>
      <point x="228" y="167" type="line"/>
      <point x="270" y="167" type="line" smooth="yes"/>
      <point x="312" y="167"/>
      <point x="339" y="146"/>
      <point x="339" y="116" type="curve"/>
      <point x="339" y="111"/>
      <point x="338" y="105"/>
      <point x="337" y="100" type="curve"/>
      <point x="329" y="59"/>
      <point x="303" y="43"/>
      <point x="258" y="43" type="curve"/>
      <point x="208" y="43"/>
      <point x="182" y="63"/>
      <point x="167" y="94" type="curve"/>
      <point x="123" y="63" type="line"/>
      <point x="141" y="25"/>
      <point x="185" y="-6"/>
      <point x="256" y="-6" type="curve"/>
      <point x="346" y="-6"/>
      <point x="400" y="44"/>
      <point x="400" y="109" type="curve"/>
      <point x="400" y="155"/>
      <point x="373" y="181"/>
      <point x="335" y="187" type="curve"/>
      <point x="335" y="189" type="line"/>
      <point x="382" y="198"/>
      <point x="420" y="232"/>
      <point x="420" y="282" type="curve"/>
      <point x="420" y="334"/>
      <point x="380" y="375"/>
      <point x="305" y="375" type="curve"/>
      <point x="246" y="375"/>
      <point x="204" y="349"/>
      <point x="176" y="312" type="curve"/>
      <point x="214" y="278" type="line"/>
      <point x="236" y="310"/>
      <point x="269" y="326"/>
      <point x="303" y="326" type="curve"/>
      <point x="339" y="326"/>
      <point x="358" y="308"/>
      <point x="358" y="284" type="curve"/>
      <point x="358" y="279"/>
      <point x="357" y="273"/>
      <point x="356" y="266" type="curve"/>
      <point x="352" y="239"/>
      <point x="336" y="216"/>
    </contour>
  </outline>
</glyph>
<glyph name="uni2085" format="1">
  <advance width="600"/>
  <unicode hex="2085"/>
  <outline>
    <contour>
      <point x="223" y="185" type="line"/>
      <point x="259" y="320" type="line"/>
      <point x="430" y="320" type="line"/>
      <point x="438" y="369" type="line"/>
      <point x="220" y="369" type="line"/>
      <point x="168" y="164" type="line"/>
      <point x="222" y="157" type="line"/>
      <point x="239" y="174"/>
      <point x="263" y="186"/>
      <point x="293" y="186" type="curve"/>
      <point x="333" y="186"/>
      <point x="355" y="165"/>
      <point x="355" y="135" type="curve"/>
      <point x="355" y="129"/>
      <point x="354" y="117"/>
      <point x="353" y="111" type="curve"/>
      <point x="347" y="73"/>
      <point x="329" y="43"/>
      <point x="272" y="43" type="curve"/>
      <point x="225" y="43"/>
      <point x="205" y="63"/>
      <point x="190" y="94" type="curve"/>
      <point x="144" y="62" type="line"/>
      <point x="162" y="25"/>
      <point x="201" y="-6"/>
      <point x="272" y="-6" type="curve"/>
      <point x="381" y="-6"/>
      <point x="418" y="66"/>
      <point x="418" y="129" type="curve"/>
      <point x="418" y="197"/>
      <point x="375" y="234"/>
      <point x="317" y="234" type="curve"/>
      <point x="279" y="234"/>
      <point x="245" y="218"/>
      <point x="226" y="185" type="curve"/>
    </contour>
  </outline>
</glyph>
<glyph name="uni2089" format="1">
  <advance width="600"/>
  <unicode hex="2089"/>
  <outline>
    <contour>
      <point x="430" y="260" type="curve"/>
      <point x="430" y="330"/>
      <point x="385" y="375"/>
      <point x="305" y="375" type="curve"/>
      <point x="215" y="375"/>
      <point x="159" y="319"/>
      <point x="159" y="240" type="curve"/>
      <point x="159" y="181"/>
      <point x="202" y="138"/>
      <point x="264" y="138" type="curve"/>
      <point x="303" y="138"/>
      <point x="334" y="158"/>
      <point x="353" y="191" type="curve"/>
      <point x="357" y="189" type="line"/>
      <point x="336" y="120"/>
      <point x="269" y="53"/>
      <point x="166" y="0" type="curve"/>
      <point x="254" y="0" type="line"/>
      <point x="340" y="44"/>
      <point x="430" y="148"/>
    </contour>
    <contour>
      <point x="288" y="185" type="curve"/>
      <point x="247" y="185"/>
      <point x="221" y="208"/>
      <point x="221" y="239" type="curve"/>
      <point x="221" y="248"/>
      <point x="222" y="255"/>
      <point x="223" y="261" type="curve"/>
      <point x="231" y="311"/>
      <point x="265" y="328"/>
      <point x="303" y="328" type="curve"/>
      <point x="344" y="328"/>
      <point x="370" y="305"/>
      <point x="370" y="274" type="curve"/>
      <point x="370" y="265"/>
      <point x="369" y="258"/>
      <point x="368" y="252" type="curve"/>
      <point x="360" y="202"/>
      <point x="326" y="185"/>
    </contour>
  </outline>
</glyph>
<glyph name="uni20AA" format="1">
  <advance width="600"/>
  <unicode hex="20AA"/>
  <outline>
    <contour>
      <point x="323" y="551" type="line"/>
      <point x="247" y="551" type="line"/>
      <point x="156" y="0" type="line"/>
      <point x="314" y="0" type="line" smooth="yes"/>
      <point x="438" y="0"/>
      <point x="512" y="63"/>
      <point x="533" y="190" type="curve"/>
      <point x="617" y="698" type="line"/>
      <point x="541" y="698" type="line"/>
      <point x="455" y="178" type="line" smooth="yes"/>
      <point x="442" y="102"/>
      <point x="396" y="63"/>
      <point x="325" y="63" type="curve"/>
      <point x="242" y="63" type="line"/>
    </contour>
    <contour>
      <point x="297" y="698" type="curve"/>
      <point x="136" y="698" type="line"/>
      <point x="21" y="0" type="line"/>
      <point x="97" y="0" type="line"/>
      <point x="202" y="635" type="line"/>
      <point x="287" y="635" type="line" smooth="yes"/>
      <point x="351" y="635"/>
      <point x="380" y="606"/>
      <point x="380" y="555" type="curve"/>
      <point x="380" y="542"/>
      <point x="378" y="528"/>
      <point x="376" y="517" type="curve"/>
      <point x="315" y="147" type="line"/>
      <point x="391" y="147" type="line"/>
      <point x="448" y="492" type="line" smooth="yes"/>
      <point x="452" y="516"/>
      <point x="453" y="537"/>
      <point x="453" y="550" type="curve"/>
      <point x="453" y="647"/>
      <point x="399" y="698"/>
    </contour>
  </outline>
</glyph>
<glyph name="uni20AD" format="1">
  <advance width="600"/>
  <unicode hex="20AD"/>
  <outline>
    <contour>
      <point x="42" y="0" type="line"/>
      <point x="124" y="0" type="line"/>
      <point x="179" y="328" type="line"/>
      <point x="235" y="328" type="line"/>
      <point x="399" y="0" type="line"/>
      <point x="491" y="0" type="line"/>
      <point x="321" y="328" type="line"/>
      <point x="545" y="328" type="line"/>
      <point x="556" y="395" type="line"/>
      <point x="337" y="395" type="line"/>
      <point x="600" y="698" type="line"/>
      <point x="504" y="698" type="line"/>
      <point x="239" y="395" type="line"/>
      <point x="190" y="395" type="line"/>
      <point x="241" y="698" type="line"/>
      <point x="159" y="698" type="line"/>
      <point x="108" y="395" type="line"/>
      <point x="32" y="395" type="line"/>
      <point x="21" y="328" type="line"/>
      <point x="97" y="328" type="line"/>
    </contour>
  </outline>
</glyph>
<glyph name="uni2126" format="1">
  <advance width="600"/>
  <unicode hex="2126"/>
  <outline>
    <contour>
      <point x="121" y="68" type="line"/>
      <point x="-24" y="68" type="line"/>
      <point x="-35" y="0" type="line"/>
      <point x="168" y="0" type="line"/>
      <point x="185" y="104" type="line"/>
      <point x="123" y="131"/>
      <point x="112" y="195"/>
      <point x="112" y="274" type="curve"/>
      <point x="112" y="296"/>
      <point x="114" y="322"/>
      <point x="120" y="357" type="curve"/>
      <point x="138" y="462" type="line" smooth="yes"/>
      <point x="159" y="583"/>
      <point x="213" y="639"/>
      <point x="351" y="639" type="curve"/>
      <point x="487" y="639"/>
      <point x="526" y="579"/>
      <point x="526" y="485" type="curve"/>
      <point x="526" y="462"/>
      <point x="523" y="434"/>
      <point x="517" y="397" type="curve"/>
      <point x="501" y="292" type="line" smooth="yes"/>
      <point x="484" y="180"/>
      <point x="421" y="116"/>
      <point x="360" y="104" type="curve"/>
      <point x="343" y="0" type="line"/>
      <point x="552" y="0" type="line"/>
      <point x="563" y="68" type="line"/>
      <point x="415" y="68" type="line"/>
      <point x="416" y="78" type="line"/>
      <point x="548" y="134"/>
      <point x="605" y="291"/>
      <point x="605" y="449" type="curve"/>
      <point x="605" y="617"/>
      <point x="539" y="710"/>
      <point x="359" y="710" type="curve"/>
      <point x="110" y="710"/>
      <point x="33" y="505"/>
      <point x="33" y="308" type="curve"/>
      <point x="33" y="169"/>
      <point x="77" y="108"/>
      <point x="123" y="78" type="curve"/>
    </contour>
  </outline>
</glyph>
<glyph name="uni2151" format="1">
  <advance width="600"/>
  <unicode hex="2151"/>
  <outline>
    <contour>
      <point x="324" y="0" type="curve"/>
      <point x="409" y="0" type="line"/>
      <point x="480" y="42"/>
      <point x="570" y="127"/>
      <point x="570" y="233" type="curve"/>
      <point x="570" y="299"/>
      <point x="530" y="341"/>
      <point x="457" y="341" type="curve"/>
      <point x="374" y="341"/>
      <point x="315" y="285"/>
      <point x="315" y="211" type="curve"/>
      <point x="315" y="156"/>
      <point x="353" y="120"/>
      <point x="411" y="120" type="curve"/>
      <point x="453" y="120"/>
      <point x="480" y="146"/>
      <point x="498" y="172" type="curve"/>
      <point x="503" y="171" type="line"/>
      <point x="476" y="103"/>
      <point x="416" y="58"/>
    </contour>
    <contour>
      <point x="434" y="166" type="curve"/>
      <point x="399" y="166"/>
      <point x="377" y="184"/>
      <point x="377" y="211" type="curve"/>
      <point x="377" y="217"/>
      <point x="378" y="226"/>
      <point x="380" y="236" type="curve"/>
      <point x="387" y="272"/>
      <point x="414" y="294"/>
      <point x="453" y="294" type="curve"/>
      <point x="488" y="294"/>
      <point x="510" y="276"/>
      <point x="510" y="249" type="curve"/>
      <point x="510" y="243"/>
      <point x="509" y="234"/>
      <point x="507" y="224" type="curve"/>
      <point x="500" y="188"/>
      <point x="473" y="166"/>
    </contour>
    <contour>
      <point x="656" y="698" type="line"/>
      <point x="584" y="698" type="line"/>
      <point x="375" y="398" type="line"/>
      <point x="447" y="398" type="line"/>
    </contour>
    <contour>
      <point x="257" y="300" type="line"/>
      <point x="185" y="300" type="line"/>
      <point x="-24" y="0" type="line"/>
      <point x="48" y="0" type="line"/>
    </contour>
    <contour>
      <point x="159" y="413" type="line"/>
      <point x="66" y="413" type="line"/>
      <point x="58" y="363" type="line"/>
      <point x="295" y="363" type="line"/>
      <point x="304" y="413" type="line"/>
      <point x="221" y="413" type="line"/>
      <point x="269" y="698" type="line"/>
      <point x="202" y="698" type="line"/>
      <point x="86" y="642" type="line"/>
      <point x="103" y="596" type="line"/>
      <point x="198" y="642" type="line"/>
    </contour>
  </outline>
</glyph>
<glyph name="uni2154" format="1">
  <advance width="600"/>
  <unicode hex="2154"/>
  <outline>
    <contour>
      <point x="408" y="-6" type="curve"/>
      <point x="486" y="-6"/>
      <point x="542" y="39"/>
      <point x="542" y="105" type="curve"/>
      <point x="542" y="144"/>
      <point x="515" y="167"/>
      <point x="479" y="173" type="curve"/>
      <point x="479" y="177" type="line"/>
      <point x="523" y="185"/>
      <point x="563" y="214"/>
      <point x="563" y="264" type="curve"/>
      <point x="563" y="311"/>
      <point x="522" y="341"/>
      <point x="456" y="341" type="curve"/>
      <point x="400" y="341"/>
      <point x="365" y="319"/>
      <point x="335" y="284" type="curve"/>
      <point x="373" y="249" type="line"/>
      <point x="393" y="277"/>
      <point x="417" y="291"/>
      <point x="446" y="291" type="curve"/>
      <point x="480" y="291"/>
      <point x="498" y="276"/>
      <point x="498" y="255" type="curve"/>
      <point x="498" y="250"/>
      <point x="498" y="245"/>
      <point x="497" y="237" type="curve"/>
      <point x="494" y="214"/>
      <point x="468" y="197"/>
      <point x="427" y="197" type="curve"/>
      <point x="392" y="197" type="line"/>
      <point x="384" y="150" type="line"/>
      <point x="419" y="150" type="line" smooth="yes"/>
      <point x="459" y="150"/>
      <point x="479" y="135"/>
      <point x="479" y="109" type="curve"/>
      <point x="479" y="104"/>
      <point x="479" y="96"/>
      <point x="478" y="91" type="curve"/>
      <point x="472" y="61"/>
      <point x="447" y="44"/>
      <point x="408" y="44" type="curve"/>
      <point x="364" y="44"/>
      <point x="346" y="66"/>
      <point x="336" y="95" type="curve"/>
      <point x="287" y="65" type="line"/>
      <point x="302" y="28"/>
      <point x="335" y="-6"/>
    </contour>
    <contour>
      <point x="656" y="698" type="line"/>
      <point x="584" y="698" type="line"/>
      <point x="375" y="398" type="line"/>
      <point x="447" y="398" type="line"/>
    </contour>
    <contour>
      <point x="257" y="300" type="line"/>
      <point x="185" y="300" type="line"/>
      <point x="-24" y="0" type="line"/>
      <point x="48" y="0" type="line"/>
    </contour>
    <contour>
      <point x="184" y="511" type="curve"/>
      <point x="57" y="420" type="line"/>
      <point x="47" y="363" type="line"/>
      <point x="290" y="363" type="line"/>
      <point x="298" y="413" type="line"/>
      <point x="125" y="413" type="line"/>
      <point x="214" y="475" type="line" smooth="yes"/>
      <point x="274" y="517"/>
      <point x="319" y="554"/>
      <point x="319" y="613" type="curve"/>
      <point x="319" y="663"/>
      <point x="284" y="704"/>
      <point x="212" y="704" type="curve"/>
      <point x="144" y="704"/>
      <point x="105" y="666"/>
      <point x="83" y="619" type="curve"/>
      <point x="134" y="597" type="line"/>
      <point x="152" y="633"/>
      <point x="172" y="653"/>
      <point x="205" y="653" type="curve"/>
      <point x="237" y="653"/>
      <point x="254" y="637"/>
      <point x="254" y="611" type="curve"/>
      <point x="254" y="608"/>
      <point x="253" y="600"/>
      <point x="252" y="593" type="curve"/>
      <point x="248" y="565"/>
      <point x="229" y="543"/>
    </contour>
  </outline>
</glyph>
<glyph name="uni2156" format="1">
  <advance width="600"/>
  <unicode hex="2156"/>
  <outline>
    <contour>
      <point x="411" y="-6" type="curve"/>
      <point x="499" y="-6"/>
      <point x="553" y="51"/>
      <point x="553" y="122" type="curve"/>
      <point x="553" y="181"/>
      <point x="515" y="215"/>
      <point x="462" y="215" type="curve"/>
      <point x="421" y="215"/>
      <point x="399" y="196"/>
      <point x="379" y="167" type="curve"/>
      <point x="374" y="167" type="line"/>
      <point x="404" y="285" type="line"/>
      <point x="561" y="285" type="line"/>
      <point x="570" y="335" type="line"/>
      <point x="364" y="335" type="line"/>
      <point x="320" y="146" type="line"/>
      <point x="370" y="138" type="line"/>
      <point x="383" y="150"/>
      <point x="409" y="165"/>
      <point x="440" y="165" type="curve"/>
      <point x="469" y="165"/>
      <point x="490" y="151"/>
      <point x="490" y="121" type="curve"/>
      <point x="490" y="114"/>
      <point x="489" y="101"/>
      <point x="486" y="92" type="curve"/>
      <point x="475" y="58"/>
      <point x="441" y="44"/>
      <point x="410" y="44" type="curve"/>
      <point x="373" y="44"/>
      <point x="357" y="64"/>
      <point x="346" y="90" type="curve"/>
      <point x="299" y="63" type="line"/>
      <point x="312" y="27"/>
      <point x="344" y="-6"/>
    </contour>
    <contour>
      <point x="656" y="698" type="line"/>
      <point x="584" y="698" type="line"/>
      <point x="375" y="398" type="line"/>
      <point x="447" y="398" type="line"/>
    </contour>
    <contour>
      <point x="257" y="300" type="line"/>
      <point x="185" y="300" type="line"/>
      <point x="-24" y="0" type="line"/>
      <point x="48" y="0" type="line"/>
    </contour>
    <contour>
      <point x="184" y="511" type="curve"/>
      <point x="57" y="420" type="line"/>
      <point x="47" y="363" type="line"/>
      <point x="290" y="363" type="line"/>
      <point x="298" y="413" type="line"/>
      <point x="125" y="413" type="line"/>
      <point x="214" y="475" type="line" smooth="yes"/>
      <point x="274" y="517"/>
      <point x="319" y="554"/>
      <point x="319" y="613" type="curve"/>
      <point x="319" y="663"/>
      <point x="284" y="704"/>
      <point x="212" y="704" type="curve"/>
      <point x="144" y="704"/>
      <point x="105" y="666"/>
      <point x="83" y="619" type="curve"/>
      <point x="134" y="597" type="line"/>
      <point x="152" y="633"/>
      <point x="172" y="653"/>
      <point x="205" y="653" type="curve"/>
      <point x="237" y="653"/>
      <point x="254" y="637"/>
      <point x="254" y="611" type="curve"/>
      <point x="254" y="608"/>
      <point x="253" y="600"/>
      <point x="252" y="593" type="curve"/>
      <point x="248" y="565"/>
      <point x="229" y="543"/>
    </contour>
  </outline>
</glyph>
